<?xml version="1.0" encoding="utf-8" standalone="no"?>
<!DOCTYPE svg PUBLIC "-//W3C//DTD SVG 1.1//EN"
  "http://www.w3.org/Graphics/SVG/1.1/DTD/svg11.dtd">
<svg xmlns:xlink="http://www.w3.org/1999/xlink" width="246.816pt" height="246.816pt" viewBox="0 0 246.816 246.816" xmlns="http://www.w3.org/2000/svg" version="1.1">
 <metadata>
  <rdf:RDF xmlns:dc="http://purl.org/dc/elements/1.1/" xmlns:cc="http://creativecommons.org/ns#" xmlns:rdf="http://www.w3.org/1999/02/22-rdf-syntax-ns#">
   <cc:Work>
    <dc:type rdf:resource="http://purl.org/dc/dcmitype/StillImage"/>
    <dc:date>2026-07-17T19:34:52.973194</dc:date>
    <dc:format>image/svg+xml</dc:format>
    <dc:creator>
     <cc:Agent>
      <dc:title>Matplotlib v3.10.8, https://matplotlib.org/</dc:title>
     </cc:Agent>
    </dc:creator>
   </cc:Work>
  </rdf:RDF>
 </metadata>
 <defs>
  <style type="text/css">*{stroke-linejoin: round; stroke-linecap: butt}</style>
 </defs>
 <g id="figure_1">
  <g id="patch_1">
   <path d="M 0 246.816 
L 246.816 246.816 
L 246.816 0 
L 0 0 
L 0 246.816 
z
" style="fill: none"/>
  </g>
  <g id="axes_1">
   <g id="patch_2">
    <path d="M 1.44 245.376 
L 245.376 245.376 
L 245.376 1.44 
L 1.44 1.44 
L 1.44 245.376 
z
" style="fill: none"/>
   </g>
   <g id="line2d_1">
    <path d="M 23.842286 222.973714 
L 222.973714 222.973714 
" clip-path="url(#pdc4d77c242)" style="fill: none; stroke: #c9d2d5; stroke-width: 0.7; stroke-linecap: round"/>
   </g>
   <g id="line2d_2">
    <path d="M 23.842286 222.973714 
L 23.842286 23.842286 
" clip-path="url(#pdc4d77c242)" style="fill: none; stroke: #c9d2d5; stroke-width: 0.7; stroke-linecap: round"/>
   </g>
   <g id="line2d_3">
    <path d="M 23.842286 198.082286 
L 222.973714 198.082286 
" clip-path="url(#pdc4d77c242)" style="fill: none; stroke: #c9d2d5; stroke-width: 0.7; stroke-linecap: round"/>
   </g>
   <g id="line2d_4">
    <path d="M 48.733714 222.973714 
L 48.733714 23.842286 
" clip-path="url(#pdc4d77c242)" style="fill: none; stroke: #c9d2d5; stroke-width: 0.7; stroke-linecap: round"/>
   </g>
   <g id="line2d_5">
    <path d="M 23.842286 173.190857 
L 222.973714 173.190857 
" clip-path="url(#pdc4d77c242)" style="fill: none; stroke: #c9d2d5; stroke-width: 0.7; stroke-linecap: round"/>
   </g>
   <g id="line2d_6">
    <path d="M 73.625143 222.973714 
L 73.625143 23.842286 
" clip-path="url(#pdc4d77c242)" style="fill: none; stroke: #c9d2d5; stroke-width: 0.7; stroke-linecap: round"/>
   </g>
   <g id="line2d_7">
    <path d="M 23.842286 148.299429 
L 222.973714 148.299429 
" clip-path="url(#pdc4d77c242)" style="fill: none; stroke: #c9d2d5; stroke-width: 0.7; stroke-linecap: round"/>
   </g>
   <g id="line2d_8">
    <path d="M 98.516571 222.973714 
L 98.516571 23.842286 
" clip-path="url(#pdc4d77c242)" style="fill: none; stroke: #c9d2d5; stroke-width: 0.7; stroke-linecap: round"/>
   </g>
   <g id="line2d_9">
    <path d="M 23.842286 123.408 
L 222.973714 123.408 
" clip-path="url(#pdc4d77c242)" style="fill: none; stroke: #c9d2d5; stroke-width: 0.7; stroke-linecap: round"/>
   </g>
   <g id="line2d_10">
    <path d="M 123.408 222.973714 
L 123.408 23.842286 
" clip-path="url(#pdc4d77c242)" style="fill: none; stroke: #c9d2d5; stroke-width: 0.7; stroke-linecap: round"/>
   </g>
   <g id="line2d_11">
    <path d="M 23.842286 98.516571 
L 222.973714 98.516571 
" clip-path="url(#pdc4d77c242)" style="fill: none; stroke: #c9d2d5; stroke-width: 0.7; stroke-linecap: round"/>
   </g>
   <g id="line2d_12">
    <path d="M 148.299429 222.973714 
L 148.299429 23.842286 
" clip-path="url(#pdc4d77c242)" style="fill: none; stroke: #c9d2d5; stroke-width: 0.7; stroke-linecap: round"/>
   </g>
   <g id="line2d_13">
    <path d="M 23.842286 73.625143 
L 222.973714 73.625143 
" clip-path="url(#pdc4d77c242)" style="fill: none; stroke: #c9d2d5; stroke-width: 0.7; stroke-linecap: round"/>
   </g>
   <g id="line2d_14">
    <path d="M 173.190857 222.973714 
L 173.190857 23.842286 
" clip-path="url(#pdc4d77c242)" style="fill: none; stroke: #c9d2d5; stroke-width: 0.7; stroke-linecap: round"/>
   </g>
   <g id="line2d_15">
    <path d="M 23.842286 48.733714 
L 222.973714 48.733714 
" clip-path="url(#pdc4d77c242)" style="fill: none; stroke: #c9d2d5; stroke-width: 0.7; stroke-linecap: round"/>
   </g>
   <g id="line2d_16">
    <path d="M 198.082286 222.973714 
L 198.082286 23.842286 
" clip-path="url(#pdc4d77c242)" style="fill: none; stroke: #c9d2d5; stroke-width: 0.7; stroke-linecap: round"/>
   </g>
   <g id="line2d_17">
    <path d="M 23.842286 23.842286 
L 222.973714 23.842286 
" clip-path="url(#pdc4d77c242)" style="fill: none; stroke: #c9d2d5; stroke-width: 0.7; stroke-linecap: round"/>
   </g>
   <g id="line2d_18">
    <path d="M 222.973714 222.973714 
L 222.973714 23.842286 
" clip-path="url(#pdc4d77c242)" style="fill: none; stroke: #c9d2d5; stroke-width: 0.7; stroke-linecap: round"/>
   </g>
   <g id="patch_3">
    <path d="M 123.408 148.299429 
C 130.009284 148.299429 136.341085 145.676711 141.008898 141.008898 
C 145.676711 136.341085 148.299429 130.009284 148.299429 123.408 
C 148.299429 116.806716 145.676711 110.474915 141.008898 105.807102 
C 136.341085 101.139289 130.009284 98.516571 123.408 98.516571 
C 116.806716 98.516571 110.474915 101.139289 105.807102 105.807102 
C 101.139289 110.474915 98.516571 116.806716 98.516571 123.408 
C 98.516571 130.009284 101.139289 136.341085 105.807102 141.008898 
C 110.474915 145.676711 116.806716 148.299429 123.408 148.299429 
L 123.408 148.299429 
z
" clip-path="url(#pdc4d77c242)" style="fill: none; opacity: 0.55; stroke-dasharray: 2.7,2.7; stroke-dashoffset: 0; stroke: #eb811b; stroke-width: 0.9; stroke-linejoin: miter"/>
   </g>
   <g id="patch_4">
    <path d="M 123.408 173.190857 
C 136.610568 173.190857 149.27417 167.945421 158.609796 158.609796 
C 167.945421 149.27417 173.190857 136.610568 173.190857 123.408 
C 173.190857 110.205432 167.945421 97.54183 158.609796 88.206204 
C 149.27417 78.870579 136.610568 73.625143 123.408 73.625143 
C 110.205432 73.625143 97.54183 78.870579 88.206204 88.206204 
C 78.870579 97.54183 73.625143 110.205432 73.625143 123.408 
C 73.625143 136.610568 78.870579 149.27417 88.206204 158.609796 
C 97.54183 167.945421 110.205432 173.190857 123.408 173.190857 
L 123.408 173.190857 
z
" clip-path="url(#pdc4d77c242)" style="fill: none; opacity: 0.55; stroke-dasharray: 2.7,2.7; stroke-dashoffset: 0; stroke: #eb811b; stroke-width: 0.9; stroke-linejoin: miter"/>
   </g>
   <g id="patch_5">
    <path d="M 123.408 198.082286 
C 143.211852 198.082286 162.207256 190.214132 176.210694 176.210694 
C 190.214132 162.207256 198.082286 143.211852 198.082286 123.408 
C 198.082286 103.604148 190.214132 84.608744 176.210694 70.605306 
C 162.207256 56.601868 143.211852 48.733714 123.408 48.733714 
C 103.604148 48.733714 84.608744 56.601868 70.605306 70.605306 
C 56.601868 84.608744 48.733714 103.604148 48.733714 123.408 
C 48.733714 143.211852 56.601868 162.207256 70.605306 176.210694 
C 84.608744 190.214132 103.604148 198.082286 123.408 198.082286 
L 123.408 198.082286 
z
" clip-path="url(#pdc4d77c242)" style="fill: none; opacity: 0.55; stroke-dasharray: 2.7,2.7; stroke-dashoffset: 0; stroke: #eb811b; stroke-width: 0.9; stroke-linejoin: miter"/>
   </g>
   <g id="patch_6">
    <path d="M 123.408 222.973714 
C 149.813136 222.973714 175.140341 212.482843 193.811592 193.811592 
C 212.482843 175.140341 222.973714 149.813136 222.973714 123.408 
C 222.973714 97.002864 212.482843 71.675659 193.811592 53.004408 
C 175.140341 34.333157 149.813136 23.842286 123.408 23.842286 
C 97.002864 23.842286 71.675659 34.333157 53.004408 53.004408 
C 34.333157 71.675659 23.842286 97.002864 23.842286 123.408 
C 23.842286 149.813136 34.333157 175.140341 53.004408 193.811592 
C 71.675659 212.482843 97.002864 222.973714 123.408 222.973714 
L 123.408 222.973714 
z
" clip-path="url(#pdc4d77c242)" style="fill: none; opacity: 0.55; stroke-dasharray: 2.7,2.7; stroke-dashoffset: 0; stroke: #eb811b; stroke-width: 0.9; stroke-linejoin: miter"/>
   </g>
   <g id="matplotlib.axis_1"/>
   <g id="matplotlib.axis_2"/>
   <g id="line2d_19">
    <defs>
     <path id="m71728d1e71" d="M 0 1.5 
C 0.397805 1.5 0.77937 1.341951 1.06066 1.06066 
C 1.341951 0.77937 1.5 0.397805 1.5 0 
C 1.5 -0.397805 1.341951 -0.77937 1.06066 -1.06066 
C 0.77937 -1.341951 0.397805 -1.5 0 -1.5 
C -0.397805 -1.5 -0.77937 -1.341951 -1.06066 -1.06066 
C -1.341951 -0.77937 -1.5 -0.397805 -1.5 0 
C -1.5 0.397805 -1.341951 0.77937 -1.06066 1.06066 
C -0.77937 1.341951 -0.397805 1.5 0 1.5 
z
" style="stroke: #8a9aa0"/>
    </defs>
    <g clip-path="url(#pdc4d77c242)">
     <use xlink:href="#m71728d1e71" x="23.842286" y="222.973714" style="fill: #8a9aa0; stroke: #8a9aa0"/>
     <use xlink:href="#m71728d1e71" x="48.733714" y="222.973714" style="fill: #8a9aa0; stroke: #8a9aa0"/>
     <use xlink:href="#m71728d1e71" x="73.625143" y="222.973714" style="fill: #8a9aa0; stroke: #8a9aa0"/>
     <use xlink:href="#m71728d1e71" x="98.516571" y="222.973714" style="fill: #8a9aa0; stroke: #8a9aa0"/>
     <use xlink:href="#m71728d1e71" x="123.408" y="222.973714" style="fill: #8a9aa0; stroke: #8a9aa0"/>
     <use xlink:href="#m71728d1e71" x="148.299429" y="222.973714" style="fill: #8a9aa0; stroke: #8a9aa0"/>
     <use xlink:href="#m71728d1e71" x="173.190857" y="222.973714" style="fill: #8a9aa0; stroke: #8a9aa0"/>
     <use xlink:href="#m71728d1e71" x="198.082286" y="222.973714" style="fill: #8a9aa0; stroke: #8a9aa0"/>
     <use xlink:href="#m71728d1e71" x="222.973714" y="222.973714" style="fill: #8a9aa0; stroke: #8a9aa0"/>
     <use xlink:href="#m71728d1e71" x="23.842286" y="198.082286" style="fill: #8a9aa0; stroke: #8a9aa0"/>
     <use xlink:href="#m71728d1e71" x="48.733714" y="198.082286" style="fill: #8a9aa0; stroke: #8a9aa0"/>
     <use xlink:href="#m71728d1e71" x="73.625143" y="198.082286" style="fill: #8a9aa0; stroke: #8a9aa0"/>
     <use xlink:href="#m71728d1e71" x="98.516571" y="198.082286" style="fill: #8a9aa0; stroke: #8a9aa0"/>
     <use xlink:href="#m71728d1e71" x="123.408" y="198.082286" style="fill: #8a9aa0; stroke: #8a9aa0"/>
     <use xlink:href="#m71728d1e71" x="148.299429" y="198.082286" style="fill: #8a9aa0; stroke: #8a9aa0"/>
     <use xlink:href="#m71728d1e71" x="173.190857" y="198.082286" style="fill: #8a9aa0; stroke: #8a9aa0"/>
     <use xlink:href="#m71728d1e71" x="198.082286" y="198.082286" style="fill: #8a9aa0; stroke: #8a9aa0"/>
     <use xlink:href="#m71728d1e71" x="222.973714" y="198.082286" style="fill: #8a9aa0; stroke: #8a9aa0"/>
     <use xlink:href="#m71728d1e71" x="23.842286" y="173.190857" style="fill: #8a9aa0; stroke: #8a9aa0"/>
     <use xlink:href="#m71728d1e71" x="48.733714" y="173.190857" style="fill: #8a9aa0; stroke: #8a9aa0"/>
     <use xlink:href="#m71728d1e71" x="73.625143" y="173.190857" style="fill: #8a9aa0; stroke: #8a9aa0"/>
     <use xlink:href="#m71728d1e71" x="98.516571" y="173.190857" style="fill: #8a9aa0; stroke: #8a9aa0"/>
     <use xlink:href="#m71728d1e71" x="123.408" y="173.190857" style="fill: #8a9aa0; stroke: #8a9aa0"/>
     <use xlink:href="#m71728d1e71" x="148.299429" y="173.190857" style="fill: #8a9aa0; stroke: #8a9aa0"/>
     <use xlink:href="#m71728d1e71" x="173.190857" y="173.190857" style="fill: #8a9aa0; stroke: #8a9aa0"/>
     <use xlink:href="#m71728d1e71" x="198.082286" y="173.190857" style="fill: #8a9aa0; stroke: #8a9aa0"/>
     <use xlink:href="#m71728d1e71" x="222.973714" y="173.190857" style="fill: #8a9aa0; stroke: #8a9aa0"/>
     <use xlink:href="#m71728d1e71" x="23.842286" y="148.299429" style="fill: #8a9aa0; stroke: #8a9aa0"/>
     <use xlink:href="#m71728d1e71" x="48.733714" y="148.299429" style="fill: #8a9aa0; stroke: #8a9aa0"/>
     <use xlink:href="#m71728d1e71" x="73.625143" y="148.299429" style="fill: #8a9aa0; stroke: #8a9aa0"/>
     <use xlink:href="#m71728d1e71" x="98.516571" y="148.299429" style="fill: #8a9aa0; stroke: #8a9aa0"/>
     <use xlink:href="#m71728d1e71" x="123.408" y="148.299429" style="fill: #8a9aa0; stroke: #8a9aa0"/>
     <use xlink:href="#m71728d1e71" x="148.299429" y="148.299429" style="fill: #8a9aa0; stroke: #8a9aa0"/>
     <use xlink:href="#m71728d1e71" x="173.190857" y="148.299429" style="fill: #8a9aa0; stroke: #8a9aa0"/>
     <use xlink:href="#m71728d1e71" x="198.082286" y="148.299429" style="fill: #8a9aa0; stroke: #8a9aa0"/>
     <use xlink:href="#m71728d1e71" x="222.973714" y="148.299429" style="fill: #8a9aa0; stroke: #8a9aa0"/>
     <use xlink:href="#m71728d1e71" x="23.842286" y="123.408" style="fill: #8a9aa0; stroke: #8a9aa0"/>
     <use xlink:href="#m71728d1e71" x="48.733714" y="123.408" style="fill: #8a9aa0; stroke: #8a9aa0"/>
     <use xlink:href="#m71728d1e71" x="73.625143" y="123.408" style="fill: #8a9aa0; stroke: #8a9aa0"/>
     <use xlink:href="#m71728d1e71" x="98.516571" y="123.408" style="fill: #8a9aa0; stroke: #8a9aa0"/>
     <use xlink:href="#m71728d1e71" x="123.408" y="123.408" style="fill: #8a9aa0; stroke: #8a9aa0"/>
     <use xlink:href="#m71728d1e71" x="148.299429" y="123.408" style="fill: #8a9aa0; stroke: #8a9aa0"/>
     <use xlink:href="#m71728d1e71" x="173.190857" y="123.408" style="fill: #8a9aa0; stroke: #8a9aa0"/>
     <use xlink:href="#m71728d1e71" x="198.082286" y="123.408" style="fill: #8a9aa0; stroke: #8a9aa0"/>
     <use xlink:href="#m71728d1e71" x="222.973714" y="123.408" style="fill: #8a9aa0; stroke: #8a9aa0"/>
     <use xlink:href="#m71728d1e71" x="23.842286" y="98.516571" style="fill: #8a9aa0; stroke: #8a9aa0"/>
     <use xlink:href="#m71728d1e71" x="48.733714" y="98.516571" style="fill: #8a9aa0; stroke: #8a9aa0"/>
     <use xlink:href="#m71728d1e71" x="73.625143" y="98.516571" style="fill: #8a9aa0; stroke: #8a9aa0"/>
     <use xlink:href="#m71728d1e71" x="98.516571" y="98.516571" style="fill: #8a9aa0; stroke: #8a9aa0"/>
     <use xlink:href="#m71728d1e71" x="123.408" y="98.516571" style="fill: #8a9aa0; stroke: #8a9aa0"/>
     <use xlink:href="#m71728d1e71" x="148.299429" y="98.516571" style="fill: #8a9aa0; stroke: #8a9aa0"/>
     <use xlink:href="#m71728d1e71" x="173.190857" y="98.516571" style="fill: #8a9aa0; stroke: #8a9aa0"/>
     <use xlink:href="#m71728d1e71" x="198.082286" y="98.516571" style="fill: #8a9aa0; stroke: #8a9aa0"/>
     <use xlink:href="#m71728d1e71" x="222.973714" y="98.516571" style="fill: #8a9aa0; stroke: #8a9aa0"/>
     <use xlink:href="#m71728d1e71" x="23.842286" y="73.625143" style="fill: #8a9aa0; stroke: #8a9aa0"/>
     <use xlink:href="#m71728d1e71" x="48.733714" y="73.625143" style="fill: #8a9aa0; stroke: #8a9aa0"/>
     <use xlink:href="#m71728d1e71" x="73.625143" y="73.625143" style="fill: #8a9aa0; stroke: #8a9aa0"/>
     <use xlink:href="#m71728d1e71" x="98.516571" y="73.625143" style="fill: #8a9aa0; stroke: #8a9aa0"/>
     <use xlink:href="#m71728d1e71" x="123.408" y="73.625143" style="fill: #8a9aa0; stroke: #8a9aa0"/>
     <use xlink:href="#m71728d1e71" x="148.299429" y="73.625143" style="fill: #8a9aa0; stroke: #8a9aa0"/>
     <use xlink:href="#m71728d1e71" x="173.190857" y="73.625143" style="fill: #8a9aa0; stroke: #8a9aa0"/>
     <use xlink:href="#m71728d1e71" x="198.082286" y="73.625143" style="fill: #8a9aa0; stroke: #8a9aa0"/>
     <use xlink:href="#m71728d1e71" x="222.973714" y="73.625143" style="fill: #8a9aa0; stroke: #8a9aa0"/>
     <use xlink:href="#m71728d1e71" x="23.842286" y="48.733714" style="fill: #8a9aa0; stroke: #8a9aa0"/>
     <use xlink:href="#m71728d1e71" x="48.733714" y="48.733714" style="fill: #8a9aa0; stroke: #8a9aa0"/>
     <use xlink:href="#m71728d1e71" x="73.625143" y="48.733714" style="fill: #8a9aa0; stroke: #8a9aa0"/>
     <use xlink:href="#m71728d1e71" x="98.516571" y="48.733714" style="fill: #8a9aa0; stroke: #8a9aa0"/>
     <use xlink:href="#m71728d1e71" x="123.408" y="48.733714" style="fill: #8a9aa0; stroke: #8a9aa0"/>
     <use xlink:href="#m71728d1e71" x="148.299429" y="48.733714" style="fill: #8a9aa0; stroke: #8a9aa0"/>
     <use xlink:href="#m71728d1e71" x="173.190857" y="48.733714" style="fill: #8a9aa0; stroke: #8a9aa0"/>
     <use xlink:href="#m71728d1e71" x="198.082286" y="48.733714" style="fill: #8a9aa0; stroke: #8a9aa0"/>
     <use xlink:href="#m71728d1e71" x="222.973714" y="48.733714" style="fill: #8a9aa0; stroke: #8a9aa0"/>
     <use xlink:href="#m71728d1e71" x="23.842286" y="23.842286" style="fill: #8a9aa0; stroke: #8a9aa0"/>
     <use xlink:href="#m71728d1e71" x="48.733714" y="23.842286" style="fill: #8a9aa0; stroke: #8a9aa0"/>
     <use xlink:href="#m71728d1e71" x="73.625143" y="23.842286" style="fill: #8a9aa0; stroke: #8a9aa0"/>
     <use xlink:href="#m71728d1e71" x="98.516571" y="23.842286" style="fill: #8a9aa0; stroke: #8a9aa0"/>
     <use xlink:href="#m71728d1e71" x="123.408" y="23.842286" style="fill: #8a9aa0; stroke: #8a9aa0"/>
     <use xlink:href="#m71728d1e71" x="148.299429" y="23.842286" style="fill: #8a9aa0; stroke: #8a9aa0"/>
     <use xlink:href="#m71728d1e71" x="173.190857" y="23.842286" style="fill: #8a9aa0; stroke: #8a9aa0"/>
     <use xlink:href="#m71728d1e71" x="198.082286" y="23.842286" style="fill: #8a9aa0; stroke: #8a9aa0"/>
     <use xlink:href="#m71728d1e71" x="222.973714" y="23.842286" style="fill: #8a9aa0; stroke: #8a9aa0"/>
    </g>
   </g>
   <g id="text_1">
    <!-- defect -->
    <g style="fill: #eb811b" transform="translate(107.378078 145.642426) scale(0.115 -0.115)">
     <defs>
      <path id="FiraSans-Light-64" d="M 3066 4710 
L 3066 0 
L 2746 0 
L 2701 512 
Q 2355 -70 1696 -70 
Q 1114 -70 778 394 
Q 442 858 442 1658 
Q 442 2176 598 2573 
Q 755 2970 1052 3194 
Q 1350 3418 1754 3418 
Q 2323 3418 2694 2963 
L 2694 4755 
L 3066 4710 
z
M 1754 237 
Q 2074 237 2294 390 
Q 2515 544 2694 858 
L 2694 2605 
Q 2336 3110 1818 3110 
Q 1363 3110 1097 2732 
Q 832 2355 838 1664 
Q 838 973 1081 605 
Q 1325 237 1754 237 
z
" transform="scale(0.015625)"/>
      <path id="FiraSans-Light-65" d="M 3053 1798 
Q 3053 1658 3040 1530 
L 806 1530 
Q 838 877 1116 560 
Q 1395 243 1850 243 
Q 2112 243 2313 323 
Q 2515 403 2752 576 
L 2925 339 
Q 2675 134 2412 32 
Q 2150 -70 1830 -70 
Q 1165 -70 787 384 
Q 410 838 410 1645 
Q 410 2176 573 2576 
Q 736 2976 1040 3197 
Q 1344 3418 1747 3418 
Q 2387 3418 2720 2986 
Q 3053 2554 3053 1798 
z
M 2688 1914 
Q 2688 2477 2454 2793 
Q 2221 3110 1760 3110 
Q 1344 3110 1088 2790 
Q 832 2470 806 1818 
L 2688 1818 
L 2688 1914 
z
" transform="scale(0.015625)"/>
      <path id="FiraSans-Light-66" d="M 1664 4448 
Q 1376 4448 1232 4313 
Q 1088 4179 1088 3885 
L 1088 3347 
L 1971 3347 
L 1920 3046 
L 1088 3046 
L 1088 0 
L 717 0 
L 717 3046 
L 134 3046 
L 134 3347 
L 717 3347 
L 717 3898 
Q 717 4294 963 4524 
Q 1210 4755 1645 4755 
Q 2035 4755 2426 4576 
L 2298 4301 
Q 1965 4448 1664 4448 
z
" transform="scale(0.015625)"/>
      <path id="FiraSans-Light-63" d="M 1824 3418 
Q 2112 3418 2336 3338 
Q 2560 3258 2771 3078 
L 2586 2835 
Q 2419 2970 2243 3034 
Q 2067 3098 1843 3098 
Q 1370 3098 1088 2730 
Q 806 2362 806 1658 
Q 806 960 1084 608 
Q 1363 256 1837 256 
Q 2061 256 2243 326 
Q 2426 397 2611 538 
L 2790 288 
Q 2368 -70 1830 -70 
Q 1402 -70 1082 134 
Q 762 339 586 726 
Q 410 1114 410 1651 
Q 410 2182 586 2582 
Q 762 2982 1082 3200 
Q 1402 3418 1824 3418 
z
" transform="scale(0.015625)"/>
      <path id="FiraSans-Light-74" d="M 2202 141 
Q 1882 -70 1498 -70 
Q 1114 -70 896 157 
Q 678 384 678 813 
L 678 3046 
L 115 3046 
L 115 3347 
L 678 3347 
L 678 4147 
L 1050 4192 
L 1050 3347 
L 1914 3347 
L 1869 3046 
L 1050 3046 
L 1050 832 
Q 1050 538 1171 394 
Q 1293 250 1542 250 
Q 1798 250 2054 397 
L 2202 141 
z
" transform="scale(0.015625)"/>
     </defs>
     <use xlink:href="#FiraSans-Light-64"/>
     <use xlink:href="#FiraSans-Light-65" transform="translate(58.499985 0)"/>
     <use xlink:href="#FiraSans-Light-66" transform="translate(112.099976 0)"/>
     <use xlink:href="#FiraSans-Light-65" transform="translate(144.199966 0)"/>
     <use xlink:href="#FiraSans-Light-63" transform="translate(197.799957 0)"/>
     <use xlink:href="#FiraSans-Light-74" transform="translate(244.699951 0)"/>
    </g>
   </g>
   <g id="text_2">
    <!-- $d(x,y)$ -->
    <g style="fill: #33474b" transform="translate(126.651429 87.284571) scale(0.12 -0.12)">
     <defs>
      <path id="FiraSans-LightItalic-64" d="M 3450 4710 
L 2784 0 
L 2464 0 
L 2515 678 
Q 2317 339 2041 134 
Q 1766 -70 1408 -70 
Q 922 -70 650 282 
Q 378 634 378 1248 
Q 378 1734 538 2233 
Q 698 2733 1050 3075 
Q 1402 3418 1946 3418 
Q 2515 3418 2829 2957 
L 3085 4755 
L 3450 4710 
z
M 1997 3110 
Q 1568 3110 1289 2812 
Q 1011 2515 889 2083 
Q 768 1651 768 1229 
Q 768 749 950 496 
Q 1133 243 1459 243 
Q 1805 243 2061 473 
Q 2317 704 2579 1158 
L 2790 2618 
Q 2650 2848 2464 2979 
Q 2278 3110 1997 3110 
z
" transform="scale(0.015625)"/>
      <path id="FiraSans-Light-28" d="M 1728 5203 
Q 1389 4698 1184 4304 
Q 979 3910 854 3404 
Q 730 2899 730 2240 
Q 730 1581 854 1075 
Q 979 570 1184 176 
Q 1389 -218 1728 -723 
L 1491 -877 
Q 1094 -320 867 77 
Q 640 474 493 1005 
Q 346 1536 346 2240 
Q 346 2944 493 3475 
Q 640 4006 867 4403 
Q 1094 4800 1491 5357 
L 1728 5203 
z
" transform="scale(0.015625)"/>
      <path id="FiraSans-LightItalic-78" d="M 2950 3347 
L 1702 1766 
L 2618 0 
L 2202 0 
L 1446 1542 
L 269 0 
L -173 0 
L 1254 1798 
L 454 3347 
L 864 3347 
L 1504 2010 
L 2515 3347 
L 2950 3347 
z
" transform="scale(0.015625)"/>
      <path id="FiraSans-Light-2c" d="M 659 538 
Q 794 538 880 451 
Q 966 365 966 237 
Q 966 96 870 -115 
L 512 -966 
L 243 -966 
L 499 -26 
Q 429 13 390 83 
Q 352 154 352 237 
Q 352 365 441 451 
Q 531 538 659 538 
z
" transform="scale(0.015625)"/>
      <path id="FiraSans-LightItalic-79" d="M 1523 -26 
Q 1248 -602 909 -899 
Q 570 -1197 -32 -1306 
L -51 -1011 
Q 288 -934 499 -812 
Q 710 -691 848 -508 
Q 986 -326 1158 0 
L 1018 0 
L 333 3347 
L 730 3347 
L 1299 282 
L 2720 3347 
L 3117 3347 
L 1523 -26 
z
" transform="scale(0.015625)"/>
      <path id="FiraSans-Light-29" d="M 582 5357 
Q 979 4800 1206 4403 
Q 1434 4006 1581 3475 
Q 1728 2944 1728 2240 
Q 1728 1536 1581 1005 
Q 1434 474 1206 77 
Q 979 -320 582 -877 
L 346 -723 
Q 685 -218 889 176 
Q 1094 570 1219 1075 
Q 1344 1581 1344 2240 
Q 1344 2899 1219 3404 
Q 1094 3910 889 4304 
Q 685 4698 346 5203 
L 582 5357 
z
" transform="scale(0.015625)"/>
     </defs>
     <use xlink:href="#FiraSans-LightItalic-64" transform="translate(0 0.296875)"/>
     <use xlink:href="#FiraSans-Light-28" transform="translate(57.799988 0.296875)"/>
     <use xlink:href="#FiraSans-LightItalic-78" transform="translate(90.199982 0.296875)"/>
     <use xlink:href="#FiraSans-Light-2c" transform="translate(135.899979 0.296875)"/>
     <use xlink:href="#FiraSans-LightItalic-79" transform="translate(173.579974 0.296875)"/>
     <use xlink:href="#FiraSans-Light-29" transform="translate(220.079959 0.296875)"/>
    </g>
   </g>
   <g id="line2d_20">
    <defs>
     <path id="m2679a21706" d="M 0 5.5 
C 1.458617 5.5 2.857689 4.920485 3.889087 3.889087 
C 4.920485 2.857689 5.5 1.458617 5.5 0 
C 5.5 -1.458617 4.920485 -2.857689 3.889087 -3.889087 
C 2.857689 -4.920485 1.458617 -5.5 0 -5.5 
C -1.458617 -5.5 -2.857689 -4.920485 -3.889087 -3.889087 
C -4.920485 -2.857689 -5.5 -1.458617 -5.5 0 
C -5.5 1.458617 -4.920485 2.857689 -3.889087 3.889087 
C -2.857689 4.920485 -1.458617 5.5 0 5.5 
z
" style="stroke: #eb811b"/>
    </defs>
    <g clip-path="url(#pdc4d77c242)">
     <use xlink:href="#m2679a21706" x="123.408" y="123.408" style="fill: #eb811b; stroke: #eb811b"/>
    </g>
   </g>
   <g id="patch_7">
    <path d="M 127.566953 120.635365 
Q 161.57756 97.961627 194.564881 75.970079 
" style="fill: none; stroke: #33474b; stroke-width: 1.1; stroke-linecap: round"/>
    <path d="M 190.127279 76.52478 
L 194.564881 75.970079 
L 192.34608 79.852981 
z
" style="fill: #33474b; stroke: #33474b; stroke-width: 1.1; stroke-linecap: round"/>
   </g>
  </g>
 </g>
 <defs>
  <clipPath id="pdc4d77c242">
   <rect x="1.44" y="1.44" width="243.936" height="243.936"/>
  </clipPath>
 </defs>
</svg>
