<?xml version="1.0" encoding="utf-8" standalone="no"?>
<!DOCTYPE svg PUBLIC "-//W3C//DTD SVG 1.1//EN"
  "http://www.w3.org/Graphics/SVG/1.1/DTD/svg11.dtd">
<svg xmlns:xlink="http://www.w3.org/1999/xlink" width="388.705pt" height="232.562359pt" viewBox="0 0 388.705 232.562359" xmlns="http://www.w3.org/2000/svg" version="1.1">
 <metadata>
  <rdf:RDF xmlns:dc="http://purl.org/dc/elements/1.1/" xmlns:cc="http://creativecommons.org/ns#" xmlns:rdf="http://www.w3.org/1999/02/22-rdf-syntax-ns#">
   <cc:Work>
    <dc:type rdf:resource="http://purl.org/dc/dcmitype/StillImage"/>
    <dc:date>2026-07-17T19:34:52.911557</dc:date>
    <dc:format>image/svg+xml</dc:format>
    <dc:creator>
     <cc:Agent>
      <dc:title>Matplotlib v3.10.8, https://matplotlib.org/</dc:title>
     </cc:Agent>
    </dc:creator>
   </cc:Work>
  </rdf:RDF>
 </metadata>
 <defs>
  <style type="text/css">*{stroke-linejoin: round; stroke-linecap: butt}</style>
 </defs>
 <g id="figure_1">
  <g id="patch_1">
   <path d="M 0 232.562359 
L 388.705 232.562359 
L 388.705 0 
L 0 0 
L 0 232.562359 
z
" style="fill: none"/>
  </g>
  <g id="axes_1">
   <g id="patch_2">
    <path d="M 16.99 201.024 
L 385.27 201.024 
L 385.27 1.44 
L 16.99 1.44 
L 16.99 201.024 
z
" style="fill: none"/>
   </g>
   <g id="FillBetweenPolyCollection_1">
    <defs>
     <path id="m58c1a7ac8f" d="M 16.99 -31.538359 
L 16.99 -46.338348 
L 17.728036 -46.339423 
L 18.466072 -46.340567 
L 19.204108 -46.341782 
L 19.942144 -46.343074 
L 20.68018 -46.344446 
L 21.418216 -46.345904 
L 22.156253 -46.347452 
L 22.894289 -46.349095 
L 23.632325 -46.35084 
L 24.370361 -46.35269 
L 25.108397 -46.354654 
L 25.846433 -46.356736 
L 26.584469 -46.358944 
L 27.322505 -46.361285 
L 28.060541 -46.363765 
L 28.798577 -46.366393 
L 29.536613 -46.369176 
L 30.274649 -46.372124 
L 31.012685 -46.375245 
L 31.750721 -46.378548 
L 32.488758 -46.382043 
L 33.226794 -46.385741 
L 33.96483 -46.389652 
L 34.702866 -46.393787 
L 35.440902 -46.398158 
L 36.178938 -46.402777 
L 36.916974 -46.407658 
L 37.65501 -46.412814 
L 38.393046 -46.418258 
L 39.131082 -46.424006 
L 39.869118 -46.430072 
L 40.607154 -46.436474 
L 41.34519 -46.443228 
L 42.083226 -46.45035 
L 42.821263 -46.457861 
L 43.559299 -46.465777 
L 44.297335 -46.474121 
L 45.035371 -46.482911 
L 45.773407 -46.49217 
L 46.511443 -46.501921 
L 47.249479 -46.512187 
L 47.987515 -46.522991 
L 48.725551 -46.53436 
L 49.463587 -46.546321 
L 50.201623 -46.558899 
L 50.939659 -46.572125 
L 51.677695 -46.586028 
L 52.415731 -46.600639 
L 53.153768 -46.615989 
L 53.891804 -46.632112 
L 54.62984 -46.649043 
L 55.367876 -46.666818 
L 56.105912 -46.685474 
L 56.843948 -46.705049 
L 57.581984 -46.725583 
L 58.32002 -46.747118 
L 59.058056 -46.769697 
L 59.796092 -46.793365 
L 60.534128 -46.818167 
L 61.272164 -46.84415 
L 62.0102 -46.871365 
L 62.748236 -46.899863 
L 63.486273 -46.929695 
L 64.224309 -46.960916 
L 64.962345 -46.993583 
L 65.700381 -47.027753 
L 66.438417 -47.063487 
L 67.176453 -47.100845 
L 67.914489 -47.139893 
L 68.652525 -47.180695 
L 69.390561 -47.22332 
L 70.128597 -47.267837 
L 70.866633 -47.314317 
L 71.604669 -47.362835 
L 72.342705 -47.413467 
L 73.080741 -47.466291 
L 73.818778 -47.521387 
L 74.556814 -47.578839 
L 75.29485 -47.63873 
L 76.032886 -47.701148 
L 76.770922 -47.766183 
L 77.508958 -47.833926 
L 78.246994 -47.904472 
L 78.98503 -47.977917 
L 79.723066 -48.054359 
L 80.461102 -48.1339 
L 81.199138 -48.216645 
L 81.937174 -48.302698 
L 82.67521 -48.392168 
L 83.413246 -48.485166 
L 84.151283 -48.581806 
L 84.889319 -48.682203 
L 85.627355 -48.786476 
L 86.365391 -48.894745 
L 87.103427 -49.007132 
L 87.841463 -49.123764 
L 88.579499 -49.244769 
L 89.317535 -49.370275 
L 90.055571 -49.500417 
L 90.793607 -49.635328 
L 91.531643 -49.775145 
L 92.269679 -49.920008 
L 93.007715 -50.070058 
L 93.745752 -50.225439 
L 94.483788 -50.386296 
L 95.221824 -50.552777 
L 95.95986 -50.725032 
L 96.697896 -50.903211 
L 97.435932 -51.08747 
L 98.173968 -51.277962 
L 98.912004 -51.474845 
L 99.65004 -51.678276 
L 100.388076 -51.888417 
L 101.126112 -52.105429 
L 101.864148 -52.329474 
L 102.602184 -52.560716 
L 103.34022 -52.79932 
L 104.078257 -53.045452 
L 104.816293 -53.29928 
L 105.554329 -53.56097 
L 106.292365 -53.830692 
L 107.030401 -54.108613 
L 107.768437 -54.394903 
L 108.506473 -54.68973 
L 109.244509 -54.993265 
L 109.982545 -55.305676 
L 110.720581 -55.627131 
L 111.458617 -55.9578 
L 112.196653 -56.297848 
L 112.934689 -56.647444 
L 113.672725 -57.006752 
L 114.410762 -57.375936 
L 115.148798 -57.75516 
L 115.886834 -58.144585 
L 116.62487 -58.54437 
L 117.362906 -58.954671 
L 118.100942 -59.375645 
L 118.838978 -59.807442 
L 119.577014 -60.250213 
L 120.31505 -60.704104 
L 121.053086 -61.169258 
L 121.791122 -61.645815 
L 122.529158 -62.133911 
L 123.267194 -62.633677 
L 124.00523 -63.145242 
L 124.743267 -63.668728 
L 125.481303 -64.204254 
L 126.219339 -64.751932 
L 126.957375 -65.311872 
L 127.695411 -65.884175 
L 128.433447 -66.468937 
L 129.171483 -67.06625 
L 129.909519 -67.676197 
L 130.647555 -68.298856 
L 131.385591 -68.934297 
L 132.123627 -69.582584 
L 132.861663 -70.243772 
L 133.599699 -70.917908 
L 134.337735 -71.605035 
L 135.075772 -72.305182 
L 135.813808 -73.018373 
L 136.551844 -73.744624 
L 137.28988 -74.483938 
L 138.027916 -75.236313 
L 138.765952 -76.001735 
L 139.503988 -76.780181 
L 140.242024 -77.571617 
L 140.98006 -78.376001 
L 141.718096 -79.193278 
L 142.456132 -80.023383 
L 143.194168 -80.866242 
L 143.932204 -81.721768 
L 144.67024 -82.589862 
L 145.408277 -83.470416 
L 146.146313 -84.363308 
L 146.884349 -85.268405 
L 147.622385 -86.185563 
L 148.360421 -87.114625 
L 149.098457 -88.055422 
L 149.836493 -89.007771 
L 150.574529 -89.971479 
L 151.312565 -90.946339 
L 152.050601 -91.932132 
L 152.788637 -92.928625 
L 153.526673 -93.935575 
L 154.264709 -94.952722 
L 155.002745 -95.979796 
L 155.740782 -97.016514 
L 156.478818 -98.062579 
L 157.216854 -99.117682 
L 157.95489 -100.1815 
L 158.692926 -101.2537 
L 159.430962 -102.333931 
L 160.168998 -103.421836 
L 160.907034 -104.517039 
L 161.64507 -105.619157 
L 162.383106 -106.727791 
L 163.121142 -107.842531 
L 163.859178 -108.962956 
L 164.597214 -110.088631 
L 165.335251 -111.219111 
L 166.073287 -112.353939 
L 166.811323 -113.492648 
L 167.549359 -114.634759 
L 168.287395 -115.779781 
L 169.025431 -116.927216 
L 169.763467 -118.076553 
L 170.501503 -119.227272 
L 171.239539 -120.378845 
L 171.977575 -121.530733 
L 172.715611 -122.68239 
L 173.453647 -123.83326 
L 174.191683 -124.982782 
L 174.929719 -126.130383 
L 175.667756 -127.275488 
L 176.405792 -128.417512 
L 177.143828 -129.555864 
L 177.881864 -130.689951 
L 178.6199 -131.81917 
L 179.357936 -132.942917 
L 180.095972 -134.060582 
L 180.834008 -135.171551 
L 181.572044 -136.27521 
L 182.31008 -137.370939 
L 183.048116 -138.458117 
L 183.786152 -139.536124 
L 184.524188 -140.604336 
L 185.262224 -141.662131 
L 186.000261 -142.708886 
L 186.738297 -143.74398 
L 187.476333 -144.766793 
L 188.214369 -145.776708 
L 188.952405 -146.77311 
L 189.690441 -147.755387 
L 190.428477 -148.722933 
L 191.166513 -149.675145 
L 191.904549 -150.611425 
L 192.642585 -151.531183 
L 193.380621 -152.433833 
L 194.118657 -153.318799 
L 194.856693 -154.18551 
L 195.594729 -155.033405 
L 196.332766 -155.861932 
L 197.070802 -156.670547 
L 197.808838 -157.458719 
L 198.546874 -158.225924 
L 199.28491 -158.971653 
L 200.022946 -159.695407 
L 200.760982 -160.396699 
L 201.499018 -161.075057 
L 202.237054 -161.730021 
L 202.97509 -162.361144 
L 203.713126 -162.967996 
L 204.451162 -163.550162 
L 205.189198 -164.107239 
L 205.927234 -164.638844 
L 206.665271 -165.144609 
L 207.403307 -165.624182 
L 208.141343 -166.077229 
L 208.879379 -166.503434 
L 209.617415 -166.902498 
L 210.355451 -167.274141 
L 211.093487 -167.618102 
L 211.831523 -167.934138 
L 212.569559 -168.222027 
L 213.307595 -168.481564 
L 214.045631 -168.712566 
L 214.783667 -168.914869 
L 215.521703 -169.088329 
L 216.259739 -169.232824 
L 216.997776 -169.348249 
L 217.735812 -169.434524 
L 218.473848 -169.491586 
L 219.211884 -169.519395 
L 219.94992 -169.517931 
L 220.687956 -169.487196 
L 221.425992 -169.42721 
L 222.164028 -169.338017 
L 222.902064 -169.219681 
L 223.6401 -169.072285 
L 224.378136 -168.895934 
L 225.116172 -168.690755 
L 225.854208 -168.456891 
L 226.592244 -168.19451 
L 227.330281 -167.903798 
L 228.068317 -167.584958 
L 228.806353 -167.238218 
L 229.544389 -166.863821 
L 230.282425 -166.46203 
L 231.020461 -166.033127 
L 231.758497 -165.577413 
L 232.496533 -165.095205 
L 233.234569 -164.586841 
L 233.972605 -164.052671 
L 234.710641 -163.493068 
L 235.448677 -162.908415 
L 236.186713 -162.299117 
L 236.924749 -161.66559 
L 237.662786 -161.008267 
L 238.400822 -160.327594 
L 239.138858 -159.624034 
L 239.876894 -158.898061 
L 240.61493 -158.150162 
L 241.352966 -157.380836 
L 242.091002 -156.590597 
L 242.829038 -155.779967 
L 243.567074 -154.949478 
L 244.30511 -154.099677 
L 245.043146 -153.231115 
L 245.781182 -152.344355 
L 246.519218 -151.439967 
L 247.257255 -150.518531 
L 247.995291 -149.58063 
L 248.733327 -148.626858 
L 249.471363 -147.657812 
L 250.209399 -146.674095 
L 250.947435 -145.676315 
L 251.685471 -144.665082 
L 252.423507 -143.641013 
L 253.161543 -142.604725 
L 253.899579 -141.556838 
L 254.637615 -140.497973 
L 255.375651 -139.428754 
L 256.113687 -138.349802 
L 256.851723 -137.26174 
L 257.58976 -136.16519 
L 258.327796 -135.060773 
L 259.065832 -133.949106 
L 259.803868 -132.830806 
L 260.541904 -131.706484 
L 261.27994 -130.576751 
L 262.017976 -129.442211 
L 262.756012 -128.303465 
L 263.494048 -127.161106 
L 264.232084 -126.015726 
L 264.97012 -124.867906 
L 265.708156 -123.718225 
L 266.446192 -122.567251 
L 267.184228 -121.415546 
L 267.922265 -120.263665 
L 268.660301 -119.112153 
L 269.398337 -117.961548 
L 270.136373 -116.812379 
L 270.874409 -115.665162 
L 271.612445 -114.520409 
L 272.350481 -113.378617 
L 273.088517 -112.240274 
L 273.826553 -111.10586 
L 274.564589 -109.97584 
L 275.302625 -108.85067 
L 276.040661 -107.730794 
L 276.778697 -106.616646 
L 277.516733 -105.508646 
L 278.25477 -104.407202 
L 278.992806 -103.312711 
L 279.730842 -102.225557 
L 280.468878 -101.146112 
L 281.206914 -100.074736 
L 281.94495 -99.011774 
L 282.682986 -97.957561 
L 283.421022 -96.912417 
L 284.159058 -95.87665 
L 284.897094 -94.850556 
L 285.63513 -93.834416 
L 286.373166 -92.828501 
L 287.111202 -91.833067 
L 287.849238 -90.848357 
L 288.587275 -89.874603 
L 289.325311 -88.912022 
L 290.063347 -87.960819 
L 290.801383 -87.021188 
L 291.539419 -86.093309 
L 292.277455 -85.17735 
L 293.015491 -84.273467 
L 293.753527 -83.381803 
L 294.491563 -82.50249 
L 295.229599 -81.635648 
L 295.967635 -80.781385 
L 296.705671 -79.939798 
L 297.443707 -79.110972 
L 298.181743 -78.294981 
L 298.91978 -77.49189 
L 299.657816 -76.701751 
L 300.395852 -75.924606 
L 301.133888 -75.160488 
L 301.871924 -74.409419 
L 302.60996 -73.671411 
L 303.347996 -72.946467 
L 304.086032 -72.23458 
L 304.824068 -71.535736 
L 305.562104 -70.849911 
L 306.30014 -70.177071 
L 307.038176 -69.517176 
L 307.776212 -68.870176 
L 308.514248 -68.236016 
L 309.252285 -67.614632 
L 309.990321 -67.005952 
L 310.728357 -66.409898 
L 311.466393 -65.826385 
L 312.204429 -65.255323 
L 312.942465 -64.696614 
L 313.680501 -64.150156 
L 314.418537 -63.615839 
L 315.156573 -63.093551 
L 315.894609 -62.583172 
L 316.632645 -62.084578 
L 317.370681 -61.597643 
L 318.108717 -61.122232 
L 318.846754 -60.658211 
L 319.58479 -60.205438 
L 320.322826 -59.763771 
L 321.060862 -59.333063 
L 321.798898 -58.913163 
L 322.536934 -58.50392 
L 323.27497 -58.105179 
L 324.013006 -57.716781 
L 324.751042 -57.338569 
L 325.489078 -56.970379 
L 326.227114 -56.61205 
L 326.96515 -56.263416 
L 327.703186 -55.924313 
L 328.441222 -55.594574 
L 329.179259 -55.274031 
L 329.917295 -54.962515 
L 330.655331 -54.659859 
L 331.393367 -54.365892 
L 332.131403 -54.080447 
L 332.869439 -53.803353 
L 333.607475 -53.534443 
L 334.345511 -53.273546 
L 335.083547 -53.020495 
L 335.821583 -52.775123 
L 336.559619 -52.537263 
L 337.297655 -52.306748 
L 338.035691 -52.083414 
L 338.773727 -51.867097 
L 339.511764 -51.657634 
L 340.2498 -51.454864 
L 340.987836 -51.258628 
L 341.725872 -51.068766 
L 342.463908 -50.885122 
L 343.201944 -50.707542 
L 343.93998 -50.535872 
L 344.678016 -50.36996 
L 345.416052 -50.209657 
L 346.154088 -50.054816 
L 346.892124 -49.905291 
L 347.63016 -49.760939 
L 348.368196 -49.621618 
L 349.106232 -49.48719 
L 349.844269 -49.357518 
L 350.582305 -49.232468 
L 351.320341 -49.111907 
L 352.058377 -48.995705 
L 352.796413 -48.883734 
L 353.534449 -48.775871 
L 354.272485 -48.671991 
L 355.010521 -48.571975 
L 355.748557 -48.475704 
L 356.486593 -48.383064 
L 357.224629 -48.29394 
L 357.962665 -48.208223 
L 358.700701 -48.125804 
L 359.438737 -48.046577 
L 360.176774 -47.970439 
L 360.91481 -47.897289 
L 361.652846 -47.827027 
L 362.390882 -47.759559 
L 363.128918 -47.69479 
L 363.866954 -47.632628 
L 364.60499 -47.572985 
L 365.343026 -47.515773 
L 366.081062 -47.460908 
L 366.819098 -47.408307 
L 367.557134 -47.357889 
L 368.29517 -47.309579 
L 369.033206 -47.263298 
L 369.771242 -47.218974 
L 370.509279 -47.176534 
L 371.247315 -47.135911 
L 371.985351 -47.097035 
L 372.723387 -47.059841 
L 373.461423 -47.024267 
L 374.199459 -46.990249 
L 374.937495 -46.95773 
L 375.675531 -46.92665 
L 376.413567 -46.896954 
L 377.151603 -46.868587 
L 377.889639 -46.841497 
L 378.627675 -46.815634 
L 379.365711 -46.790948 
L 380.103747 -46.767391 
L 380.841784 -46.744919 
L 381.57982 -46.723485 
L 382.317856 -46.703049 
L 383.055892 -46.683567 
L 383.793928 -46.665002 
L 384.531964 -46.647313 
L 385.27 -46.630464 
L 385.27 -31.538359 
L 385.27 -31.538359 
L 384.531964 -31.538359 
L 383.793928 -31.538359 
L 383.055892 -31.538359 
L 382.317856 -31.538359 
L 381.57982 -31.538359 
L 380.841784 -31.538359 
L 380.103747 -31.538359 
L 379.365711 -31.538359 
L 378.627675 -31.538359 
L 377.889639 -31.538359 
L 377.151603 -31.538359 
L 376.413567 -31.538359 
L 375.675531 -31.538359 
L 374.937495 -31.538359 
L 374.199459 -31.538359 
L 373.461423 -31.538359 
L 372.723387 -31.538359 
L 371.985351 -31.538359 
L 371.247315 -31.538359 
L 370.509279 -31.538359 
L 369.771242 -31.538359 
L 369.033206 -31.538359 
L 368.29517 -31.538359 
L 367.557134 -31.538359 
L 366.819098 -31.538359 
L 366.081062 -31.538359 
L 365.343026 -31.538359 
L 364.60499 -31.538359 
L 363.866954 -31.538359 
L 363.128918 -31.538359 
L 362.390882 -31.538359 
L 361.652846 -31.538359 
L 360.91481 -31.538359 
L 360.176774 -31.538359 
L 359.438737 -31.538359 
L 358.700701 -31.538359 
L 357.962665 -31.538359 
L 357.224629 -31.538359 
L 356.486593 -31.538359 
L 355.748557 -31.538359 
L 355.010521 -31.538359 
L 354.272485 -31.538359 
L 353.534449 -31.538359 
L 352.796413 -31.538359 
L 352.058377 -31.538359 
L 351.320341 -31.538359 
L 350.582305 -31.538359 
L 349.844269 -31.538359 
L 349.106232 -31.538359 
L 348.368196 -31.538359 
L 347.63016 -31.538359 
L 346.892124 -31.538359 
L 346.154088 -31.538359 
L 345.416052 -31.538359 
L 344.678016 -31.538359 
L 343.93998 -31.538359 
L 343.201944 -31.538359 
L 342.463908 -31.538359 
L 341.725872 -31.538359 
L 340.987836 -31.538359 
L 340.2498 -31.538359 
L 339.511764 -31.538359 
L 338.773727 -31.538359 
L 338.035691 -31.538359 
L 337.297655 -31.538359 
L 336.559619 -31.538359 
L 335.821583 -31.538359 
L 335.083547 -31.538359 
L 334.345511 -31.538359 
L 333.607475 -31.538359 
L 332.869439 -31.538359 
L 332.131403 -31.538359 
L 331.393367 -31.538359 
L 330.655331 -31.538359 
L 329.917295 -31.538359 
L 329.179259 -31.538359 
L 328.441222 -31.538359 
L 327.703186 -31.538359 
L 326.96515 -31.538359 
L 326.227114 -31.538359 
L 325.489078 -31.538359 
L 324.751042 -31.538359 
L 324.013006 -31.538359 
L 323.27497 -31.538359 
L 322.536934 -31.538359 
L 321.798898 -31.538359 
L 321.060862 -31.538359 
L 320.322826 -31.538359 
L 319.58479 -31.538359 
L 318.846754 -31.538359 
L 318.108717 -31.538359 
L 317.370681 -31.538359 
L 316.632645 -31.538359 
L 315.894609 -31.538359 
L 315.156573 -31.538359 
L 314.418537 -31.538359 
L 313.680501 -31.538359 
L 312.942465 -31.538359 
L 312.204429 -31.538359 
L 311.466393 -31.538359 
L 310.728357 -31.538359 
L 309.990321 -31.538359 
L 309.252285 -31.538359 
L 308.514248 -31.538359 
L 307.776212 -31.538359 
L 307.038176 -31.538359 
L 306.30014 -31.538359 
L 305.562104 -31.538359 
L 304.824068 -31.538359 
L 304.086032 -31.538359 
L 303.347996 -31.538359 
L 302.60996 -31.538359 
L 301.871924 -31.538359 
L 301.133888 -31.538359 
L 300.395852 -31.538359 
L 299.657816 -31.538359 
L 298.91978 -31.538359 
L 298.181743 -31.538359 
L 297.443707 -31.538359 
L 296.705671 -31.538359 
L 295.967635 -31.538359 
L 295.229599 -31.538359 
L 294.491563 -31.538359 
L 293.753527 -31.538359 
L 293.015491 -31.538359 
L 292.277455 -31.538359 
L 291.539419 -31.538359 
L 290.801383 -31.538359 
L 290.063347 -31.538359 
L 289.325311 -31.538359 
L 288.587275 -31.538359 
L 287.849238 -31.538359 
L 287.111202 -31.538359 
L 286.373166 -31.538359 
L 285.63513 -31.538359 
L 284.897094 -31.538359 
L 284.159058 -31.538359 
L 283.421022 -31.538359 
L 282.682986 -31.538359 
L 281.94495 -31.538359 
L 281.206914 -31.538359 
L 280.468878 -31.538359 
L 279.730842 -31.538359 
L 278.992806 -31.538359 
L 278.25477 -31.538359 
L 277.516733 -31.538359 
L 276.778697 -31.538359 
L 276.040661 -31.538359 
L 275.302625 -31.538359 
L 274.564589 -31.538359 
L 273.826553 -31.538359 
L 273.088517 -31.538359 
L 272.350481 -31.538359 
L 271.612445 -31.538359 
L 270.874409 -31.538359 
L 270.136373 -31.538359 
L 269.398337 -31.538359 
L 268.660301 -31.538359 
L 267.922265 -31.538359 
L 267.184228 -31.538359 
L 266.446192 -31.538359 
L 265.708156 -31.538359 
L 264.97012 -31.538359 
L 264.232084 -31.538359 
L 263.494048 -31.538359 
L 262.756012 -31.538359 
L 262.017976 -31.538359 
L 261.27994 -31.538359 
L 260.541904 -31.538359 
L 259.803868 -31.538359 
L 259.065832 -31.538359 
L 258.327796 -31.538359 
L 257.58976 -31.538359 
L 256.851723 -31.538359 
L 256.113687 -31.538359 
L 255.375651 -31.538359 
L 254.637615 -31.538359 
L 253.899579 -31.538359 
L 253.161543 -31.538359 
L 252.423507 -31.538359 
L 251.685471 -31.538359 
L 250.947435 -31.538359 
L 250.209399 -31.538359 
L 249.471363 -31.538359 
L 248.733327 -31.538359 
L 247.995291 -31.538359 
L 247.257255 -31.538359 
L 246.519218 -31.538359 
L 245.781182 -31.538359 
L 245.043146 -31.538359 
L 244.30511 -31.538359 
L 243.567074 -31.538359 
L 242.829038 -31.538359 
L 242.091002 -31.538359 
L 241.352966 -31.538359 
L 240.61493 -31.538359 
L 239.876894 -31.538359 
L 239.138858 -31.538359 
L 238.400822 -31.538359 
L 237.662786 -31.538359 
L 236.924749 -31.538359 
L 236.186713 -31.538359 
L 235.448677 -31.538359 
L 234.710641 -31.538359 
L 233.972605 -31.538359 
L 233.234569 -31.538359 
L 232.496533 -31.538359 
L 231.758497 -31.538359 
L 231.020461 -31.538359 
L 230.282425 -31.538359 
L 229.544389 -31.538359 
L 228.806353 -31.538359 
L 228.068317 -31.538359 
L 227.330281 -31.538359 
L 226.592244 -31.538359 
L 225.854208 -31.538359 
L 225.116172 -31.538359 
L 224.378136 -31.538359 
L 223.6401 -31.538359 
L 222.902064 -31.538359 
L 222.164028 -31.538359 
L 221.425992 -31.538359 
L 220.687956 -31.538359 
L 219.94992 -31.538359 
L 219.211884 -31.538359 
L 218.473848 -31.538359 
L 217.735812 -31.538359 
L 216.997776 -31.538359 
L 216.259739 -31.538359 
L 215.521703 -31.538359 
L 214.783667 -31.538359 
L 214.045631 -31.538359 
L 213.307595 -31.538359 
L 212.569559 -31.538359 
L 211.831523 -31.538359 
L 211.093487 -31.538359 
L 210.355451 -31.538359 
L 209.617415 -31.538359 
L 208.879379 -31.538359 
L 208.141343 -31.538359 
L 207.403307 -31.538359 
L 206.665271 -31.538359 
L 205.927234 -31.538359 
L 205.189198 -31.538359 
L 204.451162 -31.538359 
L 203.713126 -31.538359 
L 202.97509 -31.538359 
L 202.237054 -31.538359 
L 201.499018 -31.538359 
L 200.760982 -31.538359 
L 200.022946 -31.538359 
L 199.28491 -31.538359 
L 198.546874 -31.538359 
L 197.808838 -31.538359 
L 197.070802 -31.538359 
L 196.332766 -31.538359 
L 195.594729 -31.538359 
L 194.856693 -31.538359 
L 194.118657 -31.538359 
L 193.380621 -31.538359 
L 192.642585 -31.538359 
L 191.904549 -31.538359 
L 191.166513 -31.538359 
L 190.428477 -31.538359 
L 189.690441 -31.538359 
L 188.952405 -31.538359 
L 188.214369 -31.538359 
L 187.476333 -31.538359 
L 186.738297 -31.538359 
L 186.000261 -31.538359 
L 185.262224 -31.538359 
L 184.524188 -31.538359 
L 183.786152 -31.538359 
L 183.048116 -31.538359 
L 182.31008 -31.538359 
L 181.572044 -31.538359 
L 180.834008 -31.538359 
L 180.095972 -31.538359 
L 179.357936 -31.538359 
L 178.6199 -31.538359 
L 177.881864 -31.538359 
L 177.143828 -31.538359 
L 176.405792 -31.538359 
L 175.667756 -31.538359 
L 174.929719 -31.538359 
L 174.191683 -31.538359 
L 173.453647 -31.538359 
L 172.715611 -31.538359 
L 171.977575 -31.538359 
L 171.239539 -31.538359 
L 170.501503 -31.538359 
L 169.763467 -31.538359 
L 169.025431 -31.538359 
L 168.287395 -31.538359 
L 167.549359 -31.538359 
L 166.811323 -31.538359 
L 166.073287 -31.538359 
L 165.335251 -31.538359 
L 164.597214 -31.538359 
L 163.859178 -31.538359 
L 163.121142 -31.538359 
L 162.383106 -31.538359 
L 161.64507 -31.538359 
L 160.907034 -31.538359 
L 160.168998 -31.538359 
L 159.430962 -31.538359 
L 158.692926 -31.538359 
L 157.95489 -31.538359 
L 157.216854 -31.538359 
L 156.478818 -31.538359 
L 155.740782 -31.538359 
L 155.002745 -31.538359 
L 154.264709 -31.538359 
L 153.526673 -31.538359 
L 152.788637 -31.538359 
L 152.050601 -31.538359 
L 151.312565 -31.538359 
L 150.574529 -31.538359 
L 149.836493 -31.538359 
L 149.098457 -31.538359 
L 148.360421 -31.538359 
L 147.622385 -31.538359 
L 146.884349 -31.538359 
L 146.146313 -31.538359 
L 145.408277 -31.538359 
L 144.67024 -31.538359 
L 143.932204 -31.538359 
L 143.194168 -31.538359 
L 142.456132 -31.538359 
L 141.718096 -31.538359 
L 140.98006 -31.538359 
L 140.242024 -31.538359 
L 139.503988 -31.538359 
L 138.765952 -31.538359 
L 138.027916 -31.538359 
L 137.28988 -31.538359 
L 136.551844 -31.538359 
L 135.813808 -31.538359 
L 135.075772 -31.538359 
L 134.337735 -31.538359 
L 133.599699 -31.538359 
L 132.861663 -31.538359 
L 132.123627 -31.538359 
L 131.385591 -31.538359 
L 130.647555 -31.538359 
L 129.909519 -31.538359 
L 129.171483 -31.538359 
L 128.433447 -31.538359 
L 127.695411 -31.538359 
L 126.957375 -31.538359 
L 126.219339 -31.538359 
L 125.481303 -31.538359 
L 124.743267 -31.538359 
L 124.00523 -31.538359 
L 123.267194 -31.538359 
L 122.529158 -31.538359 
L 121.791122 -31.538359 
L 121.053086 -31.538359 
L 120.31505 -31.538359 
L 119.577014 -31.538359 
L 118.838978 -31.538359 
L 118.100942 -31.538359 
L 117.362906 -31.538359 
L 116.62487 -31.538359 
L 115.886834 -31.538359 
L 115.148798 -31.538359 
L 114.410762 -31.538359 
L 113.672725 -31.538359 
L 112.934689 -31.538359 
L 112.196653 -31.538359 
L 111.458617 -31.538359 
L 110.720581 -31.538359 
L 109.982545 -31.538359 
L 109.244509 -31.538359 
L 108.506473 -31.538359 
L 107.768437 -31.538359 
L 107.030401 -31.538359 
L 106.292365 -31.538359 
L 105.554329 -31.538359 
L 104.816293 -31.538359 
L 104.078257 -31.538359 
L 103.34022 -31.538359 
L 102.602184 -31.538359 
L 101.864148 -31.538359 
L 101.126112 -31.538359 
L 100.388076 -31.538359 
L 99.65004 -31.538359 
L 98.912004 -31.538359 
L 98.173968 -31.538359 
L 97.435932 -31.538359 
L 96.697896 -31.538359 
L 95.95986 -31.538359 
L 95.221824 -31.538359 
L 94.483788 -31.538359 
L 93.745752 -31.538359 
L 93.007715 -31.538359 
L 92.269679 -31.538359 
L 91.531643 -31.538359 
L 90.793607 -31.538359 
L 90.055571 -31.538359 
L 89.317535 -31.538359 
L 88.579499 -31.538359 
L 87.841463 -31.538359 
L 87.103427 -31.538359 
L 86.365391 -31.538359 
L 85.627355 -31.538359 
L 84.889319 -31.538359 
L 84.151283 -31.538359 
L 83.413246 -31.538359 
L 82.67521 -31.538359 
L 81.937174 -31.538359 
L 81.199138 -31.538359 
L 80.461102 -31.538359 
L 79.723066 -31.538359 
L 78.98503 -31.538359 
L 78.246994 -31.538359 
L 77.508958 -31.538359 
L 76.770922 -31.538359 
L 76.032886 -31.538359 
L 75.29485 -31.538359 
L 74.556814 -31.538359 
L 73.818778 -31.538359 
L 73.080741 -31.538359 
L 72.342705 -31.538359 
L 71.604669 -31.538359 
L 70.866633 -31.538359 
L 70.128597 -31.538359 
L 69.390561 -31.538359 
L 68.652525 -31.538359 
L 67.914489 -31.538359 
L 67.176453 -31.538359 
L 66.438417 -31.538359 
L 65.700381 -31.538359 
L 64.962345 -31.538359 
L 64.224309 -31.538359 
L 63.486273 -31.538359 
L 62.748236 -31.538359 
L 62.0102 -31.538359 
L 61.272164 -31.538359 
L 60.534128 -31.538359 
L 59.796092 -31.538359 
L 59.058056 -31.538359 
L 58.32002 -31.538359 
L 57.581984 -31.538359 
L 56.843948 -31.538359 
L 56.105912 -31.538359 
L 55.367876 -31.538359 
L 54.62984 -31.538359 
L 53.891804 -31.538359 
L 53.153768 -31.538359 
L 52.415731 -31.538359 
L 51.677695 -31.538359 
L 50.939659 -31.538359 
L 50.201623 -31.538359 
L 49.463587 -31.538359 
L 48.725551 -31.538359 
L 47.987515 -31.538359 
L 47.249479 -31.538359 
L 46.511443 -31.538359 
L 45.773407 -31.538359 
L 45.035371 -31.538359 
L 44.297335 -31.538359 
L 43.559299 -31.538359 
L 42.821263 -31.538359 
L 42.083226 -31.538359 
L 41.34519 -31.538359 
L 40.607154 -31.538359 
L 39.869118 -31.538359 
L 39.131082 -31.538359 
L 38.393046 -31.538359 
L 37.65501 -31.538359 
L 36.916974 -31.538359 
L 36.178938 -31.538359 
L 35.440902 -31.538359 
L 34.702866 -31.538359 
L 33.96483 -31.538359 
L 33.226794 -31.538359 
L 32.488758 -31.538359 
L 31.750721 -31.538359 
L 31.012685 -31.538359 
L 30.274649 -31.538359 
L 29.536613 -31.538359 
L 28.798577 -31.538359 
L 28.060541 -31.538359 
L 27.322505 -31.538359 
L 26.584469 -31.538359 
L 25.846433 -31.538359 
L 25.108397 -31.538359 
L 24.370361 -31.538359 
L 23.632325 -31.538359 
L 22.894289 -31.538359 
L 22.156253 -31.538359 
L 21.418216 -31.538359 
L 20.68018 -31.538359 
L 19.942144 -31.538359 
L 19.204108 -31.538359 
L 18.466072 -31.538359 
L 17.728036 -31.538359 
L 16.99 -31.538359 
z
"/>
    </defs>
    <g clip-path="url(#pcdc1343bb9)">
     <use xlink:href="#m58c1a7ac8f" x="0" y="232.562359" style="fill: #23373b; fill-opacity: 0.1"/>
    </g>
   </g>
   <g id="matplotlib.axis_1">
    <g id="xtick_1">
     <g id="line2d_1">
      <defs>
       <path id="m97bb8f40f4" d="M 0 0 
L 0 3 
" style="stroke: #33474b; stroke-width: 0.8"/>
      </defs>
      <g>
       <use xlink:href="#m97bb8f40f4" x="16.99" y="201.024" style="fill: #33474b; stroke: #33474b; stroke-width: 0.8"/>
      </g>
     </g>
     <g id="text_1">
      <!-- $0$ -->
      <g style="fill: #33474b" transform="translate(14.3775 214.582203) scale(0.095 -0.095)">
       <defs>
        <path id="FiraSans-Light-30" d="M 1760 4326 
Q 2419 4326 2758 3766 
Q 3098 3206 3098 2125 
Q 3098 1050 2755 490 
Q 2413 -70 1760 -70 
Q 1101 -70 761 490 
Q 422 1050 422 2131 
Q 422 3213 761 3769 
Q 1101 4326 1760 4326 
z
M 1760 4019 
Q 806 4019 806 2131 
Q 806 237 1760 237 
Q 2227 237 2467 697 
Q 2707 1158 2707 2125 
Q 2707 3091 2467 3555 
Q 2227 4019 1760 4019 
z
" transform="scale(0.015625)"/>
       </defs>
       <use xlink:href="#FiraSans-Light-30" transform="translate(0 0.40625)"/>
      </g>
     </g>
    </g>
    <g id="xtick_2">
     <g id="line2d_2">
      <g>
       <use xlink:href="#m97bb8f40f4" x="385.27" y="201.024" style="fill: #33474b; stroke: #33474b; stroke-width: 0.8"/>
      </g>
     </g>
     <g id="text_2">
      <!-- $1$ -->
      <g style="fill: #33474b" transform="translate(383.275 214.582203) scale(0.095 -0.095)">
       <defs>
        <path id="FiraSans-Light-31" d="M 1869 4256 
L 1869 0 
L 1498 0 
L 1498 3846 
L 448 3194 
L 275 3469 
L 1549 4256 
L 1869 4256 
z
" transform="scale(0.015625)"/>
       </defs>
       <use xlink:href="#FiraSans-Light-31" transform="translate(0 0.5)"/>
      </g>
     </g>
    </g>
    <g id="text_3">
     <!-- $\lambda$ -->
     <g style="fill: #33474b" transform="translate(198.545 228.779703) scale(0.11 -0.11)">
      <defs>
       <path id="FiraSans-LightItalic-3bb" d="M 966 4762 
Q 1376 4678 1600 4502 
Q 1824 4326 1929 4022 
Q 2035 3718 2067 3213 
Q 2138 2234 2250 1645 
Q 2362 1056 2490 736 
Q 2618 416 2829 70 
L 2483 -51 
Q 2272 294 2141 627 
Q 2010 960 1907 1529 
Q 1805 2099 1754 3002 
L 314 -58 
L -32 32 
L 1587 3386 
L 1728 3360 
Q 1696 3712 1622 3926 
Q 1549 4141 1376 4275 
Q 1203 4410 890 4474 
L 966 4762 
z
" transform="scale(0.015625)"/>
      </defs>
      <use xlink:href="#FiraSans-LightItalic-3bb" transform="translate(0 0.59375)"/>
     </g>
    </g>
   </g>
   <g id="matplotlib.axis_2">
    <g id="text_4">
     <!-- $g(\lambda)$ -->
     <g style="fill: #33474b" transform="translate(10.647344 110.527) rotate(-90) scale(0.11 -0.11)">
      <defs>
       <path id="FiraSans-LightItalic-67" d="M 2118 3418 
Q 2432 3418 2681 3347 
Q 2931 3277 3194 3142 
L 2739 26 
Q 2541 -1325 1338 -1325 
Q 762 -1325 230 -1011 
L 378 -730 
Q 864 -998 1325 -998 
Q 2227 -998 2374 19 
L 2451 576 
Q 2259 314 1996 157 
Q 1734 0 1440 0 
Q 947 0 665 345 
Q 384 691 378 1280 
Q 378 1779 560 2272 
Q 742 2765 1132 3091 
Q 1523 3418 2118 3418 
z
M 2118 3117 
Q 1658 3117 1354 2835 
Q 1050 2554 909 2131 
Q 768 1709 774 1280 
Q 774 813 966 563 
Q 1158 314 1498 314 
Q 1792 314 2041 493 
Q 2291 672 2515 1011 
L 2797 2963 
Q 2490 3117 2118 3117 
z
" transform="scale(0.015625)"/>
       <path id="FiraSans-Light-28" d="M 1728 5203 
Q 1389 4698 1184 4304 
Q 979 3910 854 3404 
Q 730 2899 730 2240 
Q 730 1581 854 1075 
Q 979 570 1184 176 
Q 1389 -218 1728 -723 
L 1491 -877 
Q 1094 -320 867 77 
Q 640 474 493 1005 
Q 346 1536 346 2240 
Q 346 2944 493 3475 
Q 640 4006 867 4403 
Q 1094 4800 1491 5357 
L 1728 5203 
z
" transform="scale(0.015625)"/>
       <path id="FiraSans-Light-29" d="M 582 5357 
Q 979 4800 1206 4403 
Q 1434 4006 1581 3475 
Q 1728 2944 1728 2240 
Q 1728 1536 1581 1005 
Q 1434 474 1206 77 
Q 979 -320 582 -877 
L 346 -723 
Q 685 -218 889 176 
Q 1094 570 1219 1075 
Q 1344 1581 1344 2240 
Q 1344 2899 1219 3404 
Q 1094 3910 889 4304 
Q 685 4698 346 5203 
L 582 5357 
z
" transform="scale(0.015625)"/>
      </defs>
      <use xlink:href="#FiraSans-LightItalic-67" transform="translate(0 0.296875)"/>
      <use xlink:href="#FiraSans-Light-28" transform="translate(56.799988 0.296875)"/>
      <use xlink:href="#FiraSans-LightItalic-3bb" transform="translate(89.199982 0.296875)"/>
      <use xlink:href="#FiraSans-Light-29" transform="translate(136.199966 0.296875)"/>
     </g>
    </g>
   </g>
   <g id="line2d_3">
    <path d="M 16.99 186.224012 
L 45.035371 186.079448 
L 59.058056 185.792662 
L 68.652525 185.381664 
L 76.032886 184.861211 
L 82.67521 184.170192 
L 88.579499 183.317591 
L 93.745752 182.33692 
L 98.173968 181.284398 
L 102.602184 180.001644 
L 107.030401 178.453747 
L 110.720581 176.935228 
L 114.410762 175.186423 
L 118.100942 173.186715 
L 121.791122 170.916544 
L 125.481303 168.358106 
L 129.171483 165.496109 
L 132.861663 162.318588 
L 136.551844 158.817736 
L 140.242024 154.990742 
L 143.932204 150.840592 
L 147.622385 146.376796 
L 152.050601 140.630227 
L 156.478818 134.49978 
L 161.64507 126.943202 
L 168.287395 116.782578 
L 181.572044 96.28715 
L 186.000261 89.853473 
L 189.690441 84.806972 
L 193.380621 80.128526 
L 196.332766 76.700427 
L 199.28491 73.590706 
L 202.237054 70.832339 
L 204.451162 69.012198 
L 206.665271 67.41775 
L 208.879379 66.058926 
L 211.093487 64.944258 
L 213.307595 64.080795 
L 215.521703 63.47403 
L 217.735812 63.127836 
L 219.94992 63.044428 
L 222.164028 63.224342 
L 224.378136 63.666425 
L 226.592244 64.367849 
L 228.806353 65.324141 
L 231.020461 66.529232 
L 233.234569 67.975519 
L 235.448677 69.653944 
L 238.400822 72.234765 
L 241.352966 75.181523 
L 244.30511 78.462683 
L 247.257255 82.043829 
L 250.947435 86.886045 
L 255.375651 93.133606 
L 260.541904 100.855875 
L 269.398337 114.600811 
L 277.516733 127.053714 
L 282.682986 134.604799 
L 287.111202 140.729292 
L 291.539419 146.46905 
L 295.229599 150.926711 
L 298.91978 155.070469 
L 302.60996 158.890949 
L 306.30014 162.385289 
L 309.990321 165.556408 
L 313.680501 168.412203 
L 317.370681 170.964717 
L 321.060862 173.229297 
L 324.751042 175.223791 
L 328.441222 176.967785 
L 332.131403 178.481912 
L 335.821583 179.787236 
L 340.2498 181.107495 
L 344.678016 182.1924 
L 349.844269 183.204841 
L 355.010521 183.990384 
L 360.91481 184.665071 
L 367.557134 185.20447 
L 375.675531 185.63571 
L 385.27 185.931895 
L 385.27 185.931895 
" clip-path="url(#pcdc1343bb9)" style="fill: none; stroke: #23373b; stroke-width: 2.4; stroke-linecap: round"/>
   </g>
   <g id="patch_3">
    <path d="M 16.99 201.024 
L 16.99 1.44 
" style="fill: none; stroke: #33474b; stroke-width: 0.8; stroke-linejoin: miter; stroke-linecap: square"/>
   </g>
   <g id="patch_4">
    <path d="M 16.99 201.024 
L 385.27 201.024 
" style="fill: none; stroke: #33474b; stroke-width: 0.8; stroke-linejoin: miter; stroke-linecap: square"/>
   </g>
   <g id="patch_5">
    <path d="M 281.549979 31.444413 
Q 252.163487 46.340129 222.776996 61.235845 
" style="fill: none; stroke: #9c162a; stroke-linecap: round"/>
   </g>
   <g id="text_5">
    <!-- topological crossover -->
    <g style="fill: #9c162a" transform="translate(241.308684 26.082964) scale(0.12 -0.12)">
     <defs>
      <path id="FiraSans-Light-74" d="M 2202 141 
Q 1882 -70 1498 -70 
Q 1114 -70 896 157 
Q 678 384 678 813 
L 678 3046 
L 115 3046 
L 115 3347 
L 678 3347 
L 678 4147 
L 1050 4192 
L 1050 3347 
L 1914 3347 
L 1869 3046 
L 1050 3046 
L 1050 832 
Q 1050 538 1171 394 
Q 1293 250 1542 250 
Q 1798 250 2054 397 
L 2202 141 
z
" transform="scale(0.015625)"/>
      <path id="FiraSans-Light-6f" d="M 1830 3418 
Q 2496 3418 2870 2960 
Q 3245 2502 3245 1683 
Q 3245 870 2864 400 
Q 2483 -70 1824 -70 
Q 1158 -70 784 394 
Q 410 858 410 1670 
Q 410 2202 582 2598 
Q 755 2995 1075 3206 
Q 1395 3418 1830 3418 
z
M 1830 3104 
Q 1344 3104 1075 2739 
Q 806 2374 806 1670 
Q 806 973 1072 608 
Q 1338 243 1824 243 
Q 2310 243 2582 608 
Q 2854 973 2854 1683 
Q 2854 2381 2588 2742 
Q 2323 3104 1830 3104 
z
" transform="scale(0.015625)"/>
      <path id="FiraSans-Light-70" d="M 2061 3418 
Q 2669 3418 2973 2966 
Q 3277 2515 3277 1690 
Q 3277 883 2947 406 
Q 2618 -70 2003 -70 
Q 1702 -70 1459 54 
Q 1216 179 1050 390 
L 1050 -1261 
L 678 -1312 
L 678 3347 
L 998 3347 
L 1030 2861 
Q 1216 3123 1481 3270 
Q 1747 3418 2061 3418 
z
M 1933 243 
Q 2394 243 2637 608 
Q 2880 973 2880 1690 
Q 2880 3110 1990 3110 
Q 1690 3110 1469 2956 
Q 1248 2803 1050 2534 
L 1050 755 
Q 1382 243 1933 243 
z
" transform="scale(0.015625)"/>
      <path id="FiraSans-Light-6c" d="M 1235 -70 
Q 960 -70 803 90 
Q 646 250 646 563 
L 646 4710 
L 1018 4755 
L 1018 576 
Q 1018 250 1286 250 
Q 1421 250 1517 294 
L 1619 19 
Q 1440 -70 1235 -70 
z
" transform="scale(0.015625)"/>
      <path id="FiraSans-Light-67" d="M 3168 3277 
Q 2861 3194 2240 3181 
Q 2810 2912 2810 2272 
Q 2810 1779 2483 1475 
Q 2157 1171 1600 1171 
Q 1350 1171 1165 1235 
Q 1043 1165 976 1065 
Q 909 966 909 851 
Q 909 506 1440 506 
L 1984 506 
Q 2477 506 2768 266 
Q 3059 26 3059 -352 
Q 3059 -813 2694 -1062 
Q 2330 -1312 1606 -1312 
Q 858 -1312 534 -1085 
Q 211 -858 211 -352 
L 557 -352 
Q 563 -595 659 -736 
Q 755 -877 979 -941 
Q 1203 -1005 1606 -1005 
Q 2170 -1005 2426 -841 
Q 2682 -678 2682 -371 
Q 2682 -102 2483 42 
Q 2285 186 1926 186 
L 1382 186 
Q 986 186 771 352 
Q 557 518 557 774 
Q 557 941 653 1088 
Q 749 1235 922 1344 
Q 634 1491 496 1721 
Q 358 1952 358 2285 
Q 358 2790 697 3104 
Q 1037 3418 1587 3418 
Q 2195 3411 2473 3462 
Q 2752 3514 3053 3635 
L 3168 3277 
z
M 1587 3130 
Q 1171 3130 956 2899 
Q 742 2669 742 2285 
Q 742 1888 969 1664 
Q 1197 1440 1587 1440 
Q 1997 1440 2214 1661 
Q 2432 1882 2432 2278 
Q 2432 2682 2217 2906 
Q 2003 3130 1587 3130 
z
" transform="scale(0.015625)"/>
      <path id="FiraSans-Light-69" d="M 1050 3347 
L 1050 0 
L 678 0 
L 678 3347 
L 1050 3347 
z
M 858 4819 
Q 986 4819 1062 4742 
Q 1139 4666 1139 4550 
Q 1139 4435 1062 4358 
Q 986 4282 858 4282 
Q 736 4282 659 4358 
Q 583 4435 583 4550 
Q 583 4666 659 4742 
Q 736 4819 858 4819 
z
" transform="scale(0.015625)"/>
      <path id="FiraSans-Light-63" d="M 1824 3418 
Q 2112 3418 2336 3338 
Q 2560 3258 2771 3078 
L 2586 2835 
Q 2419 2970 2243 3034 
Q 2067 3098 1843 3098 
Q 1370 3098 1088 2730 
Q 806 2362 806 1658 
Q 806 960 1084 608 
Q 1363 256 1837 256 
Q 2061 256 2243 326 
Q 2426 397 2611 538 
L 2790 288 
Q 2368 -70 1830 -70 
Q 1402 -70 1082 134 
Q 762 339 586 726 
Q 410 1114 410 1651 
Q 410 2182 586 2582 
Q 762 2982 1082 3200 
Q 1402 3418 1824 3418 
z
" transform="scale(0.015625)"/>
      <path id="FiraSans-Light-61" d="M 2758 742 
Q 2758 480 2825 365 
Q 2893 250 3040 192 
L 2957 -70 
Q 2726 -26 2601 102 
Q 2477 230 2438 493 
Q 2093 -70 1395 -70 
Q 915 -70 636 202 
Q 358 474 358 928 
Q 358 1446 726 1728 
Q 1094 2010 1747 2010 
L 2387 2010 
L 2387 2336 
Q 2387 2739 2208 2921 
Q 2029 3104 1613 3104 
Q 1229 3104 704 2912 
L 608 3194 
Q 1171 3418 1664 3418 
Q 2758 3418 2758 2355 
L 2758 742 
z
M 1459 230 
Q 2061 230 2387 819 
L 2387 1741 
L 1805 1741 
Q 1293 1741 1024 1542 
Q 755 1344 755 947 
Q 755 602 940 416 
Q 1126 230 1459 230 
z
" transform="scale(0.015625)"/>
      <path id="FiraSans-Light-20" transform="scale(0.015625)"/>
      <path id="FiraSans-Light-72" d="M 1978 3418 
Q 2176 3418 2310 3379 
L 2240 3027 
Q 2099 3066 1946 3066 
Q 1606 3066 1398 2819 
Q 1190 2573 1050 2048 
L 1050 0 
L 678 0 
L 678 3347 
L 998 3347 
L 1030 2598 
Q 1165 3014 1398 3216 
Q 1632 3418 1978 3418 
z
" transform="scale(0.015625)"/>
      <path id="FiraSans-Light-73" d="M 1498 3418 
Q 1811 3418 2067 3325 
Q 2323 3232 2566 3046 
L 2394 2803 
Q 2163 2963 1958 3036 
Q 1754 3110 1510 3110 
Q 1178 3110 973 2956 
Q 768 2803 768 2547 
Q 768 2304 944 2169 
Q 1120 2035 1581 1914 
Q 2150 1766 2403 1542 
Q 2656 1318 2656 902 
Q 2656 454 2310 192 
Q 1965 -70 1446 -70 
Q 1062 -70 774 42 
Q 486 154 250 358 
L 454 595 
Q 678 416 912 329 
Q 1146 243 1440 243 
Q 1811 243 2038 412 
Q 2266 582 2266 883 
Q 2266 1088 2189 1216 
Q 2112 1344 1926 1437 
Q 1741 1530 1382 1626 
Q 851 1766 617 1977 
Q 384 2189 384 2541 
Q 384 2790 531 2992 
Q 678 3194 931 3306 
Q 1184 3418 1498 3418 
z
" transform="scale(0.015625)"/>
      <path id="FiraSans-Light-76" d="M 2912 3347 
L 1754 0 
L 1293 0 
L 96 3347 
L 506 3347 
L 1523 326 
L 2515 3347 
L 2912 3347 
z
" transform="scale(0.015625)"/>
      <path id="FiraSans-Light-65" d="M 3053 1798 
Q 3053 1658 3040 1530 
L 806 1530 
Q 838 877 1116 560 
Q 1395 243 1850 243 
Q 2112 243 2313 323 
Q 2515 403 2752 576 
L 2925 339 
Q 2675 134 2412 32 
Q 2150 -70 1830 -70 
Q 1165 -70 787 384 
Q 410 838 410 1645 
Q 410 2176 573 2576 
Q 736 2976 1040 3197 
Q 1344 3418 1747 3418 
Q 2387 3418 2720 2986 
Q 3053 2554 3053 1798 
z
M 2688 1914 
Q 2688 2477 2454 2793 
Q 2221 3110 1760 3110 
Q 1344 3110 1088 2790 
Q 832 2470 806 1818 
L 2688 1818 
L 2688 1914 
z
" transform="scale(0.015625)"/>
     </defs>
     <use xlink:href="#FiraSans-Light-74"/>
     <use xlink:href="#FiraSans-Light-6f" transform="translate(34.099991 0)"/>
     <use xlink:href="#FiraSans-Light-70" transform="translate(91.199982 0)"/>
     <use xlink:href="#FiraSans-Light-6f" transform="translate(149.299973 0)"/>
     <use xlink:href="#FiraSans-Light-6c" transform="translate(206.399963 0)"/>
     <use xlink:href="#FiraSans-Light-6f" transform="translate(234.799957 0)"/>
     <use xlink:href="#FiraSans-Light-67" transform="translate(291.899948 0)"/>
     <use xlink:href="#FiraSans-Light-69" transform="translate(342.199936 0)"/>
     <use xlink:href="#FiraSans-Light-63" transform="translate(369.199921 0)"/>
     <use xlink:href="#FiraSans-Light-61" transform="translate(416.099915 0)"/>
     <use xlink:href="#FiraSans-Light-6c" transform="translate(469.699905 0)"/>
     <use xlink:href="#FiraSans-Light-20" transform="translate(498.099899 0)"/>
     <use xlink:href="#FiraSans-Light-63" transform="translate(525.999893 0)"/>
     <use xlink:href="#FiraSans-Light-72" transform="translate(572.899887 0)"/>
     <use xlink:href="#FiraSans-Light-6f" transform="translate(610.199875 0)"/>
     <use xlink:href="#FiraSans-Light-73" transform="translate(667.299866 0)"/>
     <use xlink:href="#FiraSans-Light-73" transform="translate(713.69986 0)"/>
     <use xlink:href="#FiraSans-Light-6f" transform="translate(760.099854 0)"/>
     <use xlink:href="#FiraSans-Light-76" transform="translate(817.199844 0)"/>
     <use xlink:href="#FiraSans-Light-65" transform="translate(864.199829 0)"/>
     <use xlink:href="#FiraSans-Light-72" transform="translate(917.79982 0)"/>
    </g>
   </g>
   <g id="text_6">
    <!-- barriers -->
    <g style="fill: #8a9aa0" transform="translate(17.963603 158.376914) scale(0.11 -0.11)">
     <defs>
      <path id="FiraSans-Light-62" d="M 2054 3418 
Q 2637 3418 2957 2970 
Q 3277 2522 3277 1690 
Q 3277 877 2941 403 
Q 2605 -70 2003 -70 
Q 1702 -70 1456 64 
Q 1210 198 1043 422 
L 1005 0 
L 678 0 
L 678 4710 
L 1050 4755 
L 1050 2880 
Q 1446 3418 2054 3418 
z
M 1933 237 
Q 2387 237 2633 605 
Q 2880 973 2880 1690 
Q 2880 3110 1978 3110 
Q 1677 3110 1459 2960 
Q 1242 2810 1050 2534 
L 1050 774 
Q 1210 525 1434 381 
Q 1658 237 1933 237 
z
" transform="scale(0.015625)"/>
     </defs>
     <use xlink:href="#FiraSans-Light-62"/>
     <use xlink:href="#FiraSans-Light-61" transform="translate(58.099991 0)"/>
     <use xlink:href="#FiraSans-Light-72" transform="translate(111.699982 0)"/>
     <use xlink:href="#FiraSans-Light-72" transform="translate(148.999969 0)"/>
     <use xlink:href="#FiraSans-Light-69" transform="translate(186.299957 0)"/>
     <use xlink:href="#FiraSans-Light-65" transform="translate(213.299942 0)"/>
     <use xlink:href="#FiraSans-Light-72" transform="translate(266.899933 0)"/>
     <use xlink:href="#FiraSans-Light-73" transform="translate(304.199921 0)"/>
    </g>
    <!-- absent -->
    <g style="fill: #8a9aa0" transform="translate(20.515088 171.665) scale(0.11 -0.11)">
     <defs>
      <path id="FiraSans-Light-6e" d="M 2157 3418 
Q 2611 3418 2851 3149 
Q 3091 2880 3091 2394 
L 3091 0 
L 2720 0 
L 2720 2342 
Q 2720 2746 2560 2931 
Q 2400 3117 2086 3117 
Q 1766 3117 1520 2941 
Q 1274 2765 1050 2426 
L 1050 0 
L 678 0 
L 678 3347 
L 998 3347 
L 1037 2778 
Q 1242 3078 1523 3248 
Q 1805 3418 2157 3418 
z
" transform="scale(0.015625)"/>
     </defs>
     <use xlink:href="#FiraSans-Light-61"/>
     <use xlink:href="#FiraSans-Light-62" transform="translate(53.599991 0)"/>
     <use xlink:href="#FiraSans-Light-73" transform="translate(111.699982 0)"/>
     <use xlink:href="#FiraSans-Light-65" transform="translate(158.099976 0)"/>
     <use xlink:href="#FiraSans-Light-6e" transform="translate(211.699966 0)"/>
     <use xlink:href="#FiraSans-Light-74" transform="translate(270.09996 0)"/>
    </g>
   </g>
   <g id="text_7">
    <!-- barriers -->
    <g style="fill: #8a9aa0" transform="translate(345.732803 158.376914) scale(0.11 -0.11)">
     <use xlink:href="#FiraSans-Light-62"/>
     <use xlink:href="#FiraSans-Light-61" transform="translate(58.099991 0)"/>
     <use xlink:href="#FiraSans-Light-72" transform="translate(111.699982 0)"/>
     <use xlink:href="#FiraSans-Light-72" transform="translate(148.999969 0)"/>
     <use xlink:href="#FiraSans-Light-69" transform="translate(186.299957 0)"/>
     <use xlink:href="#FiraSans-Light-65" transform="translate(213.299942 0)"/>
     <use xlink:href="#FiraSans-Light-72" transform="translate(266.899933 0)"/>
     <use xlink:href="#FiraSans-Light-73" transform="translate(304.199921 0)"/>
    </g>
    <!-- formed -->
    <g style="fill: #8a9aa0" transform="translate(347.201475 171.665) scale(0.11 -0.11)">
     <defs>
      <path id="FiraSans-Light-66" d="M 1664 4448 
Q 1376 4448 1232 4313 
Q 1088 4179 1088 3885 
L 1088 3347 
L 1971 3347 
L 1920 3046 
L 1088 3046 
L 1088 0 
L 717 0 
L 717 3046 
L 134 3046 
L 134 3347 
L 717 3347 
L 717 3898 
Q 717 4294 963 4524 
Q 1210 4755 1645 4755 
Q 2035 4755 2426 4576 
L 2298 4301 
Q 1965 4448 1664 4448 
z
" transform="scale(0.015625)"/>
      <path id="FiraSans-Light-6d" d="M 3942 3418 
Q 4346 3418 4579 3142 
Q 4813 2867 4813 2394 
L 4813 0 
L 4442 0 
L 4442 2342 
Q 4442 2739 4291 2928 
Q 4141 3117 3872 3117 
Q 3590 3117 3366 2937 
Q 3142 2758 2931 2426 
L 2931 0 
L 2560 0 
L 2560 2342 
Q 2560 2739 2409 2928 
Q 2259 3117 1990 3117 
Q 1702 3117 1478 2937 
Q 1254 2758 1050 2426 
L 1050 0 
L 678 0 
L 678 3347 
L 998 3347 
L 1030 2778 
Q 1222 3078 1484 3248 
Q 1747 3418 2061 3418 
Q 2381 3418 2598 3242 
Q 2816 3066 2893 2752 
Q 3091 3066 3356 3242 
Q 3622 3418 3942 3418 
z
" transform="scale(0.015625)"/>
      <path id="FiraSans-Light-64" d="M 3066 4710 
L 3066 0 
L 2746 0 
L 2701 512 
Q 2355 -70 1696 -70 
Q 1114 -70 778 394 
Q 442 858 442 1658 
Q 442 2176 598 2573 
Q 755 2970 1052 3194 
Q 1350 3418 1754 3418 
Q 2323 3418 2694 2963 
L 2694 4755 
L 3066 4710 
z
M 1754 237 
Q 2074 237 2294 390 
Q 2515 544 2694 858 
L 2694 2605 
Q 2336 3110 1818 3110 
Q 1363 3110 1097 2732 
Q 832 2355 838 1664 
Q 838 973 1081 605 
Q 1325 237 1754 237 
z
" transform="scale(0.015625)"/>
     </defs>
     <use xlink:href="#FiraSans-Light-66"/>
     <use xlink:href="#FiraSans-Light-6f" transform="translate(32.099991 0)"/>
     <use xlink:href="#FiraSans-Light-72" transform="translate(89.199982 0)"/>
     <use xlink:href="#FiraSans-Light-6d" transform="translate(126.499969 0)"/>
     <use xlink:href="#FiraSans-Light-65" transform="translate(211.799957 0)"/>
     <use xlink:href="#FiraSans-Light-64" transform="translate(265.399948 0)"/>
    </g>
   </g>
  </g>
 </g>
 <defs>
  <clipPath id="pcdc1343bb9">
   <rect x="16.99" y="1.44" width="368.28" height="199.584"/>
  </clipPath>
 </defs>
</svg>
