<?xml version="1.0" encoding="utf-8" standalone="no"?>
<!DOCTYPE svg PUBLIC "-//W3C//DTD SVG 1.1//EN"
  "http://www.w3.org/Graphics/SVG/1.1/DTD/svg11.dtd">
<svg xmlns:xlink="http://www.w3.org/1999/xlink" width="592.846773pt" height="162pt" viewBox="0 0 592.846773 162" xmlns="http://www.w3.org/2000/svg" version="1.1">
 <metadata>
  <rdf:RDF xmlns:dc="http://purl.org/dc/elements/1.1/" xmlns:cc="http://creativecommons.org/ns#" xmlns:rdf="http://www.w3.org/1999/02/22-rdf-syntax-ns#">
   <cc:Work>
    <dc:type rdf:resource="http://purl.org/dc/dcmitype/StillImage"/>
    <dc:date>2026-07-17T19:34:52.884792</dc:date>
    <dc:format>image/svg+xml</dc:format>
    <dc:creator>
     <cc:Agent>
      <dc:title>Matplotlib v3.10.8, https://matplotlib.org/</dc:title>
     </cc:Agent>
    </dc:creator>
   </cc:Work>
  </rdf:RDF>
 </metadata>
 <defs>
  <style type="text/css">*{stroke-linejoin: round; stroke-linecap: butt}</style>
 </defs>
 <g id="figure_1">
  <g id="patch_1">
   <path d="M 0 162 
L 592.846773 162 
L 592.846773 0 
L 0 0 
L 0 162 
z
" style="fill: none"/>
  </g>
  <g id="axes_1">
   <g id="patch_2">
    <path d="M 142.160619 160.56 
L 582.800619 160.56 
L 582.800619 1.44 
L 142.160619 1.44 
L 142.160619 160.56 
z
" style="fill: none"/>
   </g>
   <g id="matplotlib.axis_1"/>
   <g id="matplotlib.axis_2"/>
   <g id="line2d_1">
    <path d="M 150.634465 38.16 
L 574.326773 38.16 
" clip-path="url(#p6423cb008c)" style="fill: none; stroke: #33474b"/>
   </g>
   <g id="LineCollection_1">
    <path d="M 150.634465 96.912 
L 150.634465 72.432 
" clip-path="url(#p6423cb008c)" style="fill: none; stroke: #8a9aa0; stroke-width: 1.8"/>
    <path d="M 193.003696 96.912 
L 193.003696 72.432 
" clip-path="url(#p6423cb008c)" style="fill: none; stroke: #8a9aa0; stroke-width: 1.8"/>
    <path d="M 235.372927 96.912 
L 235.372927 72.432 
" clip-path="url(#p6423cb008c)" style="fill: none; stroke: #8a9aa0; stroke-width: 1.8"/>
    <path d="M 277.742157 96.912 
L 277.742157 72.432 
" clip-path="url(#p6423cb008c)" style="fill: none; stroke: #8a9aa0; stroke-width: 1.8"/>
    <path d="M 320.111388 96.912 
L 320.111388 72.432 
" clip-path="url(#p6423cb008c)" style="fill: none; stroke: #8a9aa0; stroke-width: 1.8"/>
    <path d="M 362.480619 96.912 
L 362.480619 72.432 
" clip-path="url(#p6423cb008c)" style="fill: none; stroke: #8a9aa0; stroke-width: 1.8"/>
    <path d="M 404.84985 96.912 
L 404.84985 72.432 
" clip-path="url(#p6423cb008c)" style="fill: none; stroke: #8a9aa0; stroke-width: 1.8"/>
    <path d="M 447.219081 96.912 
L 447.219081 72.432 
" clip-path="url(#p6423cb008c)" style="fill: none; stroke: #8a9aa0; stroke-width: 1.8"/>
    <path d="M 489.588311 96.912 
L 489.588311 72.432 
" clip-path="url(#p6423cb008c)" style="fill: none; stroke: #8a9aa0; stroke-width: 1.8"/>
    <path d="M 531.957542 96.912 
L 531.957542 72.432 
" clip-path="url(#p6423cb008c)" style="fill: none; stroke: #8a9aa0; stroke-width: 1.8"/>
    <path d="M 574.326773 96.912 
L 574.326773 72.432 
" clip-path="url(#p6423cb008c)" style="fill: none; stroke: #8a9aa0; stroke-width: 1.8"/>
   </g>
   <g id="LineCollection_2">
    <path d="M 150.634465 148.32 
L 150.634465 123.84 
" clip-path="url(#p6423cb008c)" style="fill: none; stroke: #23373b; stroke-width: 1.8"/>
    <path d="M 219.120596 148.32 
L 219.120596 123.84 
" clip-path="url(#p6423cb008c)" style="fill: none; stroke: #23373b; stroke-width: 1.8"/>
    <path d="M 275.827286 148.32 
L 275.827286 123.84 
" clip-path="url(#p6423cb008c)" style="fill: none; stroke: #23373b; stroke-width: 1.8"/>
    <path d="M 319.859429 148.32 
L 319.859429 123.84 
" clip-path="url(#p6423cb008c)" style="fill: none; stroke: #23373b; stroke-width: 1.8"/>
    <path d="M 349.809263 148.32 
L 349.809263 123.84 
" clip-path="url(#p6423cb008c)" style="fill: none; stroke: #23373b; stroke-width: 1.8"/>
    <path d="M 362.480619 148.32 
L 362.480619 123.84 
" clip-path="url(#p6423cb008c)" style="fill: none; stroke: #23373b; stroke-width: 1.8"/>
    <path d="M 375.151975 148.32 
L 375.151975 123.84 
" clip-path="url(#p6423cb008c)" style="fill: none; stroke: #23373b; stroke-width: 1.8"/>
    <path d="M 405.101809 148.32 
L 405.101809 123.84 
" clip-path="url(#p6423cb008c)" style="fill: none; stroke: #23373b; stroke-width: 1.8"/>
    <path d="M 449.133952 148.32 
L 449.133952 123.84 
" clip-path="url(#p6423cb008c)" style="fill: none; stroke: #23373b; stroke-width: 1.8"/>
    <path d="M 505.840642 148.32 
L 505.840642 123.84 
" clip-path="url(#p6423cb008c)" style="fill: none; stroke: #23373b; stroke-width: 1.8"/>
    <path d="M 574.326773 148.32 
L 574.326773 123.84 
" clip-path="url(#p6423cb008c)" style="fill: none; stroke: #23373b; stroke-width: 1.8"/>
   </g>
   <g id="line2d_2">
    <defs>
     <path id="mfce849e12a" d="M 0 4 
C 1.060812 4 2.078319 3.578535 2.828427 2.828427 
C 3.578535 2.078319 4 1.060812 4 0 
C 4 -1.060812 3.578535 -2.078319 2.828427 -2.828427 
C 2.078319 -3.578535 1.060812 -4 0 -4 
C -1.060812 -4 -2.078319 -3.578535 -2.828427 -2.828427 
C -3.578535 -2.078319 -4 -1.060812 -4 0 
C -4 1.060812 -3.578535 2.078319 -2.828427 2.828427 
C -2.078319 3.578535 -1.060812 4 0 4 
z
" style="stroke: #3b7ea1"/>
    </defs>
    <g>
     <use xlink:href="#mfce849e12a" x="150.634465" y="38.16" style="fill: #3b7ea1; stroke: #3b7ea1"/>
    </g>
   </g>
   <g id="line2d_3">
    <defs>
     <path id="m3842a0b0bc" d="M 0 4 
C 1.060812 4 2.078319 3.578535 2.828427 2.828427 
C 3.578535 2.078319 4 1.060812 4 0 
C 4 -1.060812 3.578535 -2.078319 2.828427 -2.828427 
C 2.078319 -3.578535 1.060812 -4 0 -4 
C -1.060812 -4 -2.078319 -3.578535 -2.828427 -2.828427 
C -3.578535 -2.078319 -4 -1.060812 -4 0 
C -4 1.060812 -3.578535 2.078319 -2.828427 2.828427 
C -2.078319 3.578535 -1.060812 4 0 4 
z
" style="stroke: #9c162a"/>
    </defs>
    <g>
     <use xlink:href="#m3842a0b0bc" x="574.326773" y="38.16" style="fill: #9c162a; stroke: #9c162a"/>
    </g>
   </g>
   <g id="text_1">
    <!-- $p_0$ -->
    <g style="fill: #3b7ea1" transform="translate(143.704465 22.248) scale(0.14 -0.14)">
     <defs>
      <path id="FiraSans-LightItalic-70" d="M 909 3347 
L 1229 3347 
L 1197 2893 
Q 1683 3418 2272 3418 
Q 2752 3418 3017 3091 
Q 3283 2765 3283 2150 
Q 3283 1638 3113 1129 
Q 2944 621 2557 275 
Q 2170 -70 1562 -70 
Q 1190 -70 813 64 
L 621 -1274 
L 250 -1325 
L 909 3347 
z
M 1574 243 
Q 2042 243 2342 547 
Q 2643 851 2774 1292 
Q 2906 1734 2906 2170 
Q 2906 2643 2720 2873 
Q 2534 3104 2195 3104 
Q 1894 3104 1657 2960 
Q 1421 2816 1171 2547 
L 870 378 
Q 1043 307 1203 275 
Q 1363 243 1574 243 
z
" transform="scale(0.015625)"/>
      <path id="FiraSans-Light-30" d="M 1760 4326 
Q 2419 4326 2758 3766 
Q 3098 3206 3098 2125 
Q 3098 1050 2755 490 
Q 2413 -70 1760 -70 
Q 1101 -70 761 490 
Q 422 1050 422 2131 
Q 422 3213 761 3769 
Q 1101 4326 1760 4326 
z
M 1760 4019 
Q 806 4019 806 2131 
Q 806 237 1760 237 
Q 2227 237 2467 697 
Q 2707 1158 2707 2125 
Q 2707 3091 2467 3555 
Q 2227 4019 1760 4019 
z
" transform="scale(0.015625)"/>
     </defs>
     <use xlink:href="#FiraSans-LightItalic-70" transform="translate(0 0.59375)"/>
     <use xlink:href="#FiraSans-Light-30" transform="translate(57.099991 -15.095313) scale(0.7)"/>
    </g>
   </g>
   <g id="text_2">
    <!-- $p_{\mathrm{target}}$ -->
    <g style="fill: #9c162a" transform="translate(557.246773 22.248) scale(0.14 -0.14)">
     <defs>
      <path id="FiraSans-Light-74" d="M 2202 141 
Q 1882 -70 1498 -70 
Q 1114 -70 896 157 
Q 678 384 678 813 
L 678 3046 
L 115 3046 
L 115 3347 
L 678 3347 
L 678 4147 
L 1050 4192 
L 1050 3347 
L 1914 3347 
L 1869 3046 
L 1050 3046 
L 1050 832 
Q 1050 538 1171 394 
Q 1293 250 1542 250 
Q 1798 250 2054 397 
L 2202 141 
z
" transform="scale(0.015625)"/>
      <path id="FiraSans-Light-61" d="M 2758 742 
Q 2758 480 2825 365 
Q 2893 250 3040 192 
L 2957 -70 
Q 2726 -26 2601 102 
Q 2477 230 2438 493 
Q 2093 -70 1395 -70 
Q 915 -70 636 202 
Q 358 474 358 928 
Q 358 1446 726 1728 
Q 1094 2010 1747 2010 
L 2387 2010 
L 2387 2336 
Q 2387 2739 2208 2921 
Q 2029 3104 1613 3104 
Q 1229 3104 704 2912 
L 608 3194 
Q 1171 3418 1664 3418 
Q 2758 3418 2758 2355 
L 2758 742 
z
M 1459 230 
Q 2061 230 2387 819 
L 2387 1741 
L 1805 1741 
Q 1293 1741 1024 1542 
Q 755 1344 755 947 
Q 755 602 940 416 
Q 1126 230 1459 230 
z
" transform="scale(0.015625)"/>
      <path id="FiraSans-Light-72" d="M 1978 3418 
Q 2176 3418 2310 3379 
L 2240 3027 
Q 2099 3066 1946 3066 
Q 1606 3066 1398 2819 
Q 1190 2573 1050 2048 
L 1050 0 
L 678 0 
L 678 3347 
L 998 3347 
L 1030 2598 
Q 1165 3014 1398 3216 
Q 1632 3418 1978 3418 
z
" transform="scale(0.015625)"/>
      <path id="FiraSans-Light-67" d="M 3168 3277 
Q 2861 3194 2240 3181 
Q 2810 2912 2810 2272 
Q 2810 1779 2483 1475 
Q 2157 1171 1600 1171 
Q 1350 1171 1165 1235 
Q 1043 1165 976 1065 
Q 909 966 909 851 
Q 909 506 1440 506 
L 1984 506 
Q 2477 506 2768 266 
Q 3059 26 3059 -352 
Q 3059 -813 2694 -1062 
Q 2330 -1312 1606 -1312 
Q 858 -1312 534 -1085 
Q 211 -858 211 -352 
L 557 -352 
Q 563 -595 659 -736 
Q 755 -877 979 -941 
Q 1203 -1005 1606 -1005 
Q 2170 -1005 2426 -841 
Q 2682 -678 2682 -371 
Q 2682 -102 2483 42 
Q 2285 186 1926 186 
L 1382 186 
Q 986 186 771 352 
Q 557 518 557 774 
Q 557 941 653 1088 
Q 749 1235 922 1344 
Q 634 1491 496 1721 
Q 358 1952 358 2285 
Q 358 2790 697 3104 
Q 1037 3418 1587 3418 
Q 2195 3411 2473 3462 
Q 2752 3514 3053 3635 
L 3168 3277 
z
M 1587 3130 
Q 1171 3130 956 2899 
Q 742 2669 742 2285 
Q 742 1888 969 1664 
Q 1197 1440 1587 1440 
Q 1997 1440 2214 1661 
Q 2432 1882 2432 2278 
Q 2432 2682 2217 2906 
Q 2003 3130 1587 3130 
z
" transform="scale(0.015625)"/>
      <path id="FiraSans-Light-65" d="M 3053 1798 
Q 3053 1658 3040 1530 
L 806 1530 
Q 838 877 1116 560 
Q 1395 243 1850 243 
Q 2112 243 2313 323 
Q 2515 403 2752 576 
L 2925 339 
Q 2675 134 2412 32 
Q 2150 -70 1830 -70 
Q 1165 -70 787 384 
Q 410 838 410 1645 
Q 410 2176 573 2576 
Q 736 2976 1040 3197 
Q 1344 3418 1747 3418 
Q 2387 3418 2720 2986 
Q 3053 2554 3053 1798 
z
M 2688 1914 
Q 2688 2477 2454 2793 
Q 2221 3110 1760 3110 
Q 1344 3110 1088 2790 
Q 832 2470 806 1818 
L 2688 1818 
L 2688 1914 
z
" transform="scale(0.015625)"/>
     </defs>
     <use xlink:href="#FiraSans-LightItalic-70" transform="translate(0 0.59375)"/>
     <use xlink:href="#FiraSans-Light-74" transform="translate(57.099991 -15.095313) scale(0.7)"/>
     <use xlink:href="#FiraSans-Light-61" transform="translate(80.969984 -15.095313) scale(0.7)"/>
     <use xlink:href="#FiraSans-Light-72" transform="translate(118.489978 -15.095313) scale(0.7)"/>
     <use xlink:href="#FiraSans-Light-67" transform="translate(144.599969 -15.095313) scale(0.7)"/>
     <use xlink:href="#FiraSans-Light-65" transform="translate(179.809961 -15.095313) scale(0.7)"/>
     <use xlink:href="#FiraSans-Light-74" transform="translate(217.329955 -15.095313) scale(0.7)"/>
    </g>
   </g>
   <g id="text_3">
    <!-- naive: uniform schedule -->
    <g style="fill: #8a9aa0" transform="translate(1.44 88.034305) scale(0.125 -0.125)">
     <defs>
      <path id="FiraSans-Light-6e" d="M 2157 3418 
Q 2611 3418 2851 3149 
Q 3091 2880 3091 2394 
L 3091 0 
L 2720 0 
L 2720 2342 
Q 2720 2746 2560 2931 
Q 2400 3117 2086 3117 
Q 1766 3117 1520 2941 
Q 1274 2765 1050 2426 
L 1050 0 
L 678 0 
L 678 3347 
L 998 3347 
L 1037 2778 
Q 1242 3078 1523 3248 
Q 1805 3418 2157 3418 
z
" transform="scale(0.015625)"/>
      <path id="FiraSans-Light-69" d="M 1050 3347 
L 1050 0 
L 678 0 
L 678 3347 
L 1050 3347 
z
M 858 4819 
Q 986 4819 1062 4742 
Q 1139 4666 1139 4550 
Q 1139 4435 1062 4358 
Q 986 4282 858 4282 
Q 736 4282 659 4358 
Q 583 4435 583 4550 
Q 583 4666 659 4742 
Q 736 4819 858 4819 
z
" transform="scale(0.015625)"/>
      <path id="FiraSans-Light-76" d="M 2912 3347 
L 1754 0 
L 1293 0 
L 96 3347 
L 506 3347 
L 1523 326 
L 2515 3347 
L 2912 3347 
z
" transform="scale(0.015625)"/>
      <path id="FiraSans-Light-3a" d="M 659 538 
Q 794 538 880 451 
Q 966 365 966 237 
Q 966 102 880 16 
Q 794 -70 659 -70 
Q 531 -70 441 19 
Q 352 109 352 237 
Q 352 365 441 451 
Q 531 538 659 538 
z
M 659 3034 
Q 794 3034 880 2947 
Q 966 2861 966 2733 
Q 966 2598 880 2512 
Q 794 2426 659 2426 
Q 531 2426 441 2515 
Q 352 2605 352 2733 
Q 352 2861 441 2947 
Q 531 3034 659 3034 
z
" transform="scale(0.015625)"/>
      <path id="FiraSans-Light-20" transform="scale(0.015625)"/>
      <path id="FiraSans-Light-75" d="M 3027 0 
L 2707 0 
L 2688 595 
Q 2291 -70 1594 -70 
Q 1139 -70 892 195 
Q 646 461 646 954 
L 646 3347 
L 1018 3347 
L 1018 992 
Q 1018 602 1181 419 
Q 1344 237 1677 237 
Q 2259 237 2656 922 
L 2656 3347 
L 3027 3347 
L 3027 0 
z
" transform="scale(0.015625)"/>
      <path id="FiraSans-Light-66" d="M 1664 4448 
Q 1376 4448 1232 4313 
Q 1088 4179 1088 3885 
L 1088 3347 
L 1971 3347 
L 1920 3046 
L 1088 3046 
L 1088 0 
L 717 0 
L 717 3046 
L 134 3046 
L 134 3347 
L 717 3347 
L 717 3898 
Q 717 4294 963 4524 
Q 1210 4755 1645 4755 
Q 2035 4755 2426 4576 
L 2298 4301 
Q 1965 4448 1664 4448 
z
" transform="scale(0.015625)"/>
      <path id="FiraSans-Light-6f" d="M 1830 3418 
Q 2496 3418 2870 2960 
Q 3245 2502 3245 1683 
Q 3245 870 2864 400 
Q 2483 -70 1824 -70 
Q 1158 -70 784 394 
Q 410 858 410 1670 
Q 410 2202 582 2598 
Q 755 2995 1075 3206 
Q 1395 3418 1830 3418 
z
M 1830 3104 
Q 1344 3104 1075 2739 
Q 806 2374 806 1670 
Q 806 973 1072 608 
Q 1338 243 1824 243 
Q 2310 243 2582 608 
Q 2854 973 2854 1683 
Q 2854 2381 2588 2742 
Q 2323 3104 1830 3104 
z
" transform="scale(0.015625)"/>
      <path id="FiraSans-Light-6d" d="M 3942 3418 
Q 4346 3418 4579 3142 
Q 4813 2867 4813 2394 
L 4813 0 
L 4442 0 
L 4442 2342 
Q 4442 2739 4291 2928 
Q 4141 3117 3872 3117 
Q 3590 3117 3366 2937 
Q 3142 2758 2931 2426 
L 2931 0 
L 2560 0 
L 2560 2342 
Q 2560 2739 2409 2928 
Q 2259 3117 1990 3117 
Q 1702 3117 1478 2937 
Q 1254 2758 1050 2426 
L 1050 0 
L 678 0 
L 678 3347 
L 998 3347 
L 1030 2778 
Q 1222 3078 1484 3248 
Q 1747 3418 2061 3418 
Q 2381 3418 2598 3242 
Q 2816 3066 2893 2752 
Q 3091 3066 3356 3242 
Q 3622 3418 3942 3418 
z
" transform="scale(0.015625)"/>
      <path id="FiraSans-Light-73" d="M 1498 3418 
Q 1811 3418 2067 3325 
Q 2323 3232 2566 3046 
L 2394 2803 
Q 2163 2963 1958 3036 
Q 1754 3110 1510 3110 
Q 1178 3110 973 2956 
Q 768 2803 768 2547 
Q 768 2304 944 2169 
Q 1120 2035 1581 1914 
Q 2150 1766 2403 1542 
Q 2656 1318 2656 902 
Q 2656 454 2310 192 
Q 1965 -70 1446 -70 
Q 1062 -70 774 42 
Q 486 154 250 358 
L 454 595 
Q 678 416 912 329 
Q 1146 243 1440 243 
Q 1811 243 2038 412 
Q 2266 582 2266 883 
Q 2266 1088 2189 1216 
Q 2112 1344 1926 1437 
Q 1741 1530 1382 1626 
Q 851 1766 617 1977 
Q 384 2189 384 2541 
Q 384 2790 531 2992 
Q 678 3194 931 3306 
Q 1184 3418 1498 3418 
z
" transform="scale(0.015625)"/>
      <path id="FiraSans-Light-63" d="M 1824 3418 
Q 2112 3418 2336 3338 
Q 2560 3258 2771 3078 
L 2586 2835 
Q 2419 2970 2243 3034 
Q 2067 3098 1843 3098 
Q 1370 3098 1088 2730 
Q 806 2362 806 1658 
Q 806 960 1084 608 
Q 1363 256 1837 256 
Q 2061 256 2243 326 
Q 2426 397 2611 538 
L 2790 288 
Q 2368 -70 1830 -70 
Q 1402 -70 1082 134 
Q 762 339 586 726 
Q 410 1114 410 1651 
Q 410 2182 586 2582 
Q 762 2982 1082 3200 
Q 1402 3418 1824 3418 
z
" transform="scale(0.015625)"/>
      <path id="FiraSans-Light-68" d="M 2157 3418 
Q 2605 3418 2848 3146 
Q 3091 2874 3091 2394 
L 3091 0 
L 2720 0 
L 2720 2342 
Q 2720 3117 2086 3117 
Q 1766 3117 1520 2941 
Q 1274 2765 1050 2426 
L 1050 0 
L 678 0 
L 678 4710 
L 1050 4755 
L 1050 2790 
Q 1498 3418 2157 3418 
z
" transform="scale(0.015625)"/>
      <path id="FiraSans-Light-64" d="M 3066 4710 
L 3066 0 
L 2746 0 
L 2701 512 
Q 2355 -70 1696 -70 
Q 1114 -70 778 394 
Q 442 858 442 1658 
Q 442 2176 598 2573 
Q 755 2970 1052 3194 
Q 1350 3418 1754 3418 
Q 2323 3418 2694 2963 
L 2694 4755 
L 3066 4710 
z
M 1754 237 
Q 2074 237 2294 390 
Q 2515 544 2694 858 
L 2694 2605 
Q 2336 3110 1818 3110 
Q 1363 3110 1097 2732 
Q 832 2355 838 1664 
Q 838 973 1081 605 
Q 1325 237 1754 237 
z
" transform="scale(0.015625)"/>
      <path id="FiraSans-Light-6c" d="M 1235 -70 
Q 960 -70 803 90 
Q 646 250 646 563 
L 646 4710 
L 1018 4755 
L 1018 576 
Q 1018 250 1286 250 
Q 1421 250 1517 294 
L 1619 19 
Q 1440 -70 1235 -70 
z
" transform="scale(0.015625)"/>
     </defs>
     <use xlink:href="#FiraSans-Light-6e"/>
     <use xlink:href="#FiraSans-Light-61" transform="translate(58.399994 0)"/>
     <use xlink:href="#FiraSans-Light-69" transform="translate(111.999985 0)"/>
     <use xlink:href="#FiraSans-Light-76" transform="translate(138.999969 0)"/>
     <use xlink:href="#FiraSans-Light-65" transform="translate(185.999954 0)"/>
     <use xlink:href="#FiraSans-Light-3a" transform="translate(239.599945 0)"/>
     <use xlink:href="#FiraSans-Light-20" transform="translate(260.299942 0)"/>
     <use xlink:href="#FiraSans-Light-75" transform="translate(288.199936 0)"/>
     <use xlink:href="#FiraSans-Light-6e" transform="translate(346.09993 0)"/>
     <use xlink:href="#FiraSans-Light-69" transform="translate(404.499924 0)"/>
     <use xlink:href="#FiraSans-Light-66" transform="translate(431.499908 0)"/>
     <use xlink:href="#FiraSans-Light-6f" transform="translate(463.599899 0)"/>
     <use xlink:href="#FiraSans-Light-72" transform="translate(520.69989 0)"/>
     <use xlink:href="#FiraSans-Light-6d" transform="translate(557.999878 0)"/>
     <use xlink:href="#FiraSans-Light-20" transform="translate(643.299866 0)"/>
     <use xlink:href="#FiraSans-Light-73" transform="translate(671.19986 0)"/>
     <use xlink:href="#FiraSans-Light-63" transform="translate(717.599854 0)"/>
     <use xlink:href="#FiraSans-Light-68" transform="translate(764.499847 0)"/>
     <use xlink:href="#FiraSans-Light-65" transform="translate(822.899841 0)"/>
     <use xlink:href="#FiraSans-Light-64" transform="translate(876.499832 0)"/>
     <use xlink:href="#FiraSans-Light-75" transform="translate(934.999817 0)"/>
     <use xlink:href="#FiraSans-Light-6c" transform="translate(992.899811 0)"/>
     <use xlink:href="#FiraSans-Light-65" transform="translate(1021.299805 0)"/>
    </g>
   </g>
   <g id="text_4">
    <!-- optimal:  ? -->
    <g style="fill: #23373b" transform="translate(77.705625 139.504805) scale(0.125 -0.125)">
     <defs>
      <path id="FiraSans-Light-70" d="M 2061 3418 
Q 2669 3418 2973 2966 
Q 3277 2515 3277 1690 
Q 3277 883 2947 406 
Q 2618 -70 2003 -70 
Q 1702 -70 1459 54 
Q 1216 179 1050 390 
L 1050 -1261 
L 678 -1312 
L 678 3347 
L 998 3347 
L 1030 2861 
Q 1216 3123 1481 3270 
Q 1747 3418 2061 3418 
z
M 1933 243 
Q 2394 243 2637 608 
Q 2880 973 2880 1690 
Q 2880 3110 1990 3110 
Q 1690 3110 1469 2956 
Q 1248 2803 1050 2534 
L 1050 755 
Q 1382 243 1933 243 
z
" transform="scale(0.015625)"/>
      <path id="FiraSans-Light-3f" d="M 1498 4454 
Q 1843 4454 2092 4326 
Q 2342 4198 2473 3987 
Q 2605 3776 2605 3520 
Q 2605 3290 2521 3123 
Q 2438 2957 2320 2848 
Q 2202 2739 2003 2605 
Q 1811 2470 1699 2368 
Q 1587 2266 1510 2112 
Q 1434 1958 1434 1747 
L 1434 1395 
L 1069 1395 
L 1069 1773 
Q 1069 2042 1158 2230 
Q 1248 2419 1376 2537 
Q 1504 2656 1709 2797 
Q 1965 2970 2089 3117 
Q 2214 3264 2214 3501 
Q 2214 3795 2016 3964 
Q 1818 4134 1478 4134 
Q 1190 4134 963 4022 
Q 736 3910 518 3661 
L 262 3866 
Q 525 4166 822 4310 
Q 1120 4454 1498 4454 
z
M 1267 538 
Q 1402 538 1488 451 
Q 1574 365 1574 237 
Q 1574 109 1488 19 
Q 1402 -70 1267 -70 
Q 1133 -70 1046 19 
Q 960 109 960 237 
Q 960 365 1046 451 
Q 1133 538 1267 538 
z
" transform="scale(0.015625)"/>
     </defs>
     <use xlink:href="#FiraSans-Light-6f"/>
     <use xlink:href="#FiraSans-Light-70" transform="translate(57.099991 0)"/>
     <use xlink:href="#FiraSans-Light-74" transform="translate(115.199982 0)"/>
     <use xlink:href="#FiraSans-Light-69" transform="translate(149.299973 0)"/>
     <use xlink:href="#FiraSans-Light-6d" transform="translate(176.299957 0)"/>
     <use xlink:href="#FiraSans-Light-61" transform="translate(261.599945 0)"/>
     <use xlink:href="#FiraSans-Light-6c" transform="translate(315.199936 0)"/>
     <use xlink:href="#FiraSans-Light-3a" transform="translate(343.59993 0)"/>
     <use xlink:href="#FiraSans-Light-20" transform="translate(364.299927 0)"/>
     <use xlink:href="#FiraSans-Light-20" transform="translate(392.199921 0)"/>
     <use xlink:href="#FiraSans-Light-3f" transform="translate(420.099915 0)"/>
    </g>
   </g>
  </g>
 </g>
 <defs>
  <clipPath id="p6423cb008c">
   <rect x="142.160619" y="1.44" width="440.64" height="159.12"/>
  </clipPath>
 </defs>
</svg>
