<?xml version="1.0" encoding="utf-8" standalone="no"?>
<!DOCTYPE svg PUBLIC "-//W3C//DTD SVG 1.1//EN"
  "http://www.w3.org/Graphics/SVG/1.1/DTD/svg11.dtd">
<svg xmlns:xlink="http://www.w3.org/1999/xlink" width="727.074pt" height="307.005703pt" viewBox="0 0 727.074 307.005703" xmlns="http://www.w3.org/2000/svg" version="1.1">
 <metadata>
  <rdf:RDF xmlns:dc="http://purl.org/dc/elements/1.1/" xmlns:cc="http://creativecommons.org/ns#" xmlns:rdf="http://www.w3.org/1999/02/22-rdf-syntax-ns#">
   <cc:Work>
    <dc:type rdf:resource="http://purl.org/dc/dcmitype/StillImage"/>
    <dc:date>2026-07-20T16:02:37.150600</dc:date>
    <dc:format>image/svg+xml</dc:format>
    <dc:creator>
     <cc:Agent>
      <dc:title>Matplotlib v3.10.8, https://matplotlib.org/</dc:title>
     </cc:Agent>
    </dc:creator>
   </cc:Work>
  </rdf:RDF>
 </metadata>
 <defs>
  <style type="text/css">*{stroke-linejoin: round; stroke-linecap: butt}</style>
 </defs>
 <g id="figure_1">
  <g id="patch_1">
   <path d="M 0 307.005703 
L 727.074 307.005703 
L 727.074 0 
L 0 0 
L 0 307.005703 
z
" style="fill: none"/>
  </g>
  <g id="axes_1">
   <g id="patch_2">
    <path d="M 42.57 271.86 
L 375.771951 271.86 
L 375.771951 19.14 
L 42.57 19.14 
L 42.57 271.86 
z
" style="fill: none"/>
   </g>
   <g id="matplotlib.axis_1">
    <g id="xtick_1">
     <g id="line2d_1">
      <defs>
       <path id="m93afa1ffe5" d="M 0 0 
L 0 2 
" style="stroke: #33474b; stroke-width: 0.6"/>
      </defs>
      <g>
       <use xlink:href="#m93afa1ffe5" x="67.443598" y="271.86" style="fill: #33474b; stroke: #33474b; stroke-width: 0.6"/>
      </g>
     </g>
     <g id="text_1">
      <!-- $\mathdefault{4\times10^{0}}$ -->
      <g style="fill: #33474b" transform="translate(54.428598 284.318203) scale(0.095 -0.095)">
       <defs>
        <path id="FiraSans-Light-34" d="M 3091 1427 
L 3091 1120 
L 2515 1120 
L 2515 0 
L 2150 0 
L 2150 1120 
L 288 1120 
L 288 1395 
L 1587 4326 
L 1901 4198 
L 685 1427 
L 2150 1427 
L 2195 2675 
L 2515 2675 
L 2515 1427 
L 3091 1427 
z
" transform="scale(0.015625)"/>
        <path id="FiraSans-Light-d7" d="M 2374 3014 
L 2618 2778 
L 1818 1971 
L 2618 1152 
L 2374 922 
L 1587 1741 
L 781 922 
L 544 1152 
L 1331 1958 
L 544 2778 
L 781 3014 
L 1568 2189 
L 2374 3014 
z
" transform="scale(0.015625)"/>
        <path id="FiraSans-Light-31" d="M 1869 4256 
L 1869 0 
L 1498 0 
L 1498 3846 
L 448 3194 
L 275 3469 
L 1549 4256 
L 1869 4256 
z
" transform="scale(0.015625)"/>
        <path id="FiraSans-Light-30" d="M 1760 4326 
Q 2419 4326 2758 3766 
Q 3098 3206 3098 2125 
Q 3098 1050 2755 490 
Q 2413 -70 1760 -70 
Q 1101 -70 761 490 
Q 422 1050 422 2131 
Q 422 3213 761 3769 
Q 1101 4326 1760 4326 
z
M 1760 4019 
Q 806 4019 806 2131 
Q 806 237 1760 237 
Q 2227 237 2467 697 
Q 2707 1158 2707 2125 
Q 2707 3091 2467 3555 
Q 2227 4019 1760 4019 
z
" transform="scale(0.015625)"/>
       </defs>
       <use xlink:href="#FiraSans-Light-34" transform="translate(0 0.076563)"/>
       <use xlink:href="#FiraSans-Light-d7" transform="translate(68.779987 0.076563)"/>
       <use xlink:href="#FiraSans-Light-31" transform="translate(135.059973 0.076563)"/>
       <use xlink:href="#FiraSans-Light-30" transform="translate(176.359961 0.076563)"/>
       <use xlink:href="#FiraSans-Light-30" transform="translate(232.275141 36.684375) scale(0.7)"/>
      </g>
     </g>
    </g>
    <g id="xtick_2">
     <g id="line2d_2">
      <g>
       <use xlink:href="#m93afa1ffe5" x="172.240979" y="271.86" style="fill: #33474b; stroke: #33474b; stroke-width: 0.6"/>
      </g>
     </g>
     <g id="text_2">
      <!-- $\mathdefault{5\times10^{0}}$ -->
      <g style="fill: #33474b" transform="translate(159.368479 284.318203) scale(0.095 -0.095)">
       <defs>
        <path id="FiraSans-Light-35" d="M 2592 3949 
L 864 3949 
L 864 2496 
Q 1216 2694 1594 2694 
Q 2144 2694 2467 2339 
Q 2790 1984 2790 1370 
Q 2790 954 2620 624 
Q 2451 294 2140 112 
Q 1830 -70 1421 -70 
Q 710 -70 218 442 
L 448 666 
Q 653 448 883 345 
Q 1114 243 1421 243 
Q 1875 243 2137 547 
Q 2400 851 2400 1376 
Q 2400 1888 2160 2141 
Q 1920 2394 1510 2394 
Q 1306 2394 1149 2346 
Q 992 2298 800 2189 
L 506 2189 
L 506 4256 
L 2650 4256 
L 2592 3949 
z
" transform="scale(0.015625)"/>
       </defs>
       <use xlink:href="#FiraSans-Light-35" transform="translate(0 0.076563)"/>
       <use xlink:href="#FiraSans-Light-d7" transform="translate(65.679996 0.076563)"/>
       <use xlink:href="#FiraSans-Light-31" transform="translate(131.959982 0.076563)"/>
       <use xlink:href="#FiraSans-Light-30" transform="translate(173.25997 0.076563)"/>
       <use xlink:href="#FiraSans-Light-30" transform="translate(229.17515 36.684375) scale(0.7)"/>
      </g>
     </g>
    </g>
    <g id="xtick_3">
     <g id="line2d_3">
      <g>
       <use xlink:href="#m93afa1ffe5" x="257.866674" y="271.86" style="fill: #33474b; stroke: #33474b; stroke-width: 0.6"/>
      </g>
     </g>
     <g id="text_3">
      <!-- $\mathdefault{6\times10^{0}}$ -->
      <g style="fill: #33474b" transform="translate(244.851674 284.318203) scale(0.095 -0.095)">
       <defs>
        <path id="FiraSans-Light-36" d="M 1894 2771 
Q 2387 2771 2707 2428 
Q 3027 2086 3027 1434 
Q 3027 979 2864 636 
Q 2701 294 2416 112 
Q 2131 -70 1773 -70 
Q 1069 -70 745 470 
Q 422 1011 422 1920 
Q 422 2656 608 3200 
Q 794 3744 1139 4035 
Q 1485 4326 1958 4326 
Q 2387 4326 2752 4077 
L 2592 3821 
Q 2285 4019 1952 4019 
Q 1434 4019 1126 3500 
Q 819 2982 800 2144 
Q 1229 2771 1894 2771 
z
M 1773 237 
Q 2195 237 2422 560 
Q 2650 883 2650 1421 
Q 2650 1952 2429 2208 
Q 2208 2464 1843 2464 
Q 1523 2464 1257 2275 
Q 992 2086 800 1760 
Q 819 1018 1049 627 
Q 1280 237 1773 237 
z
" transform="scale(0.015625)"/>
       </defs>
       <use xlink:href="#FiraSans-Light-36" transform="translate(0 0.076563)"/>
       <use xlink:href="#FiraSans-Light-d7" transform="translate(69.379993 0.076563)"/>
       <use xlink:href="#FiraSans-Light-31" transform="translate(135.659979 0.076563)"/>
       <use xlink:href="#FiraSans-Light-30" transform="translate(176.959967 0.076563)"/>
       <use xlink:href="#FiraSans-Light-30" transform="translate(232.875147 36.684375) scale(0.7)"/>
      </g>
     </g>
    </g>
    <g id="xtick_4">
     <g id="line2d_4">
      <g>
       <use xlink:href="#m93afa1ffe5" x="330.262167" y="271.86" style="fill: #33474b; stroke: #33474b; stroke-width: 0.6"/>
      </g>
     </g>
     <g id="text_4">
      <!-- $\mathdefault{7\times10^{0}}$ -->
      <g style="fill: #33474b" transform="translate(317.627167 284.318203) scale(0.095 -0.095)">
       <defs>
        <path id="FiraSans-Light-37" d="M 2566 4256 
L 2566 3968 
L 890 -51 
L 544 64 
L 2182 3942 
L 192 3942 
L 192 4256 
L 2566 4256 
z
" transform="scale(0.015625)"/>
       </defs>
       <use xlink:href="#FiraSans-Light-37" transform="translate(0 0.076563)"/>
       <use xlink:href="#FiraSans-Light-d7" transform="translate(60.679996 0.076563)"/>
       <use xlink:href="#FiraSans-Light-31" transform="translate(126.959982 0.076563)"/>
       <use xlink:href="#FiraSans-Light-30" transform="translate(168.25997 0.076563)"/>
       <use xlink:href="#FiraSans-Light-30" transform="translate(224.17515 36.684375) scale(0.7)"/>
      </g>
     </g>
    </g>
    <g id="text_5">
     <!-- $\xi/a$ -->
     <g style="fill: #33474b" transform="translate(197.845976 302.371172) scale(0.15 -0.15)">
      <defs>
       <path id="FiraSans-LightItalic-3be" d="M 1267 -1069 
Q 1645 -890 1827 -710 
Q 2010 -531 2010 -314 
Q 2010 -192 1949 -109 
Q 1888 -26 1741 57 
Q 1594 141 1286 269 
Q 781 480 557 739 
Q 333 998 333 1478 
Q 333 1990 630 2377 
Q 928 2765 1517 2848 
Q 1222 2925 1052 3129 
Q 883 3334 883 3635 
Q 883 3962 1040 4218 
Q 1197 4474 1481 4618 
Q 1766 4762 2131 4762 
Q 2720 4762 3123 4410 
L 2918 4192 
Q 2739 4326 2553 4390 
Q 2368 4454 2144 4454 
Q 1696 4454 1478 4217 
Q 1261 3981 1261 3642 
Q 1261 3334 1456 3158 
Q 1651 2982 1997 2982 
L 2368 2982 
L 2272 2669 
L 1901 2669 
Q 1478 2669 1216 2489 
Q 954 2310 838 2044 
Q 723 1779 723 1491 
Q 723 1229 803 1062 
Q 883 896 1049 784 
Q 1216 672 1510 557 
Q 2010 352 2208 176 
Q 2406 0 2406 -294 
Q 2406 -589 2185 -835 
Q 1965 -1082 1395 -1325 
L 1267 -1069 
z
" transform="scale(0.015625)"/>
       <path id="FiraSans-Light-2f" d="M 2246 5139 
L 2566 5056 
L 1082 -640 
L 762 -557 
L 2246 5139 
z
" transform="scale(0.015625)"/>
       <path id="FiraSans-LightItalic-61" d="M 2093 3418 
Q 2406 3418 2656 3347 
Q 2906 3277 3168 3142 
L 2816 730 
Q 2803 659 2803 538 
Q 2803 403 2851 323 
Q 2899 243 3014 192 
L 2906 -70 
Q 2682 -19 2566 118 
Q 2451 256 2458 538 
Q 2266 256 2000 93 
Q 1734 -70 1427 -70 
Q 928 -70 649 278 
Q 371 627 371 1229 
Q 371 1728 550 2233 
Q 730 2739 1117 3078 
Q 1504 3418 2093 3418 
z
M 2106 3117 
Q 1651 3117 1347 2822 
Q 1043 2528 905 2093 
Q 768 1658 768 1229 
Q 768 742 953 492 
Q 1139 243 1485 243 
Q 1786 243 2026 422 
Q 2266 602 2483 947 
L 2771 2963 
Q 2464 3117 2106 3117 
z
" transform="scale(0.015625)"/>
      </defs>
      <use xlink:href="#FiraSans-LightItalic-3be" transform="translate(0 0.703125)"/>
      <use xlink:href="#FiraSans-Light-2f" transform="translate(42.099991 0.703125)"/>
      <use xlink:href="#FiraSans-LightItalic-61" transform="translate(94.099976 0.703125)"/>
     </g>
    </g>
   </g>
   <g id="matplotlib.axis_2">
    <g id="ytick_1">
     <g id="line2d_5">
      <defs>
       <path id="m9a68b55452" d="M 0 0 
L -3 0 
" style="stroke: #33474b; stroke-width: 0.8"/>
      </defs>
      <g>
       <use xlink:href="#m9a68b55452" x="42.57" y="180.134826" style="fill: #33474b; stroke: #33474b; stroke-width: 0.8"/>
      </g>
     </g>
     <g id="text_6">
      <!-- $\mathdefault{10^{1}}$ -->
      <g style="fill: #33474b" transform="translate(20.59 184.592639) scale(0.12 -0.12)">
       <use xlink:href="#FiraSans-Light-31" transform="translate(0 0.842188)"/>
       <use xlink:href="#FiraSans-Light-30" transform="translate(41.299988 0.842188)"/>
       <use xlink:href="#FiraSans-Light-31" transform="translate(97.215168 37.45) scale(0.7)"/>
      </g>
     </g>
    </g>
    <g id="ytick_2">
     <g id="line2d_6">
      <defs>
       <path id="ma75c171eab" d="M 0 0 
L -2 0 
" style="stroke: #33474b; stroke-width: 0.6"/>
      </defs>
      <g>
       <use xlink:href="#ma75c171eab" x="42.57" y="255.944116" style="fill: #33474b; stroke: #33474b; stroke-width: 0.6"/>
      </g>
     </g>
    </g>
    <g id="ytick_3">
     <g id="line2d_7">
      <g>
       <use xlink:href="#ma75c171eab" x="42.57" y="237.48234" style="fill: #33474b; stroke: #33474b; stroke-width: 0.6"/>
      </g>
     </g>
    </g>
    <g id="ytick_4">
     <g id="line2d_8">
      <g>
       <use xlink:href="#ma75c171eab" x="42.57" y="222.397971" style="fill: #33474b; stroke: #33474b; stroke-width: 0.6"/>
      </g>
     </g>
    </g>
    <g id="ytick_5">
     <g id="line2d_9">
      <g>
       <use xlink:href="#ma75c171eab" x="42.57" y="209.644319" style="fill: #33474b; stroke: #33474b; stroke-width: 0.6"/>
      </g>
     </g>
    </g>
    <g id="ytick_6">
     <g id="line2d_10">
      <g>
       <use xlink:href="#ma75c171eab" x="42.57" y="198.596602" style="fill: #33474b; stroke: #33474b; stroke-width: 0.6"/>
      </g>
     </g>
    </g>
    <g id="ytick_7">
     <g id="line2d_11">
      <g>
       <use xlink:href="#ma75c171eab" x="42.57" y="188.851826" style="fill: #33474b; stroke: #33474b; stroke-width: 0.6"/>
      </g>
     </g>
    </g>
    <g id="ytick_8">
     <g id="line2d_12">
      <g>
       <use xlink:href="#ma75c171eab" x="42.57" y="122.787312" style="fill: #33474b; stroke: #33474b; stroke-width: 0.6"/>
      </g>
     </g>
    </g>
    <g id="ytick_9">
     <g id="line2d_13">
      <g>
       <use xlink:href="#ma75c171eab" x="42.57" y="89.241167" style="fill: #33474b; stroke: #33474b; stroke-width: 0.6"/>
      </g>
     </g>
    </g>
    <g id="ytick_10">
     <g id="line2d_14">
      <g>
       <use xlink:href="#ma75c171eab" x="42.57" y="65.439798" style="fill: #33474b; stroke: #33474b; stroke-width: 0.6"/>
      </g>
     </g>
    </g>
    <g id="ytick_11">
     <g id="line2d_15">
      <g>
       <use xlink:href="#ma75c171eab" x="42.57" y="46.978022" style="fill: #33474b; stroke: #33474b; stroke-width: 0.6"/>
      </g>
     </g>
    </g>
    <g id="ytick_12">
     <g id="line2d_16">
      <g>
       <use xlink:href="#ma75c171eab" x="42.57" y="31.893653" style="fill: #33474b; stroke: #33474b; stroke-width: 0.6"/>
      </g>
     </g>
    </g>
    <g id="ytick_13">
     <g id="line2d_17">
      <g>
       <use xlink:href="#ma75c171eab" x="42.57" y="19.14" style="fill: #33474b; stroke: #33474b; stroke-width: 0.6"/>
      </g>
     </g>
    </g>
    <g id="text_7">
     <!-- $\tau_{\mathrm{int}}(Q^2)$  [meas. units] -->
     <g style="fill: #33474b" transform="translate(13.395469 216.225) rotate(-90) scale(0.15 -0.15)">
      <defs>
       <path id="FiraSans-LightItalic-3c4" d="M 1395 781 
Q 1382 640 1382 602 
Q 1382 448 1436 368 
Q 1491 288 1626 230 
L 1485 -51 
Q 1229 32 1120 176 
Q 1011 320 1011 570 
Q 1011 627 1024 781 
L 1338 3034 
L 826 3034 
Q 582 3034 454 3021 
Q 326 3008 192 2963 
L 141 3264 
Q 262 3309 435 3328 
Q 608 3347 883 3347 
L 2963 3347 
L 2912 3034 
L 1709 3034 
L 1395 781 
z
" transform="scale(0.015625)"/>
       <path id="FiraSans-Light-69" d="M 1050 3347 
L 1050 0 
L 678 0 
L 678 3347 
L 1050 3347 
z
M 858 4819 
Q 986 4819 1062 4742 
Q 1139 4666 1139 4550 
Q 1139 4435 1062 4358 
Q 986 4282 858 4282 
Q 736 4282 659 4358 
Q 583 4435 583 4550 
Q 583 4666 659 4742 
Q 736 4819 858 4819 
z
" transform="scale(0.015625)"/>
       <path id="FiraSans-Light-6e" d="M 2157 3418 
Q 2611 3418 2851 3149 
Q 3091 2880 3091 2394 
L 3091 0 
L 2720 0 
L 2720 2342 
Q 2720 2746 2560 2931 
Q 2400 3117 2086 3117 
Q 1766 3117 1520 2941 
Q 1274 2765 1050 2426 
L 1050 0 
L 678 0 
L 678 3347 
L 998 3347 
L 1037 2778 
Q 1242 3078 1523 3248 
Q 1805 3418 2157 3418 
z
" transform="scale(0.015625)"/>
       <path id="FiraSans-Light-74" d="M 2202 141 
Q 1882 -70 1498 -70 
Q 1114 -70 896 157 
Q 678 384 678 813 
L 678 3046 
L 115 3046 
L 115 3347 
L 678 3347 
L 678 4147 
L 1050 4192 
L 1050 3347 
L 1914 3347 
L 1869 3046 
L 1050 3046 
L 1050 832 
Q 1050 538 1171 394 
Q 1293 250 1542 250 
Q 1798 250 2054 397 
L 2202 141 
z
" transform="scale(0.015625)"/>
       <path id="FiraSans-Light-28" d="M 1728 5203 
Q 1389 4698 1184 4304 
Q 979 3910 854 3404 
Q 730 2899 730 2240 
Q 730 1581 854 1075 
Q 979 570 1184 176 
Q 1389 -218 1728 -723 
L 1491 -877 
Q 1094 -320 867 77 
Q 640 474 493 1005 
Q 346 1536 346 2240 
Q 346 2944 493 3475 
Q 640 4006 867 4403 
Q 1094 4800 1491 5357 
L 1728 5203 
z
" transform="scale(0.015625)"/>
       <path id="FiraSans-LightItalic-51" d="M 4096 2714 
Q 4096 2202 3958 1677 
Q 3821 1152 3513 733 
Q 3206 314 2726 141 
Q 3072 128 3363 19 
Q 3654 -90 3872 -288 
L 3590 -595 
Q 3290 -294 2934 -182 
Q 2579 -70 1978 -70 
Q 1274 -70 864 384 
Q 454 838 454 1677 
Q 454 2298 672 2938 
Q 890 3578 1370 4016 
Q 1850 4454 2586 4454 
Q 3290 4454 3693 4003 
Q 4096 3552 4096 2714 
z
M 858 1638 
Q 858 954 1155 608 
Q 1453 262 1984 262 
Q 2611 262 2995 656 
Q 3379 1050 3539 1622 
Q 3699 2195 3699 2765 
Q 3699 3443 3401 3785 
Q 3104 4128 2566 4128 
Q 1952 4128 1571 3734 
Q 1190 3341 1024 2771 
Q 858 2202 858 1638 
z
" transform="scale(0.015625)"/>
       <path id="FiraSans-Light-32" d="M 1440 4326 
Q 1978 4326 2294 4012 
Q 2611 3699 2611 3206 
Q 2611 2790 2438 2425 
Q 2266 2061 1898 1625 
Q 1530 1190 710 326 
L 2726 326 
L 2675 0 
L 275 0 
L 275 314 
Q 1152 1248 1533 1699 
Q 1914 2150 2070 2480 
Q 2227 2810 2227 3187 
Q 2227 3565 2006 3789 
Q 1786 4013 1421 4013 
Q 1126 4013 899 3891 
Q 672 3770 467 3526 
L 211 3718 
Q 467 4032 764 4179 
Q 1062 4326 1440 4326 
z
" transform="scale(0.015625)"/>
       <path id="FiraSans-Light-29" d="M 582 5357 
Q 979 4800 1206 4403 
Q 1434 4006 1581 3475 
Q 1728 2944 1728 2240 
Q 1728 1536 1581 1005 
Q 1434 474 1206 77 
Q 979 -320 582 -877 
L 346 -723 
Q 685 -218 889 176 
Q 1094 570 1219 1075 
Q 1344 1581 1344 2240 
Q 1344 2899 1219 3404 
Q 1094 3910 889 4304 
Q 685 4698 346 5203 
L 582 5357 
z
" transform="scale(0.015625)"/>
       <path id="FiraSans-Regular-20" transform="scale(0.015625)"/>
       <path id="FiraSans-Regular-5b" d="M 1741 5222 
L 1741 4730 
L 973 4730 
L 973 -256 
L 1741 -256 
L 1741 -742 
L 416 -742 
L 416 5222 
L 1741 5222 
z
" transform="scale(0.015625)"/>
       <path id="FiraSans-Regular-6d" d="M 3994 3450 
Q 4410 3450 4659 3171 
Q 4909 2893 4909 2419 
L 4909 0 
L 4320 0 
L 4320 2336 
Q 4320 2989 3846 2989 
Q 3597 2989 3424 2845 
Q 3251 2701 3053 2394 
L 3053 0 
L 2464 0 
L 2464 2336 
Q 2464 2989 1990 2989 
Q 1734 2989 1561 2841 
Q 1389 2694 1197 2394 
L 1197 0 
L 608 0 
L 608 3373 
L 1114 3373 
L 1165 2880 
Q 1542 3450 2138 3450 
Q 2451 3450 2672 3290 
Q 2893 3130 2989 2842 
Q 3187 3136 3427 3293 
Q 3667 3450 3994 3450 
z
" transform="scale(0.015625)"/>
       <path id="FiraSans-Regular-65" d="M 3155 1786 
Q 3155 1638 3142 1485 
L 992 1485 
Q 1030 928 1273 665 
Q 1517 403 1901 403 
Q 2144 403 2349 473 
Q 2554 544 2778 698 
L 3034 346 
Q 2496 -77 1856 -77 
Q 1152 -77 758 384 
Q 365 845 365 1651 
Q 365 2176 534 2582 
Q 704 2989 1021 3219 
Q 1338 3450 1766 3450 
Q 2438 3450 2796 3008 
Q 3155 2566 3155 1786 
z
M 2573 1958 
Q 2573 2458 2374 2720 
Q 2176 2982 1779 2982 
Q 1056 2982 992 1920 
L 2573 1920 
L 2573 1958 
z
" transform="scale(0.015625)"/>
       <path id="FiraSans-Regular-61" d="M 2880 787 
Q 2880 582 2950 483 
Q 3021 384 3162 333 
L 3027 -77 
Q 2765 -45 2605 70 
Q 2445 186 2368 429 
Q 2029 -77 1363 -77 
Q 864 -77 576 204 
Q 288 486 288 941 
Q 288 1478 675 1766 
Q 1062 2054 1773 2054 
L 2291 2054 
L 2291 2304 
Q 2291 2662 2118 2816 
Q 1946 2970 1587 2970 
Q 1216 2970 678 2790 
L 531 3219 
Q 1158 3450 1696 3450 
Q 2291 3450 2585 3158 
Q 2880 2867 2880 2330 
L 2880 787 
z
M 1498 365 
Q 2003 365 2291 890 
L 2291 1664 
L 1850 1664 
Q 915 1664 915 973 
Q 915 672 1062 518 
Q 1210 365 1498 365 
z
" transform="scale(0.015625)"/>
       <path id="FiraSans-Regular-73" d="M 1523 3450 
Q 1869 3450 2144 3354 
Q 2419 3258 2669 3066 
L 2419 2694 
Q 2189 2842 1981 2912 
Q 1773 2982 1542 2982 
Q 1254 2982 1088 2864 
Q 922 2746 922 2541 
Q 922 2336 1078 2221 
Q 1235 2106 1645 1997 
Q 2208 1856 2486 1613 
Q 2765 1370 2765 947 
Q 2765 448 2377 185 
Q 1990 -77 1434 -77 
Q 666 -77 160 365 
L 474 723 
Q 902 397 1421 397 
Q 1754 397 1949 534 
Q 2144 672 2144 909 
Q 2144 1082 2073 1187 
Q 2003 1293 1830 1373 
Q 1658 1453 1325 1542 
Q 787 1683 547 1920 
Q 307 2157 307 2522 
Q 307 2784 464 2998 
Q 621 3213 899 3331 
Q 1178 3450 1523 3450 
z
" transform="scale(0.015625)"/>
       <path id="FiraSans-Regular-2e" d="M 762 813 
Q 954 813 1082 685 
Q 1210 557 1210 371 
Q 1210 186 1082 54 
Q 954 -77 762 -77 
Q 576 -77 448 54 
Q 320 186 320 371 
Q 320 557 448 685 
Q 576 813 762 813 
z
" transform="scale(0.015625)"/>
       <path id="FiraSans-Regular-75" d="M 3117 0 
L 2611 0 
L 2566 525 
Q 2374 211 2124 67 
Q 1875 -77 1517 -77 
Q 1075 -77 825 192 
Q 576 461 576 954 
L 576 3373 
L 1165 3373 
L 1165 1018 
Q 1165 672 1286 528 
Q 1408 384 1683 384 
Q 2176 384 2528 966 
L 2528 3373 
L 3117 3373 
L 3117 0 
z
" transform="scale(0.015625)"/>
       <path id="FiraSans-Regular-6e" d="M 2195 3450 
Q 2656 3450 2915 3174 
Q 3174 2899 3174 2419 
L 3174 0 
L 2586 0 
L 2586 2336 
Q 2586 2694 2451 2841 
Q 2317 2989 2054 2989 
Q 1786 2989 1581 2835 
Q 1376 2682 1197 2394 
L 1197 0 
L 608 0 
L 608 3373 
L 1114 3373 
L 1165 2874 
Q 1344 3142 1609 3296 
Q 1875 3450 2195 3450 
z
" transform="scale(0.015625)"/>
       <path id="FiraSans-Regular-69" d="M 1197 3373 
L 1197 0 
L 608 0 
L 608 3373 
L 1197 3373 
z
M 896 4992 
Q 1082 4992 1197 4877 
Q 1312 4762 1312 4589 
Q 1312 4416 1197 4304 
Q 1082 4192 896 4192 
Q 717 4192 601 4304 
Q 486 4416 486 4589 
Q 486 4762 601 4877 
Q 717 4992 896 4992 
z
" transform="scale(0.015625)"/>
       <path id="FiraSans-Regular-74" d="M 2310 154 
Q 1978 -77 1555 -77 
Q 1126 -77 886 169 
Q 646 416 646 883 
L 646 2918 
L 58 2918 
L 58 3373 
L 646 3373 
L 646 4134 
L 1235 4205 
L 1235 3373 
L 2035 3373 
L 1971 2918 
L 1235 2918 
L 1235 909 
Q 1235 646 1328 528 
Q 1421 410 1638 410 
Q 1837 410 2086 544 
L 2310 154 
z
" transform="scale(0.015625)"/>
       <path id="FiraSans-Regular-5d" d="M 1645 5222 
L 1645 -742 
L 320 -742 
L 320 -256 
L 1088 -256 
L 1088 4730 
L 320 4730 
L 320 5222 
L 1645 5222 
z
" transform="scale(0.015625)"/>
      </defs>
      <use xlink:href="#FiraSans-LightItalic-3c4" transform="translate(0 0.076563)"/>
      <use xlink:href="#FiraSans-Light-69" transform="translate(43.399994 -15.6125) scale(0.7)"/>
      <use xlink:href="#FiraSans-Light-6e" transform="translate(62.299983 -15.6125) scale(0.7)"/>
      <use xlink:href="#FiraSans-Light-74" transform="translate(103.179979 -15.6125) scale(0.7)"/>
      <use xlink:href="#FiraSans-Light-28" transform="translate(129.664816 0.076563)"/>
      <use xlink:href="#FiraSans-LightItalic-51" transform="translate(162.06481 0.076563)"/>
      <use xlink:href="#FiraSans-Light-32" transform="translate(236.557272 36.684375) scale(0.7)"/>
      <use xlink:href="#FiraSans-Light-29" transform="translate(272.702111 0.076563)"/>
      <use xlink:href="#FiraSans-Regular-20" transform="translate(305.102105 0.076563)"/>
      <use xlink:href="#FiraSans-Regular-20" transform="translate(331.60209 0.076563)"/>
      <use xlink:href="#FiraSans-Regular-5b" transform="translate(358.102075 0.076563)"/>
      <use xlink:href="#FiraSans-Regular-6d" transform="translate(390.302072 0.076563)"/>
      <use xlink:href="#FiraSans-Regular-65" transform="translate(476.002053 0.076563)"/>
      <use xlink:href="#FiraSans-Regular-61" transform="translate(530.502038 0.076563)"/>
      <use xlink:href="#FiraSans-Regular-73" transform="translate(584.902032 0.076563)"/>
      <use xlink:href="#FiraSans-Regular-2e" transform="translate(631.602029 0.076563)"/>
      <use xlink:href="#FiraSans-Regular-20" transform="translate(655.602014 0.076563)"/>
      <use xlink:href="#FiraSans-Regular-75" transform="translate(682.101998 0.076563)"/>
      <use xlink:href="#FiraSans-Regular-6e" transform="translate(740.301995 0.076563)"/>
      <use xlink:href="#FiraSans-Regular-69" transform="translate(798.901986 0.076563)"/>
      <use xlink:href="#FiraSans-Regular-74" transform="translate(827.101983 0.076563)"/>
      <use xlink:href="#FiraSans-Regular-73" transform="translate(863.201974 0.076563)"/>
      <use xlink:href="#FiraSans-Regular-5d" transform="translate(909.901971 0.076563)"/>
     </g>
    </g>
   </g>
   <g id="line2d_18">
    <path d="M 57.715543 179.794404 
L 68.500353 175.003796 
L 79.043051 170.320735 
L 89.354269 165.740497 
L 99.443954 161.258663 
L 109.321425 156.871095 
L 118.995425 152.573909 
L 128.474169 148.363455 
L 137.765382 144.236302 
L 146.876342 140.189218 
L 155.813909 136.219155 
L 164.58456 132.323236 
L 173.194415 128.498742 
L 181.649265 124.743102 
L 189.954592 121.05388 
L 198.115592 117.428767 
L 206.137197 113.865574 
L 214.024089 110.36222 
L 221.780716 106.91673 
L 229.411314 103.527222 
L 236.919911 100.191907 
L 244.310348 96.909078 
L 251.586286 93.67711 
L 258.751218 90.49445 
L 265.808482 87.359617 
L 272.761264 84.271194 
L 279.612615 81.227827 
L 286.36545 78.228221 
L 293.022562 75.271135 
L 299.586628 72.35538 
L 306.060213 69.479816 
L 312.445777 66.643352 
L 318.745682 63.844937 
L 324.962196 61.083564 
L 331.097497 58.358266 
L 337.15368 55.668113 
L 343.13276 53.012208 
L 349.036675 50.389692 
L 354.867292 47.799735 
L 360.626408 45.241538 
" clip-path="url(#pbabed5ed5d)" style="fill: none; stroke-dasharray: 9.5,5.7; stroke-dashoffset: 0; stroke: #3b7ea1; stroke-opacity: 0.9; stroke-width: 1.9"/>
   </g>
   <g id="line2d_19">
    <path d="M 57.715543 222.870359 
L 68.500353 218.204562 
L 79.043051 213.64351 
L 89.354269 209.182602 
L 99.443954 204.817534 
L 109.321425 200.544277 
L 118.995425 196.359046 
L 128.474169 192.258288 
L 137.765382 188.238661 
L 146.876342 184.297017 
L 155.813909 180.430387 
L 164.58456 176.635969 
L 173.194415 172.911115 
L 181.649265 169.253322 
L 189.954592 165.660215 
L 198.115592 162.129549 
L 206.137197 158.659188 
L 214.024089 155.247108 
L 221.780716 151.891384 
L 229.411314 148.590184 
L 236.919911 145.341764 
L 244.310348 142.144464 
L 251.586286 138.996699 
L 258.751218 135.896958 
L 265.808482 132.843797 
L 272.761264 129.835838 
L 279.612615 126.871761 
L 286.36545 123.950304 
L 293.022562 121.070259 
L 299.586628 118.230469 
L 306.060213 115.429823 
L 312.445777 112.667258 
L 318.745682 109.941751 
L 324.962196 107.252321 
L 331.097497 104.598026 
L 337.15368 101.977959 
L 343.13276 99.39125 
L 349.036675 96.837058 
L 354.867292 94.314578 
L 360.626408 91.82303 
" clip-path="url(#pbabed5ed5d)" style="fill: none; stroke-dasharray: 9.5,5.7; stroke-dashoffset: 0; stroke: #9c162a; stroke-opacity: 0.9; stroke-width: 1.9"/>
   </g>
   <g id="line2d_20">
    <path d="M 57.715543 235.546734 
L 68.500353 231.380468 
L 79.043051 227.307732 
L 89.354269 223.324418 
L 99.443954 219.426685 
L 109.321425 215.610932 
L 118.995425 211.873781 
L 128.474169 208.21206 
L 137.765382 204.622783 
L 146.876342 201.10314 
L 155.813909 197.65048 
L 164.58456 194.262301 
L 173.194415 190.936239 
L 181.649265 187.670057 
L 189.954592 184.461637 
L 198.115592 181.308971 
L 206.137197 178.210155 
L 214.024089 175.16338 
L 221.780716 172.166927 
L 229.411314 169.219161 
L 236.919911 166.318524 
L 244.310348 163.463534 
L 251.586286 160.652776 
L 258.751218 157.8849 
L 265.808482 155.158618 
L 272.761264 152.472697 
L 279.612615 149.825961 
L 286.36545 147.217282 
L 293.022562 144.645581 
L 299.586628 142.109825 
L 306.060213 139.609023 
L 312.445777 137.142224 
L 318.745682 134.708516 
L 324.962196 132.307022 
L 331.097497 129.936902 
L 337.15368 127.597345 
L 343.13276 125.287575 
L 349.036675 123.006841 
L 354.867292 120.754423 
L 360.626408 118.529626 
" clip-path="url(#pbabed5ed5d)" style="fill: none; stroke-dasharray: 9.5,5.7; stroke-dashoffset: 0; stroke: #23373b; stroke-opacity: 0.9; stroke-width: 1.9"/>
   </g>
   <g id="patch_3">
    <path d="M 42.57 271.86 
L 42.57 19.14 
" style="fill: none; stroke: #33474b; stroke-width: 0.8; stroke-linejoin: miter; stroke-linecap: square"/>
   </g>
   <g id="patch_4">
    <path d="M 42.57 271.86 
L 375.771951 271.86 
" style="fill: none; stroke: #33474b; stroke-width: 0.8; stroke-linejoin: miter; stroke-linecap: square"/>
   </g>
   <g id="text_8">
    <!-- linear -->
    <g style="fill: #33474b" transform="translate(189.401444 13.14) scale(0.15 -0.15)">
     <defs>
      <path id="FiraSans-Regular-6c" d="M 1280 -77 
Q 954 -77 765 118 
Q 576 314 576 666 
L 576 4730 
L 1165 4800 
L 1165 678 
Q 1165 538 1213 474 
Q 1261 410 1376 410 
Q 1498 410 1594 448 
L 1747 38 
Q 1536 -77 1280 -77 
z
" transform="scale(0.015625)"/>
      <path id="FiraSans-Regular-72" d="M 2074 3450 
Q 2253 3450 2406 3411 
L 2298 2835 
Q 2144 2874 2003 2874 
Q 1690 2874 1498 2643 
Q 1306 2413 1197 1926 
L 1197 0 
L 608 0 
L 608 3373 
L 1114 3373 
L 1171 2688 
Q 1306 3066 1536 3258 
Q 1766 3450 2074 3450 
z
" transform="scale(0.015625)"/>
     </defs>
     <use xlink:href="#FiraSans-Regular-6c"/>
     <use xlink:href="#FiraSans-Regular-69" transform="translate(29.299988 0)"/>
     <use xlink:href="#FiraSans-Regular-6e" transform="translate(57.499985 0)"/>
     <use xlink:href="#FiraSans-Regular-65" transform="translate(116.099976 0)"/>
     <use xlink:href="#FiraSans-Regular-61" transform="translate(170.59996 0)"/>
     <use xlink:href="#FiraSans-Regular-72" transform="translate(224.999954 0)"/>
    </g>
   </g>
   <g id="LineCollection_1">
    <path d="M 91.797723 173.614385 
L 91.797723 162.738894 
" clip-path="url(#pbabed5ed5d)" style="fill: none; stroke: #3b7ea1; stroke-width: 1.6"/>
    <path d="M 148.754272 136.633352 
L 148.754272 118.66403 
" clip-path="url(#pbabed5ed5d)" style="fill: none; stroke: #3b7ea1; stroke-width: 1.6"/>
    <path d="M 210.294512 109.016389 
L 210.294512 96.56048 
" clip-path="url(#pbabed5ed5d)" style="fill: none; stroke: #3b7ea1; stroke-width: 1.6"/>
    <path d="M 260.209028 113.193435 
L 260.209028 100.664801 
" clip-path="url(#pbabed5ed5d)" style="fill: none; stroke: #3b7ea1; stroke-width: 1.6"/>
    <path d="M 328.851127 54.966494 
L 328.851127 34.496186 
" clip-path="url(#pbabed5ed5d)" style="fill: none; stroke: #3b7ea1; stroke-width: 1.6"/>
   </g>
   <g id="line2d_21">
    <defs>
     <path id="md5122581cb" d="M 3 0 
L -3 -0 
" style="stroke: #3b7ea1; stroke-width: 0.9"/>
    </defs>
    <g clip-path="url(#pbabed5ed5d)">
     <use xlink:href="#md5122581cb" x="91.797723" y="173.614385" style="fill: #3b7ea1; stroke: #3b7ea1; stroke-width: 0.9"/>
     <use xlink:href="#md5122581cb" x="148.754272" y="136.633352" style="fill: #3b7ea1; stroke: #3b7ea1; stroke-width: 0.9"/>
     <use xlink:href="#md5122581cb" x="210.294512" y="109.016389" style="fill: #3b7ea1; stroke: #3b7ea1; stroke-width: 0.9"/>
     <use xlink:href="#md5122581cb" x="260.209028" y="113.193435" style="fill: #3b7ea1; stroke: #3b7ea1; stroke-width: 0.9"/>
     <use xlink:href="#md5122581cb" x="328.851127" y="54.966494" style="fill: #3b7ea1; stroke: #3b7ea1; stroke-width: 0.9"/>
    </g>
   </g>
   <g id="line2d_22">
    <g clip-path="url(#pbabed5ed5d)">
     <use xlink:href="#md5122581cb" x="91.797723" y="162.738894" style="fill: #3b7ea1; stroke: #3b7ea1; stroke-width: 0.9"/>
     <use xlink:href="#md5122581cb" x="148.754272" y="118.66403" style="fill: #3b7ea1; stroke: #3b7ea1; stroke-width: 0.9"/>
     <use xlink:href="#md5122581cb" x="210.294512" y="96.56048" style="fill: #3b7ea1; stroke: #3b7ea1; stroke-width: 0.9"/>
     <use xlink:href="#md5122581cb" x="260.209028" y="100.664801" style="fill: #3b7ea1; stroke: #3b7ea1; stroke-width: 0.9"/>
     <use xlink:href="#md5122581cb" x="328.851127" y="34.496186" style="fill: #3b7ea1; stroke: #3b7ea1; stroke-width: 0.9"/>
    </g>
   </g>
   <g id="LineCollection_2">
    <path d="M 91.797723 217.811582 
L 91.797723 199.428116 
" clip-path="url(#pbabed5ed5d)" style="fill: none; stroke: #9c162a; stroke-width: 1.6"/>
    <path d="M 148.754272 193.805 
L 148.754272 178.003142 
" clip-path="url(#pbabed5ed5d)" style="fill: none; stroke: #9c162a; stroke-width: 1.6"/>
    <path d="M 210.294512 160.738479 
L 210.294512 146.57765 
" clip-path="url(#pbabed5ed5d)" style="fill: none; stroke: #9c162a; stroke-width: 1.6"/>
    <path d="M 260.209028 143.881154 
L 260.209028 130.413004 
" clip-path="url(#pbabed5ed5d)" style="fill: none; stroke: #9c162a; stroke-width: 1.6"/>
    <path d="M 328.851127 115.965385 
L 328.851127 96.653934 
" clip-path="url(#pbabed5ed5d)" style="fill: none; stroke: #9c162a; stroke-width: 1.6"/>
   </g>
   <g id="line2d_23">
    <defs>
     <path id="m2cb6eb2399" d="M 3 0 
L -3 -0 
" style="stroke: #9c162a; stroke-width: 0.9"/>
    </defs>
    <g clip-path="url(#pbabed5ed5d)">
     <use xlink:href="#m2cb6eb2399" x="91.797723" y="217.811582" style="fill: #9c162a; stroke: #9c162a; stroke-width: 0.9"/>
     <use xlink:href="#m2cb6eb2399" x="148.754272" y="193.805" style="fill: #9c162a; stroke: #9c162a; stroke-width: 0.9"/>
     <use xlink:href="#m2cb6eb2399" x="210.294512" y="160.738479" style="fill: #9c162a; stroke: #9c162a; stroke-width: 0.9"/>
     <use xlink:href="#m2cb6eb2399" x="260.209028" y="143.881154" style="fill: #9c162a; stroke: #9c162a; stroke-width: 0.9"/>
     <use xlink:href="#m2cb6eb2399" x="328.851127" y="115.965385" style="fill: #9c162a; stroke: #9c162a; stroke-width: 0.9"/>
    </g>
   </g>
   <g id="line2d_24">
    <g clip-path="url(#pbabed5ed5d)">
     <use xlink:href="#m2cb6eb2399" x="91.797723" y="199.428116" style="fill: #9c162a; stroke: #9c162a; stroke-width: 0.9"/>
     <use xlink:href="#m2cb6eb2399" x="148.754272" y="178.003142" style="fill: #9c162a; stroke: #9c162a; stroke-width: 0.9"/>
     <use xlink:href="#m2cb6eb2399" x="210.294512" y="146.57765" style="fill: #9c162a; stroke: #9c162a; stroke-width: 0.9"/>
     <use xlink:href="#m2cb6eb2399" x="260.209028" y="130.413004" style="fill: #9c162a; stroke: #9c162a; stroke-width: 0.9"/>
     <use xlink:href="#m2cb6eb2399" x="328.851127" y="96.653934" style="fill: #9c162a; stroke: #9c162a; stroke-width: 0.9"/>
    </g>
   </g>
   <g id="LineCollection_3">
    <path d="M 91.797723 244.488901 
L 91.797723 226.496699 
" clip-path="url(#pbabed5ed5d)" style="fill: none; stroke: #23373b; stroke-width: 1.6"/>
    <path d="M 148.754272 207.095561 
L 148.754272 190.513916 
" clip-path="url(#pbabed5ed5d)" style="fill: none; stroke: #23373b; stroke-width: 1.6"/>
    <path d="M 210.294512 172.785088 
L 210.294512 161.309815 
" clip-path="url(#pbabed5ed5d)" style="fill: none; stroke: #23373b; stroke-width: 1.6"/>
    <path d="M 260.209028 167.648722 
L 260.209028 152.800655 
" clip-path="url(#pbabed5ed5d)" style="fill: none; stroke: #23373b; stroke-width: 1.6"/>
    <path d="M 328.851127 147.180972 
L 328.851127 131.041374 
" clip-path="url(#pbabed5ed5d)" style="fill: none; stroke: #23373b; stroke-width: 1.6"/>
   </g>
   <g id="line2d_25">
    <defs>
     <path id="mb87566df8b" d="M 3 0 
L -3 -0 
" style="stroke: #23373b; stroke-width: 0.9"/>
    </defs>
    <g clip-path="url(#pbabed5ed5d)">
     <use xlink:href="#mb87566df8b" x="91.797723" y="244.488901" style="fill: #23373b; stroke: #23373b; stroke-width: 0.9"/>
     <use xlink:href="#mb87566df8b" x="148.754272" y="207.095561" style="fill: #23373b; stroke: #23373b; stroke-width: 0.9"/>
     <use xlink:href="#mb87566df8b" x="210.294512" y="172.785088" style="fill: #23373b; stroke: #23373b; stroke-width: 0.9"/>
     <use xlink:href="#mb87566df8b" x="260.209028" y="167.648722" style="fill: #23373b; stroke: #23373b; stroke-width: 0.9"/>
     <use xlink:href="#mb87566df8b" x="328.851127" y="147.180972" style="fill: #23373b; stroke: #23373b; stroke-width: 0.9"/>
    </g>
   </g>
   <g id="line2d_26">
    <g clip-path="url(#pbabed5ed5d)">
     <use xlink:href="#mb87566df8b" x="91.797723" y="226.496699" style="fill: #23373b; stroke: #23373b; stroke-width: 0.9"/>
     <use xlink:href="#mb87566df8b" x="148.754272" y="190.513916" style="fill: #23373b; stroke: #23373b; stroke-width: 0.9"/>
     <use xlink:href="#mb87566df8b" x="210.294512" y="161.309815" style="fill: #23373b; stroke: #23373b; stroke-width: 0.9"/>
     <use xlink:href="#mb87566df8b" x="260.209028" y="152.800655" style="fill: #23373b; stroke: #23373b; stroke-width: 0.9"/>
     <use xlink:href="#mb87566df8b" x="328.851127" y="131.041374" style="fill: #23373b; stroke: #23373b; stroke-width: 0.9"/>
    </g>
   </g>
   <g id="line2d_27">
    <defs>
     <path id="mb20333098d" d="M 0 4 
C 1.060812 4 2.078319 3.578535 2.828427 2.828427 
C 3.578535 2.078319 4 1.060812 4 0 
C 4 -1.060812 3.578535 -2.078319 2.828427 -2.828427 
C 2.078319 -3.578535 1.060812 -4 0 -4 
C -1.060812 -4 -2.078319 -3.578535 -2.828427 -2.828427 
C -3.578535 -2.078319 -4 -1.060812 -4 0 
C -4 1.060812 -3.578535 2.078319 -2.828427 2.828427 
C -2.078319 3.578535 -1.060812 4 0 4 
z
" style="stroke: #ffffff; stroke-width: 0.9"/>
    </defs>
    <g clip-path="url(#pbabed5ed5d)">
     <use xlink:href="#mb20333098d" x="91.797723" y="167.998071" style="fill: #3b7ea1; stroke: #ffffff; stroke-width: 0.9"/>
     <use xlink:href="#mb20333098d" x="148.754272" y="127.161799" style="fill: #3b7ea1; stroke: #ffffff; stroke-width: 0.9"/>
     <use xlink:href="#mb20333098d" x="210.294512" y="102.554248" style="fill: #3b7ea1; stroke: #ffffff; stroke-width: 0.9"/>
     <use xlink:href="#mb20333098d" x="260.209028" y="106.692191" style="fill: #3b7ea1; stroke: #ffffff; stroke-width: 0.9"/>
     <use xlink:href="#mb20333098d" x="328.851127" y="44.099852" style="fill: #3b7ea1; stroke: #ffffff; stroke-width: 0.9"/>
    </g>
   </g>
   <g id="line2d_28">
    <defs>
     <path id="m5edcada2b8" d="M 0 4 
C 1.060812 4 2.078319 3.578535 2.828427 2.828427 
C 3.578535 2.078319 4 1.060812 4 0 
C 4 -1.060812 3.578535 -2.078319 2.828427 -2.828427 
C 2.078319 -3.578535 1.060812 -4 0 -4 
C -1.060812 -4 -2.078319 -3.578535 -2.828427 -2.828427 
C -3.578535 -2.078319 -4 -1.060812 -4 0 
C -4 1.060812 -3.578535 2.078319 -2.828427 2.828427 
C -2.078319 3.578535 -1.060812 4 0 4 
z
" style="stroke: #ffffff; stroke-width: 0.9"/>
    </defs>
    <g clip-path="url(#pbabed5ed5d)">
     <use xlink:href="#m5edcada2b8" x="91.797723" y="208.110302" style="fill: #9c162a; stroke: #ffffff; stroke-width: 0.9"/>
     <use xlink:href="#m5edcada2b8" x="148.754272" y="185.527386" style="fill: #9c162a; stroke: #ffffff; stroke-width: 0.9"/>
     <use xlink:href="#m5edcada2b8" x="210.294512" y="153.355465" style="fill: #9c162a; stroke: #ffffff; stroke-width: 0.9"/>
     <use xlink:href="#m5edcada2b8" x="260.209028" y="136.873327" style="fill: #9c162a; stroke: #ffffff; stroke-width: 0.9"/>
     <use xlink:href="#m5edcada2b8" x="328.851127" y="105.74749" style="fill: #9c162a; stroke: #ffffff; stroke-width: 0.9"/>
    </g>
   </g>
   <g id="line2d_29">
    <defs>
     <path id="mcf9592bfd6" d="M 0 4 
C 1.060812 4 2.078319 3.578535 2.828427 2.828427 
C 3.578535 2.078319 4 1.060812 4 0 
C 4 -1.060812 3.578535 -2.078319 2.828427 -2.828427 
C 2.078319 -3.578535 1.060812 -4 0 -4 
C -1.060812 -4 -2.078319 -3.578535 -2.828427 -2.828427 
C -3.578535 -2.078319 -4 -1.060812 -4 0 
C -4 1.060812 -3.578535 2.078319 -2.828427 2.828427 
C -2.078319 3.578535 -1.060812 4 0 4 
z
" style="stroke: #ffffff; stroke-width: 0.9"/>
    </defs>
    <g clip-path="url(#pbabed5ed5d)">
     <use xlink:href="#mcf9592bfd6" x="91.797723" y="235.00467" style="fill: #23373b; stroke: #ffffff; stroke-width: 0.9"/>
     <use xlink:href="#mcf9592bfd6" x="148.754272" y="198.390023" style="fill: #23373b; stroke: #ffffff; stroke-width: 0.9"/>
     <use xlink:href="#mcf9592bfd6" x="210.294512" y="166.84866" style="fill: #23373b; stroke: #ffffff; stroke-width: 0.9"/>
     <use xlink:href="#mcf9592bfd6" x="260.209028" y="159.892045" style="fill: #23373b; stroke: #ffffff; stroke-width: 0.9"/>
     <use xlink:href="#mcf9592bfd6" x="328.851127" y="138.71824" style="fill: #23373b; stroke: #ffffff; stroke-width: 0.9"/>
    </g>
   </g>
   <g id="legend_1">
    <g id="LineCollection_4">
     <path d="M 61.945 42.290391 
L 61.945 29.790391 
" style="fill: none; stroke: #3b7ea1; stroke-width: 1.6"/>
    </g>
    <g id="line2d_30">
     <g>
      <use xlink:href="#md5122581cb" x="61.945" y="42.290391" style="fill: #3b7ea1; stroke: #3b7ea1; stroke-width: 0.9"/>
     </g>
    </g>
    <g id="line2d_31">
     <g>
      <use xlink:href="#md5122581cb" x="61.945" y="29.790391" style="fill: #3b7ea1; stroke: #3b7ea1; stroke-width: 0.9"/>
     </g>
    </g>
    <g id="line2d_32"/>
    <g id="line2d_33">
     <g>
      <use xlink:href="#mb20333098d" x="61.945" y="36.040391" style="fill: #3b7ea1; stroke: #ffffff; stroke-width: 0.9"/>
     </g>
    </g>
    <g id="text_9">
     <!-- $\Lambda/\xi=0.75$:  $z=2.52\pm0.22$ -->
     <g transform="translate(80.07 40.415391) scale(0.125 -0.125)">
      <defs>
       <path id="FiraSans-Light-39b" d="M 2048 4384 
L 3507 0 
L 3104 0 
L 1805 4070 
L 493 0 
L 102 0 
L 1568 4384 
L 2048 4384 
z
" transform="scale(0.015625)"/>
       <path id="FiraSans-Light-3d" d="M 442 2515 
L 442 2842 
L 2714 2842 
L 2714 2515 
L 442 2515 
z
M 442 1395 
L 442 1722 
L 2714 1722 
L 2714 1395 
L 442 1395 
z
" transform="scale(0.015625)"/>
       <path id="FiraSans-Light-2e" d="M 659 538 
Q 794 538 880 451 
Q 966 365 966 237 
Q 966 102 880 16 
Q 794 -70 659 -70 
Q 531 -70 441 19 
Q 352 109 352 237 
Q 352 365 441 451 
Q 531 538 659 538 
z
" transform="scale(0.015625)"/>
       <path id="FiraSans-Medium-3a" d="M 762 941 
Q 979 941 1132 790 
Q 1286 640 1286 422 
Q 1286 211 1132 57 
Q 979 -96 762 -96 
Q 550 -96 400 57 
Q 250 211 250 422 
Q 250 640 397 790 
Q 544 941 762 941 
z
M 762 3219 
Q 979 3219 1132 3068 
Q 1286 2918 1286 2700 
Q 1286 2489 1132 2335 
Q 979 2182 762 2182 
Q 550 2182 400 2335 
Q 250 2489 250 2700 
Q 250 2918 397 3068 
Q 544 3219 762 3219 
z
" transform="scale(0.015625)"/>
       <path id="FiraSans-Medium-20" transform="scale(0.015625)"/>
       <path id="FiraSans-LightItalic-7a" d="M 2707 3347 
L 2669 3059 
L 448 320 
L 2266 320 
L 2182 0 
L -64 0 
L -19 288 
L 2195 3021 
L 518 3021 
L 563 3347 
L 2707 3347 
z
" transform="scale(0.015625)"/>
       <path id="FiraSans-Light-b1" d="M 442 0 
L 442 327 
L 2714 327 
L 2714 0 
L 442 0 
z
M 1754 3315 
L 1754 2342 
L 2714 2342 
L 2714 2022 
L 1754 2022 
L 1754 1050 
L 1402 1050 
L 1402 2022 
L 442 2022 
L 442 2342 
L 1402 2342 
L 1402 3315 
L 1754 3315 
z
" transform="scale(0.015625)"/>
      </defs>
      <use xlink:href="#FiraSans-Light-39b" transform="translate(0 0.703125)"/>
      <use xlink:href="#FiraSans-Light-2f" transform="translate(56.499985 0.703125)"/>
      <use xlink:href="#FiraSans-LightItalic-3be" transform="translate(108.499969 0.703125)"/>
      <use xlink:href="#FiraSans-Light-3d" transform="translate(167.579959 0.703125)"/>
      <use xlink:href="#FiraSans-Light-30" transform="translate(233.859946 0.703125)"/>
      <use xlink:href="#FiraSans-Light-2e" transform="translate(288.85993 0.703125)"/>
      <use xlink:href="#FiraSans-Light-37" transform="translate(309.559927 0.703125)"/>
      <use xlink:href="#FiraSans-Light-35" transform="translate(353.259924 0.703125)"/>
      <use xlink:href="#FiraSans-Medium-3a" transform="translate(401.959921 0.703125)"/>
      <use xlink:href="#FiraSans-Medium-20" transform="translate(425.959906 0.703125)"/>
      <use xlink:href="#FiraSans-Medium-20" transform="translate(450.959891 0.703125)"/>
      <use xlink:href="#FiraSans-LightItalic-7a" transform="translate(475.959875 0.703125)"/>
      <use xlink:href="#FiraSans-Light-3d" transform="translate(534.939859 0.703125)"/>
      <use xlink:href="#FiraSans-Light-32" transform="translate(601.219846 0.703125)"/>
      <use xlink:href="#FiraSans-Light-2e" transform="translate(649.119839 0.703125)"/>
      <use xlink:href="#FiraSans-Light-35" transform="translate(669.819836 0.703125)"/>
      <use xlink:href="#FiraSans-Light-32" transform="translate(718.519833 0.703125)"/>
      <use xlink:href="#FiraSans-Light-b1" transform="translate(783.399826 0.703125)"/>
      <use xlink:href="#FiraSans-Light-30" transform="translate(849.679813 0.703125)"/>
      <use xlink:href="#FiraSans-Light-2e" transform="translate(904.679797 0.703125)"/>
      <use xlink:href="#FiraSans-Light-32" transform="translate(925.379794 0.703125)"/>
      <use xlink:href="#FiraSans-Light-32" transform="translate(973.279788 0.703125)"/>
     </g>
    </g>
    <g id="LineCollection_5">
     <path d="M 61.945 60.040391 
L 61.945 47.540391 
" style="fill: none; stroke: #9c162a; stroke-width: 1.6"/>
    </g>
    <g id="line2d_34">
     <g>
      <use xlink:href="#m2cb6eb2399" x="61.945" y="60.040391" style="fill: #9c162a; stroke: #9c162a; stroke-width: 0.9"/>
     </g>
    </g>
    <g id="line2d_35">
     <g>
      <use xlink:href="#m2cb6eb2399" x="61.945" y="47.540391" style="fill: #9c162a; stroke: #9c162a; stroke-width: 0.9"/>
     </g>
    </g>
    <g id="line2d_36"/>
    <g id="line2d_37">
     <g>
      <use xlink:href="#m5edcada2b8" x="61.945" y="53.790391" style="fill: #9c162a; stroke: #ffffff; stroke-width: 0.9"/>
     </g>
    </g>
    <g id="text_10">
     <!-- $\Lambda/\xi=1.25$:  $z=2.46\pm0.27$ -->
     <g transform="translate(80.07 58.165391) scale(0.125 -0.125)">
      <use xlink:href="#FiraSans-Light-39b" transform="translate(0 0.703125)"/>
      <use xlink:href="#FiraSans-Light-2f" transform="translate(56.499985 0.703125)"/>
      <use xlink:href="#FiraSans-LightItalic-3be" transform="translate(108.499969 0.703125)"/>
      <use xlink:href="#FiraSans-Light-3d" transform="translate(167.579959 0.703125)"/>
      <use xlink:href="#FiraSans-Light-31" transform="translate(233.859946 0.703125)"/>
      <use xlink:href="#FiraSans-Light-2e" transform="translate(275.159933 0.703125)"/>
      <use xlink:href="#FiraSans-Light-32" transform="translate(295.85993 0.703125)"/>
      <use xlink:href="#FiraSans-Light-35" transform="translate(343.759924 0.703125)"/>
      <use xlink:href="#FiraSans-Medium-3a" transform="translate(392.459921 0.703125)"/>
      <use xlink:href="#FiraSans-Medium-20" transform="translate(416.459906 0.703125)"/>
      <use xlink:href="#FiraSans-Medium-20" transform="translate(441.459891 0.703125)"/>
      <use xlink:href="#FiraSans-LightItalic-7a" transform="translate(466.459875 0.703125)"/>
      <use xlink:href="#FiraSans-Light-3d" transform="translate(525.439859 0.703125)"/>
      <use xlink:href="#FiraSans-Light-32" transform="translate(591.719846 0.703125)"/>
      <use xlink:href="#FiraSans-Light-2e" transform="translate(639.619839 0.703125)"/>
      <use xlink:href="#FiraSans-Light-34" transform="translate(660.319836 0.703125)"/>
      <use xlink:href="#FiraSans-Light-36" transform="translate(712.119824 0.703125)"/>
      <use xlink:href="#FiraSans-Light-b1" transform="translate(781.499817 0.703125)"/>
      <use xlink:href="#FiraSans-Light-30" transform="translate(847.779803 0.703125)"/>
      <use xlink:href="#FiraSans-Light-2e" transform="translate(902.779788 0.703125)"/>
      <use xlink:href="#FiraSans-Light-32" transform="translate(923.479785 0.703125)"/>
      <use xlink:href="#FiraSans-Light-37" transform="translate(971.379779 0.703125)"/>
     </g>
    </g>
    <g id="LineCollection_6">
     <path d="M 61.945 77.790391 
L 61.945 65.290391 
" style="fill: none; stroke: #23373b; stroke-width: 1.6"/>
    </g>
    <g id="line2d_38">
     <g>
      <use xlink:href="#mb87566df8b" x="61.945" y="77.790391" style="fill: #23373b; stroke: #23373b; stroke-width: 0.9"/>
     </g>
    </g>
    <g id="line2d_39">
     <g>
      <use xlink:href="#mb87566df8b" x="61.945" y="65.290391" style="fill: #23373b; stroke: #23373b; stroke-width: 0.9"/>
     </g>
    </g>
    <g id="line2d_40"/>
    <g id="line2d_41">
     <g>
      <use xlink:href="#mcf9592bfd6" x="61.945" y="71.540391" style="fill: #23373b; stroke: #ffffff; stroke-width: 0.9"/>
     </g>
    </g>
    <g id="text_11">
     <!-- $\Lambda/\xi=1.75$:  $z=2.19\pm0.26$ -->
     <g transform="translate(80.07 75.915391) scale(0.125 -0.125)">
      <defs>
       <path id="FiraSans-Light-39" d="M 1632 4326 
Q 2278 4326 2601 3875 
Q 2925 3424 2925 2611 
Q 2925 1786 2688 1261 
Q 2451 736 1993 422 
Q 1536 109 787 -122 
L 691 166 
Q 1574 435 2038 902 
Q 2502 1370 2547 2182 
Q 2355 1901 2086 1744 
Q 1818 1587 1498 1587 
Q 1165 1587 902 1750 
Q 640 1914 489 2218 
Q 339 2522 339 2931 
Q 339 3354 508 3670 
Q 678 3987 972 4156 
Q 1267 4326 1632 4326 
z
M 1562 1894 
Q 1862 1894 2102 2057 
Q 2342 2221 2547 2534 
Q 2554 3296 2336 3657 
Q 2118 4019 1645 4019 
Q 1216 4019 969 3734 
Q 723 3450 723 2925 
Q 723 2432 950 2163 
Q 1178 1894 1562 1894 
z
" transform="scale(0.015625)"/>
      </defs>
      <use xlink:href="#FiraSans-Light-39b" transform="translate(0 0.703125)"/>
      <use xlink:href="#FiraSans-Light-2f" transform="translate(56.499985 0.703125)"/>
      <use xlink:href="#FiraSans-LightItalic-3be" transform="translate(108.499969 0.703125)"/>
      <use xlink:href="#FiraSans-Light-3d" transform="translate(167.579959 0.703125)"/>
      <use xlink:href="#FiraSans-Light-31" transform="translate(233.859946 0.703125)"/>
      <use xlink:href="#FiraSans-Light-2e" transform="translate(275.159933 0.703125)"/>
      <use xlink:href="#FiraSans-Light-37" transform="translate(295.85993 0.703125)"/>
      <use xlink:href="#FiraSans-Light-35" transform="translate(339.559927 0.703125)"/>
      <use xlink:href="#FiraSans-Medium-3a" transform="translate(388.259924 0.703125)"/>
      <use xlink:href="#FiraSans-Medium-20" transform="translate(412.259909 0.703125)"/>
      <use xlink:href="#FiraSans-Medium-20" transform="translate(437.259894 0.703125)"/>
      <use xlink:href="#FiraSans-LightItalic-7a" transform="translate(462.259879 0.703125)"/>
      <use xlink:href="#FiraSans-Light-3d" transform="translate(521.239862 0.703125)"/>
      <use xlink:href="#FiraSans-Light-32" transform="translate(587.519849 0.703125)"/>
      <use xlink:href="#FiraSans-Light-2e" transform="translate(635.419843 0.703125)"/>
      <use xlink:href="#FiraSans-Light-31" transform="translate(656.119839 0.703125)"/>
      <use xlink:href="#FiraSans-Light-39" transform="translate(697.419827 0.703125)"/>
      <use xlink:href="#FiraSans-Light-b1" transform="translate(766.199814 0.703125)"/>
      <use xlink:href="#FiraSans-Light-30" transform="translate(832.4798 0.703125)"/>
      <use xlink:href="#FiraSans-Light-2e" transform="translate(887.479785 0.703125)"/>
      <use xlink:href="#FiraSans-Light-32" transform="translate(908.179782 0.703125)"/>
      <use xlink:href="#FiraSans-Light-36" transform="translate(956.079776 0.703125)"/>
     </g>
    </g>
   </g>
  </g>
  <g id="axes_2">
   <g id="patch_5">
    <path d="M 392.432049 271.86 
L 725.634 271.86 
L 725.634 19.14 
L 392.432049 19.14 
L 392.432049 271.86 
z
" style="fill: none"/>
   </g>
   <g id="matplotlib.axis_3">
    <g id="xtick_5">
     <g id="line2d_42">
      <g>
       <use xlink:href="#m93afa1ffe5" x="417.305647" y="271.86" style="fill: #33474b; stroke: #33474b; stroke-width: 0.6"/>
      </g>
     </g>
     <g id="text_12">
      <!-- $\mathdefault{4\times10^{0}}$ -->
      <g style="fill: #33474b" transform="translate(404.290647 284.318203) scale(0.095 -0.095)">
       <use xlink:href="#FiraSans-Light-34" transform="translate(0 0.076563)"/>
       <use xlink:href="#FiraSans-Light-d7" transform="translate(68.779987 0.076563)"/>
       <use xlink:href="#FiraSans-Light-31" transform="translate(135.059973 0.076563)"/>
       <use xlink:href="#FiraSans-Light-30" transform="translate(176.359961 0.076563)"/>
       <use xlink:href="#FiraSans-Light-30" transform="translate(232.275141 36.684375) scale(0.7)"/>
      </g>
     </g>
    </g>
    <g id="xtick_6">
     <g id="line2d_43">
      <g>
       <use xlink:href="#m93afa1ffe5" x="522.103028" y="271.86" style="fill: #33474b; stroke: #33474b; stroke-width: 0.6"/>
      </g>
     </g>
     <g id="text_13">
      <!-- $\mathdefault{5\times10^{0}}$ -->
      <g style="fill: #33474b" transform="translate(509.230528 284.318203) scale(0.095 -0.095)">
       <use xlink:href="#FiraSans-Light-35" transform="translate(0 0.076563)"/>
       <use xlink:href="#FiraSans-Light-d7" transform="translate(65.679996 0.076563)"/>
       <use xlink:href="#FiraSans-Light-31" transform="translate(131.959982 0.076563)"/>
       <use xlink:href="#FiraSans-Light-30" transform="translate(173.25997 0.076563)"/>
       <use xlink:href="#FiraSans-Light-30" transform="translate(229.17515 36.684375) scale(0.7)"/>
      </g>
     </g>
    </g>
    <g id="xtick_7">
     <g id="line2d_44">
      <g>
       <use xlink:href="#m93afa1ffe5" x="607.728723" y="271.86" style="fill: #33474b; stroke: #33474b; stroke-width: 0.6"/>
      </g>
     </g>
     <g id="text_14">
      <!-- $\mathdefault{6\times10^{0}}$ -->
      <g style="fill: #33474b" transform="translate(594.713723 284.318203) scale(0.095 -0.095)">
       <use xlink:href="#FiraSans-Light-36" transform="translate(0 0.076563)"/>
       <use xlink:href="#FiraSans-Light-d7" transform="translate(69.379993 0.076563)"/>
       <use xlink:href="#FiraSans-Light-31" transform="translate(135.659979 0.076563)"/>
       <use xlink:href="#FiraSans-Light-30" transform="translate(176.959967 0.076563)"/>
       <use xlink:href="#FiraSans-Light-30" transform="translate(232.875147 36.684375) scale(0.7)"/>
      </g>
     </g>
    </g>
    <g id="xtick_8">
     <g id="line2d_45">
      <g>
       <use xlink:href="#m93afa1ffe5" x="680.124216" y="271.86" style="fill: #33474b; stroke: #33474b; stroke-width: 0.6"/>
      </g>
     </g>
     <g id="text_15">
      <!-- $\mathdefault{7\times10^{0}}$ -->
      <g style="fill: #33474b" transform="translate(667.489216 284.318203) scale(0.095 -0.095)">
       <use xlink:href="#FiraSans-Light-37" transform="translate(0 0.076563)"/>
       <use xlink:href="#FiraSans-Light-d7" transform="translate(60.679996 0.076563)"/>
       <use xlink:href="#FiraSans-Light-31" transform="translate(126.959982 0.076563)"/>
       <use xlink:href="#FiraSans-Light-30" transform="translate(168.25997 0.076563)"/>
       <use xlink:href="#FiraSans-Light-30" transform="translate(224.17515 36.684375) scale(0.7)"/>
      </g>
     </g>
    </g>
    <g id="text_16">
     <!-- $\xi/a$ -->
     <g style="fill: #33474b" transform="translate(547.708024 302.371172) scale(0.15 -0.15)">
      <use xlink:href="#FiraSans-LightItalic-3be" transform="translate(0 0.703125)"/>
      <use xlink:href="#FiraSans-Light-2f" transform="translate(42.099991 0.703125)"/>
      <use xlink:href="#FiraSans-LightItalic-61" transform="translate(94.099976 0.703125)"/>
     </g>
    </g>
   </g>
   <g id="matplotlib.axis_4">
    <g id="ytick_14">
     <g id="line2d_46">
      <g>
       <use xlink:href="#m9a68b55452" x="392.432049" y="180.134826" style="fill: #33474b; stroke: #33474b; stroke-width: 0.8"/>
      </g>
     </g>
    </g>
    <g id="ytick_15">
     <g id="line2d_47">
      <g>
       <use xlink:href="#ma75c171eab" x="392.432049" y="255.944116" style="fill: #33474b; stroke: #33474b; stroke-width: 0.6"/>
      </g>
     </g>
    </g>
    <g id="ytick_16">
     <g id="line2d_48">
      <g>
       <use xlink:href="#ma75c171eab" x="392.432049" y="237.48234" style="fill: #33474b; stroke: #33474b; stroke-width: 0.6"/>
      </g>
     </g>
    </g>
    <g id="ytick_17">
     <g id="line2d_49">
      <g>
       <use xlink:href="#ma75c171eab" x="392.432049" y="222.397971" style="fill: #33474b; stroke: #33474b; stroke-width: 0.6"/>
      </g>
     </g>
    </g>
    <g id="ytick_18">
     <g id="line2d_50">
      <g>
       <use xlink:href="#ma75c171eab" x="392.432049" y="209.644319" style="fill: #33474b; stroke: #33474b; stroke-width: 0.6"/>
      </g>
     </g>
    </g>
    <g id="ytick_19">
     <g id="line2d_51">
      <g>
       <use xlink:href="#ma75c171eab" x="392.432049" y="198.596602" style="fill: #33474b; stroke: #33474b; stroke-width: 0.6"/>
      </g>
     </g>
    </g>
    <g id="ytick_20">
     <g id="line2d_52">
      <g>
       <use xlink:href="#ma75c171eab" x="392.432049" y="188.851826" style="fill: #33474b; stroke: #33474b; stroke-width: 0.6"/>
      </g>
     </g>
    </g>
    <g id="ytick_21">
     <g id="line2d_53">
      <g>
       <use xlink:href="#ma75c171eab" x="392.432049" y="122.787312" style="fill: #33474b; stroke: #33474b; stroke-width: 0.6"/>
      </g>
     </g>
    </g>
    <g id="ytick_22">
     <g id="line2d_54">
      <g>
       <use xlink:href="#ma75c171eab" x="392.432049" y="89.241167" style="fill: #33474b; stroke: #33474b; stroke-width: 0.6"/>
      </g>
     </g>
    </g>
    <g id="ytick_23">
     <g id="line2d_55">
      <g>
       <use xlink:href="#ma75c171eab" x="392.432049" y="65.439798" style="fill: #33474b; stroke: #33474b; stroke-width: 0.6"/>
      </g>
     </g>
    </g>
    <g id="ytick_24">
     <g id="line2d_56">
      <g>
       <use xlink:href="#ma75c171eab" x="392.432049" y="46.978022" style="fill: #33474b; stroke: #33474b; stroke-width: 0.6"/>
      </g>
     </g>
    </g>
    <g id="ytick_25">
     <g id="line2d_57">
      <g>
       <use xlink:href="#ma75c171eab" x="392.432049" y="31.893653" style="fill: #33474b; stroke: #33474b; stroke-width: 0.6"/>
      </g>
     </g>
    </g>
    <g id="ytick_26">
     <g id="line2d_58">
      <g>
       <use xlink:href="#ma75c171eab" x="392.432049" y="19.14" style="fill: #33474b; stroke: #33474b; stroke-width: 0.6"/>
      </g>
     </g>
    </g>
   </g>
   <g id="line2d_59">
    <path d="M 407.577592 204.769622 
L 418.362402 199.582487 
L 428.9051 194.5118 
L 439.216318 189.552447 
L 449.306002 184.699644 
L 459.183473 179.948909 
L 468.857474 175.296036 
L 478.336218 170.737076 
L 487.627431 166.268311 
L 496.738391 161.886242 
L 505.675958 157.58757 
L 514.446609 153.369178 
L 523.056464 149.228124 
L 531.511314 145.161622 
L 539.816641 141.167036 
L 547.977641 137.241866 
L 555.999246 133.383741 
L 563.886137 129.590409 
L 571.642765 125.859728 
L 579.273363 122.189665 
L 586.78196 118.578279 
L 594.172397 115.023725 
L 601.448335 111.524241 
L 608.613267 108.078146 
L 615.670531 104.683837 
L 622.623313 101.33978 
L 629.474663 98.044508 
L 636.227498 94.796619 
L 642.884611 91.594769 
L 649.448677 88.437672 
L 655.922262 85.324093 
L 662.307826 82.252849 
L 668.607731 79.222804 
L 674.824245 76.232867 
L 680.959546 73.281992 
L 687.015729 70.369169 
L 692.994809 67.49343 
L 698.898724 64.653843 
L 704.729341 61.849511 
L 710.488457 59.079567 
" clip-path="url(#pc4dc6ecdfc)" style="fill: none; stroke-dasharray: 9.5,5.7; stroke-dashoffset: 0; stroke: #3b7ea1; stroke-opacity: 0.9; stroke-width: 1.9"/>
   </g>
   <g id="line2d_60">
    <path d="M 407.577592 239.500657 
L 418.362402 235.129686 
L 428.9051 230.856841 
L 439.216318 226.677812 
L 449.306002 222.588568 
L 459.183473 218.585332 
L 468.857474 214.66456 
L 478.336218 210.822924 
L 487.627431 207.057292 
L 496.738391 203.364715 
L 505.675958 199.742412 
L 514.446609 196.187759 
L 523.056464 192.698274 
L 531.511314 189.271612 
L 539.816641 185.905549 
L 547.977641 182.597981 
L 555.999246 179.346908 
L 563.886137 176.150433 
L 571.642765 173.006753 
L 579.273363 169.914151 
L 586.78196 166.870995 
L 594.172397 163.875728 
L 601.448335 160.926866 
L 608.613267 158.022994 
L 615.670531 155.162759 
L 622.623313 152.344868 
L 629.474663 149.568087 
L 636.227498 146.831234 
L 642.884611 144.133175 
L 649.448677 141.472828 
L 655.922262 138.849151 
L 662.307826 136.261149 
L 668.607731 133.707863 
L 674.824245 131.188375 
L 680.959546 128.701801 
L 687.015729 126.247293 
L 692.994809 123.824035 
L 698.898724 121.431239 
L 704.729341 119.068151 
L 710.488457 116.734042 
" clip-path="url(#pc4dc6ecdfc)" style="fill: none; stroke-dasharray: 9.5,5.7; stroke-dashoffset: 0; stroke: #9c162a; stroke-opacity: 0.9; stroke-width: 1.9"/>
   </g>
   <g id="line2d_61">
    <path d="M 407.577592 250.67407 
L 418.362402 246.953853 
L 428.9051 243.317152 
L 439.216318 239.7603 
L 449.306002 236.279866 
L 459.183473 232.872634 
L 468.857474 229.53559 
L 478.336218 226.2659 
L 487.627431 223.060898 
L 496.738391 219.918075 
L 505.675958 216.835064 
L 514.446609 213.80963 
L 523.056464 210.839662 
L 531.511314 207.923164 
L 539.816641 205.058243 
L 547.977641 202.243108 
L 555.999246 199.476058 
L 563.886137 196.755477 
L 571.642765 194.07983 
L 579.273363 191.447657 
L 586.78196 188.857568 
L 594.172397 186.308239 
L 601.448335 183.798406 
L 608.613267 181.326864 
L 615.670531 178.892463 
L 622.623313 176.494102 
L 629.474663 174.130731 
L 636.227498 171.801342 
L 642.884611 169.504973 
L 649.448677 167.2407 
L 655.922262 165.007638 
L 662.307826 162.804939 
L 668.607731 160.631789 
L 674.824245 158.487404 
L 680.959546 156.371033 
L 687.015729 154.281955 
L 692.994809 152.219472 
L 698.898724 150.182918 
L 704.729341 148.171649 
L 710.488457 146.185043 
" clip-path="url(#pc4dc6ecdfc)" style="fill: none; stroke-dasharray: 9.5,5.7; stroke-dashoffset: 0; stroke: #23373b; stroke-opacity: 0.9; stroke-width: 1.9"/>
   </g>
   <g id="patch_6">
    <path d="M 392.432049 271.86 
L 392.432049 19.14 
" style="fill: none; stroke: #33474b; stroke-width: 0.8; stroke-linejoin: miter; stroke-linecap: square"/>
   </g>
   <g id="patch_7">
    <path d="M 392.432049 271.86 
L 725.634 271.86 
" style="fill: none; stroke: #33474b; stroke-width: 0.8; stroke-linejoin: miter; stroke-linecap: square"/>
   </g>
   <g id="text_17">
    <!-- optimized -->
    <g style="fill: #33474b" transform="translate(524.981853 13.14) scale(0.15 -0.15)">
     <defs>
      <path id="FiraSans-Regular-6f" d="M 1875 3450 
Q 2586 3450 2979 2976 
Q 3373 2502 3373 1690 
Q 3373 1165 3193 765 
Q 3014 365 2675 144 
Q 2336 -77 1869 -77 
Q 1158 -77 761 396 
Q 365 870 365 1683 
Q 365 2208 544 2608 
Q 723 3008 1062 3229 
Q 1402 3450 1875 3450 
z
M 1875 2976 
Q 998 2976 998 1683 
Q 998 397 1869 397 
Q 2739 397 2739 1690 
Q 2739 2976 1875 2976 
z
" transform="scale(0.015625)"/>
      <path id="FiraSans-Regular-70" d="M 2157 3450 
Q 2803 3450 3104 2989 
Q 3405 2528 3405 1690 
Q 3405 896 3059 409 
Q 2714 -77 2080 -77 
Q 1517 -77 1197 307 
L 1197 -1293 
L 608 -1363 
L 608 3373 
L 1114 3373 
L 1158 2918 
Q 1344 3174 1606 3312 
Q 1869 3450 2157 3450 
z
M 1939 403 
Q 2771 403 2771 1690 
Q 2771 2982 2010 2982 
Q 1760 2982 1555 2835 
Q 1350 2688 1197 2458 
L 1197 813 
Q 1325 614 1517 508 
Q 1709 403 1939 403 
z
" transform="scale(0.015625)"/>
      <path id="FiraSans-Regular-7a" d="M 2586 3373 
L 2586 2925 
L 826 493 
L 2605 493 
L 2534 0 
L 160 0 
L 160 442 
L 1914 2874 
L 307 2874 
L 307 3373 
L 2586 3373 
z
" transform="scale(0.015625)"/>
      <path id="FiraSans-Regular-64" d="M 3219 4730 
L 3219 0 
L 2701 0 
L 2643 467 
Q 2477 211 2227 67 
Q 1978 -77 1670 -77 
Q 1069 -77 733 396 
Q 397 870 397 1670 
Q 397 2189 557 2592 
Q 717 2995 1017 3222 
Q 1318 3450 1722 3450 
Q 2240 3450 2630 3034 
L 2630 4800 
L 3219 4730 
z
M 1798 390 
Q 2067 390 2259 515 
Q 2451 640 2630 890 
L 2630 2541 
Q 2464 2758 2275 2870 
Q 2086 2982 1850 2982 
Q 1459 2982 1244 2656 
Q 1030 2330 1030 1683 
Q 1030 1030 1228 710 
Q 1427 390 1798 390 
z
" transform="scale(0.015625)"/>
     </defs>
     <use xlink:href="#FiraSans-Regular-6f"/>
     <use xlink:href="#FiraSans-Regular-70" transform="translate(58.399994 0)"/>
     <use xlink:href="#FiraSans-Regular-74" transform="translate(117.799988 0)"/>
     <use xlink:href="#FiraSans-Regular-69" transform="translate(153.899979 0)"/>
     <use xlink:href="#FiraSans-Regular-6d" transform="translate(182.099976 0)"/>
     <use xlink:href="#FiraSans-Regular-69" transform="translate(267.799957 0)"/>
     <use xlink:href="#FiraSans-Regular-7a" transform="translate(295.999954 0)"/>
     <use xlink:href="#FiraSans-Regular-65" transform="translate(339.699951 0)"/>
     <use xlink:href="#FiraSans-Regular-64" transform="translate(394.199936 0)"/>
    </g>
   </g>
   <g id="LineCollection_7">
    <path d="M 441.659771 204.400813 
L 441.659771 186.103383 
" clip-path="url(#pc4dc6ecdfc)" style="fill: none; stroke: #3b7ea1; stroke-width: 1.6"/>
    <path d="M 498.61632 159.176111 
L 498.61632 144.610337 
" clip-path="url(#pc4dc6ecdfc)" style="fill: none; stroke: #3b7ea1; stroke-width: 1.6"/>
    <path d="M 560.156561 140.615495 
L 560.156561 127.735119 
" clip-path="url(#pc4dc6ecdfc)" style="fill: none; stroke: #3b7ea1; stroke-width: 1.6"/>
    <path d="M 610.071077 123.24361 
L 610.071077 106.247278 
" clip-path="url(#pc4dc6ecdfc)" style="fill: none; stroke: #3b7ea1; stroke-width: 1.6"/>
    <path d="M 678.713175 79.351884 
L 678.713175 60.087925 
" clip-path="url(#pc4dc6ecdfc)" style="fill: none; stroke: #3b7ea1; stroke-width: 1.6"/>
   </g>
   <g id="line2d_62">
    <g clip-path="url(#pc4dc6ecdfc)">
     <use xlink:href="#md5122581cb" x="441.659771" y="204.400813" style="fill: #3b7ea1; stroke: #3b7ea1; stroke-width: 0.9"/>
     <use xlink:href="#md5122581cb" x="498.61632" y="159.176111" style="fill: #3b7ea1; stroke: #3b7ea1; stroke-width: 0.9"/>
     <use xlink:href="#md5122581cb" x="560.156561" y="140.615495" style="fill: #3b7ea1; stroke: #3b7ea1; stroke-width: 0.9"/>
     <use xlink:href="#md5122581cb" x="610.071077" y="123.24361" style="fill: #3b7ea1; stroke: #3b7ea1; stroke-width: 0.9"/>
     <use xlink:href="#md5122581cb" x="678.713175" y="79.351884" style="fill: #3b7ea1; stroke: #3b7ea1; stroke-width: 0.9"/>
    </g>
   </g>
   <g id="line2d_63">
    <g clip-path="url(#pc4dc6ecdfc)">
     <use xlink:href="#md5122581cb" x="441.659771" y="186.103383" style="fill: #3b7ea1; stroke: #3b7ea1; stroke-width: 0.9"/>
     <use xlink:href="#md5122581cb" x="498.61632" y="144.610337" style="fill: #3b7ea1; stroke: #3b7ea1; stroke-width: 0.9"/>
     <use xlink:href="#md5122581cb" x="560.156561" y="127.735119" style="fill: #3b7ea1; stroke: #3b7ea1; stroke-width: 0.9"/>
     <use xlink:href="#md5122581cb" x="610.071077" y="106.247278" style="fill: #3b7ea1; stroke: #3b7ea1; stroke-width: 0.9"/>
     <use xlink:href="#md5122581cb" x="678.713175" y="60.087925" style="fill: #3b7ea1; stroke: #3b7ea1; stroke-width: 0.9"/>
    </g>
   </g>
   <g id="LineCollection_8">
    <path d="M 441.659771 240.567245 
L 441.659771 226.598187 
" clip-path="url(#pc4dc6ecdfc)" style="fill: none; stroke: #9c162a; stroke-width: 1.6"/>
    <path d="M 498.61632 206.729628 
L 498.61632 193.49327 
" clip-path="url(#pc4dc6ecdfc)" style="fill: none; stroke: #9c162a; stroke-width: 1.6"/>
    <path d="M 560.156561 174.521627 
L 560.156561 160.594626 
" clip-path="url(#pc4dc6ecdfc)" style="fill: none; stroke: #9c162a; stroke-width: 1.6"/>
    <path d="M 610.071077 164.823248 
L 610.071077 150.386575 
" clip-path="url(#pc4dc6ecdfc)" style="fill: none; stroke: #9c162a; stroke-width: 1.6"/>
    <path d="M 678.713175 141.528791 
L 678.713175 128.59596 
" clip-path="url(#pc4dc6ecdfc)" style="fill: none; stroke: #9c162a; stroke-width: 1.6"/>
   </g>
   <g id="line2d_64">
    <g clip-path="url(#pc4dc6ecdfc)">
     <use xlink:href="#m2cb6eb2399" x="441.659771" y="240.567245" style="fill: #9c162a; stroke: #9c162a; stroke-width: 0.9"/>
     <use xlink:href="#m2cb6eb2399" x="498.61632" y="206.729628" style="fill: #9c162a; stroke: #9c162a; stroke-width: 0.9"/>
     <use xlink:href="#m2cb6eb2399" x="560.156561" y="174.521627" style="fill: #9c162a; stroke: #9c162a; stroke-width: 0.9"/>
     <use xlink:href="#m2cb6eb2399" x="610.071077" y="164.823248" style="fill: #9c162a; stroke: #9c162a; stroke-width: 0.9"/>
     <use xlink:href="#m2cb6eb2399" x="678.713175" y="141.528791" style="fill: #9c162a; stroke: #9c162a; stroke-width: 0.9"/>
    </g>
   </g>
   <g id="line2d_65">
    <g clip-path="url(#pc4dc6ecdfc)">
     <use xlink:href="#m2cb6eb2399" x="441.659771" y="226.598187" style="fill: #9c162a; stroke: #9c162a; stroke-width: 0.9"/>
     <use xlink:href="#m2cb6eb2399" x="498.61632" y="193.49327" style="fill: #9c162a; stroke: #9c162a; stroke-width: 0.9"/>
     <use xlink:href="#m2cb6eb2399" x="560.156561" y="160.594626" style="fill: #9c162a; stroke: #9c162a; stroke-width: 0.9"/>
     <use xlink:href="#m2cb6eb2399" x="610.071077" y="150.386575" style="fill: #9c162a; stroke: #9c162a; stroke-width: 0.9"/>
     <use xlink:href="#m2cb6eb2399" x="678.713175" y="128.59596" style="fill: #9c162a; stroke: #9c162a; stroke-width: 0.9"/>
    </g>
   </g>
   <g id="LineCollection_9">
    <path d="M 441.659771 258.741828 
L 441.659771 242.127674 
" clip-path="url(#pc4dc6ecdfc)" style="fill: none; stroke: #23373b; stroke-width: 1.6"/>
    <path d="M 498.61632 215.788369 
L 498.61632 200.25752 
" clip-path="url(#pc4dc6ecdfc)" style="fill: none; stroke: #23373b; stroke-width: 1.6"/>
    <path d="M 560.156561 202.829466 
L 560.156561 185.598062 
" clip-path="url(#pc4dc6ecdfc)" style="fill: none; stroke: #23373b; stroke-width: 1.6"/>
    <path d="M 610.071077 192.305874 
L 610.071077 176.334897 
" clip-path="url(#pc4dc6ecdfc)" style="fill: none; stroke: #23373b; stroke-width: 1.6"/>
    <path d="M 678.713175 166.412952 
L 678.713175 152.426919 
" clip-path="url(#pc4dc6ecdfc)" style="fill: none; stroke: #23373b; stroke-width: 1.6"/>
   </g>
   <g id="line2d_66">
    <g clip-path="url(#pc4dc6ecdfc)">
     <use xlink:href="#mb87566df8b" x="441.659771" y="258.741828" style="fill: #23373b; stroke: #23373b; stroke-width: 0.9"/>
     <use xlink:href="#mb87566df8b" x="498.61632" y="215.788369" style="fill: #23373b; stroke: #23373b; stroke-width: 0.9"/>
     <use xlink:href="#mb87566df8b" x="560.156561" y="202.829466" style="fill: #23373b; stroke: #23373b; stroke-width: 0.9"/>
     <use xlink:href="#mb87566df8b" x="610.071077" y="192.305874" style="fill: #23373b; stroke: #23373b; stroke-width: 0.9"/>
     <use xlink:href="#mb87566df8b" x="678.713175" y="166.412952" style="fill: #23373b; stroke: #23373b; stroke-width: 0.9"/>
    </g>
   </g>
   <g id="line2d_67">
    <g clip-path="url(#pc4dc6ecdfc)">
     <use xlink:href="#mb87566df8b" x="441.659771" y="242.127674" style="fill: #23373b; stroke: #23373b; stroke-width: 0.9"/>
     <use xlink:href="#mb87566df8b" x="498.61632" y="200.25752" style="fill: #23373b; stroke: #23373b; stroke-width: 0.9"/>
     <use xlink:href="#mb87566df8b" x="560.156561" y="185.598062" style="fill: #23373b; stroke: #23373b; stroke-width: 0.9"/>
     <use xlink:href="#mb87566df8b" x="610.071077" y="176.334897" style="fill: #23373b; stroke: #23373b; stroke-width: 0.9"/>
     <use xlink:href="#mb87566df8b" x="678.713175" y="152.426919" style="fill: #23373b; stroke: #23373b; stroke-width: 0.9"/>
    </g>
   </g>
   <g id="line2d_68">
    <g clip-path="url(#pc4dc6ecdfc)">
     <use xlink:href="#mb20333098d" x="441.659771" y="194.7473" style="fill: #3b7ea1; stroke: #ffffff; stroke-width: 0.9"/>
     <use xlink:href="#mb20333098d" x="498.61632" y="151.573093" style="fill: #3b7ea1; stroke: #ffffff; stroke-width: 0.9"/>
     <use xlink:href="#mb20333098d" x="560.156561" y="133.924904" style="fill: #3b7ea1; stroke: #ffffff; stroke-width: 0.9"/>
     <use xlink:href="#mb20333098d" x="610.071077" y="114.309763" style="fill: #3b7ea1; stroke: #ffffff; stroke-width: 0.9"/>
     <use xlink:href="#mb20333098d" x="678.713175" y="69.16049" style="fill: #3b7ea1; stroke: #ffffff; stroke-width: 0.9"/>
    </g>
   </g>
   <g id="line2d_69">
    <g clip-path="url(#pc4dc6ecdfc)">
     <use xlink:href="#m5edcada2b8" x="441.659771" y="233.288247" style="fill: #9c162a; stroke: #ffffff; stroke-width: 0.9"/>
     <use xlink:href="#m5edcada2b8" x="498.61632" y="199.847029" style="fill: #9c162a; stroke: #ffffff; stroke-width: 0.9"/>
     <use xlink:href="#m5edcada2b8" x="560.156561" y="167.265426" style="fill: #9c162a; stroke: #ffffff; stroke-width: 0.9"/>
     <use xlink:href="#m5edcada2b8" x="610.071077" y="157.290423" style="fill: #9c162a; stroke: #ffffff; stroke-width: 0.9"/>
     <use xlink:href="#m5edcada2b8" x="678.713175" y="134.809931" style="fill: #9c162a; stroke: #ffffff; stroke-width: 0.9"/>
    </g>
   </g>
   <g id="line2d_70">
    <g clip-path="url(#pc4dc6ecdfc)">
     <use xlink:href="#mcf9592bfd6" x="441.659771" y="250.018411" style="fill: #23373b; stroke: #ffffff; stroke-width: 0.9"/>
     <use xlink:href="#mcf9592bfd6" x="498.61632" y="207.659051" style="fill: #23373b; stroke: #ffffff; stroke-width: 0.9"/>
     <use xlink:href="#mcf9592bfd6" x="560.156561" y="193.76597" style="fill: #23373b; stroke: #ffffff; stroke-width: 0.9"/>
     <use xlink:href="#mcf9592bfd6" x="610.071077" y="183.935607" style="fill: #23373b; stroke: #ffffff; stroke-width: 0.9"/>
     <use xlink:href="#mcf9592bfd6" x="678.713175" y="159.124751" style="fill: #23373b; stroke: #ffffff; stroke-width: 0.9"/>
    </g>
   </g>
   <g id="legend_2">
    <g id="LineCollection_10">
     <path d="M 411.807049 42.290391 
L 411.807049 29.790391 
" style="fill: none; stroke: #3b7ea1; stroke-width: 1.6"/>
    </g>
    <g id="line2d_71">
     <g>
      <use xlink:href="#md5122581cb" x="411.807049" y="42.290391" style="fill: #3b7ea1; stroke: #3b7ea1; stroke-width: 0.9"/>
     </g>
    </g>
    <g id="line2d_72">
     <g>
      <use xlink:href="#md5122581cb" x="411.807049" y="29.790391" style="fill: #3b7ea1; stroke: #3b7ea1; stroke-width: 0.9"/>
     </g>
    </g>
    <g id="line2d_73"/>
    <g id="line2d_74">
     <g>
      <use xlink:href="#mb20333098d" x="411.807049" y="36.040391" style="fill: #3b7ea1; stroke: #ffffff; stroke-width: 0.9"/>
     </g>
    </g>
    <g id="text_18">
     <!-- $\Lambda/\xi=0.75$:  $z=2.73\pm0.28$ -->
     <g transform="translate(429.932049 40.415391) scale(0.125 -0.125)">
      <defs>
       <path id="FiraSans-Light-33" d="M 1414 4326 
Q 1773 4326 2038 4185 
Q 2304 4045 2445 3805 
Q 2586 3565 2586 3264 
Q 2586 2848 2352 2589 
Q 2118 2330 1747 2266 
Q 2163 2246 2435 1968 
Q 2707 1690 2707 1203 
Q 2707 832 2540 544 
Q 2374 256 2064 93 
Q 1754 -70 1350 -70 
Q 608 -70 128 480 
L 365 691 
Q 582 454 816 348 
Q 1050 243 1338 243 
Q 1798 243 2060 505 
Q 2323 768 2323 1197 
Q 2323 2093 1363 2093 
L 1082 2093 
L 1133 2394 
L 1338 2394 
Q 1702 2394 1958 2614 
Q 2214 2835 2214 3245 
Q 2214 3597 1990 3805 
Q 1766 4013 1395 4013 
Q 1126 4013 902 3920 
Q 678 3827 448 3616 
L 250 3846 
Q 506 4090 787 4208 
Q 1069 4326 1414 4326 
z
" transform="scale(0.015625)"/>
       <path id="FiraSans-Light-38" d="M 2157 2253 
Q 2650 2054 2877 1788 
Q 3104 1523 3104 1107 
Q 3104 755 2928 489 
Q 2752 224 2435 77 
Q 2118 -70 1709 -70 
Q 1299 -70 988 77 
Q 678 224 508 489 
Q 339 755 339 1101 
Q 339 1920 1254 2285 
Q 877 2458 701 2685 
Q 525 2912 525 3264 
Q 525 3590 691 3833 
Q 858 4077 1133 4201 
Q 1408 4326 1722 4326 
Q 2035 4326 2310 4204 
Q 2586 4083 2755 3846 
Q 2925 3610 2925 3270 
Q 2925 2938 2739 2698 
Q 2554 2458 2157 2253 
z
M 896 3258 
Q 896 2950 1072 2771 
Q 1248 2592 1683 2432 
L 1882 2362 
Q 2240 2554 2397 2758 
Q 2554 2963 2554 3258 
Q 2554 3622 2326 3827 
Q 2099 4032 1722 4032 
Q 1357 4032 1126 3827 
Q 896 3622 896 3258 
z
M 1715 243 
Q 2170 243 2442 470 
Q 2714 698 2714 1107 
Q 2714 1363 2618 1532 
Q 2522 1702 2323 1827 
Q 2125 1952 1766 2086 
L 1549 2170 
Q 1120 2003 925 1744 
Q 730 1485 730 1101 
Q 730 691 998 467 
Q 1267 243 1715 243 
z
" transform="scale(0.015625)"/>
      </defs>
      <use xlink:href="#FiraSans-Light-39b" transform="translate(0 0.703125)"/>
      <use xlink:href="#FiraSans-Light-2f" transform="translate(56.499985 0.703125)"/>
      <use xlink:href="#FiraSans-LightItalic-3be" transform="translate(108.499969 0.703125)"/>
      <use xlink:href="#FiraSans-Light-3d" transform="translate(167.579959 0.703125)"/>
      <use xlink:href="#FiraSans-Light-30" transform="translate(233.859946 0.703125)"/>
      <use xlink:href="#FiraSans-Light-2e" transform="translate(288.85993 0.703125)"/>
      <use xlink:href="#FiraSans-Light-37" transform="translate(309.559927 0.703125)"/>
      <use xlink:href="#FiraSans-Light-35" transform="translate(353.259924 0.703125)"/>
      <use xlink:href="#FiraSans-Medium-3a" transform="translate(401.959921 0.703125)"/>
      <use xlink:href="#FiraSans-Medium-20" transform="translate(425.959906 0.703125)"/>
      <use xlink:href="#FiraSans-Medium-20" transform="translate(450.959891 0.703125)"/>
      <use xlink:href="#FiraSans-LightItalic-7a" transform="translate(475.959875 0.703125)"/>
      <use xlink:href="#FiraSans-Light-3d" transform="translate(534.939859 0.703125)"/>
      <use xlink:href="#FiraSans-Light-32" transform="translate(601.219846 0.703125)"/>
      <use xlink:href="#FiraSans-Light-2e" transform="translate(649.119839 0.703125)"/>
      <use xlink:href="#FiraSans-Light-37" transform="translate(669.819836 0.703125)"/>
      <use xlink:href="#FiraSans-Light-33" transform="translate(713.519833 0.703125)"/>
      <use xlink:href="#FiraSans-Light-b1" transform="translate(779.099823 0.703125)"/>
      <use xlink:href="#FiraSans-Light-30" transform="translate(845.37981 0.703125)"/>
      <use xlink:href="#FiraSans-Light-2e" transform="translate(900.379794 0.703125)"/>
      <use xlink:href="#FiraSans-Light-32" transform="translate(921.079791 0.703125)"/>
      <use xlink:href="#FiraSans-Light-38" transform="translate(968.979785 0.703125)"/>
     </g>
    </g>
    <g id="LineCollection_11">
     <path d="M 411.807049 60.040391 
L 411.807049 47.540391 
" style="fill: none; stroke: #9c162a; stroke-width: 1.6"/>
    </g>
    <g id="line2d_75">
     <g>
      <use xlink:href="#m2cb6eb2399" x="411.807049" y="60.040391" style="fill: #9c162a; stroke: #9c162a; stroke-width: 0.9"/>
     </g>
    </g>
    <g id="line2d_76">
     <g>
      <use xlink:href="#m2cb6eb2399" x="411.807049" y="47.540391" style="fill: #9c162a; stroke: #9c162a; stroke-width: 0.9"/>
     </g>
    </g>
    <g id="line2d_77"/>
    <g id="line2d_78">
     <g>
      <use xlink:href="#m5edcada2b8" x="411.807049" y="53.790391" style="fill: #9c162a; stroke: #ffffff; stroke-width: 0.9"/>
     </g>
    </g>
    <g id="text_19">
     <!-- $\Lambda/\xi=1.25$:  $z=2.30\pm0.21$ -->
     <g transform="translate(429.932049 58.165391) scale(0.125 -0.125)">
      <use xlink:href="#FiraSans-Light-39b" transform="translate(0 0.703125)"/>
      <use xlink:href="#FiraSans-Light-2f" transform="translate(56.499985 0.703125)"/>
      <use xlink:href="#FiraSans-LightItalic-3be" transform="translate(108.499969 0.703125)"/>
      <use xlink:href="#FiraSans-Light-3d" transform="translate(167.579959 0.703125)"/>
      <use xlink:href="#FiraSans-Light-31" transform="translate(233.859946 0.703125)"/>
      <use xlink:href="#FiraSans-Light-2e" transform="translate(275.159933 0.703125)"/>
      <use xlink:href="#FiraSans-Light-32" transform="translate(295.85993 0.703125)"/>
      <use xlink:href="#FiraSans-Light-35" transform="translate(343.759924 0.703125)"/>
      <use xlink:href="#FiraSans-Medium-3a" transform="translate(392.459921 0.703125)"/>
      <use xlink:href="#FiraSans-Medium-20" transform="translate(416.459906 0.703125)"/>
      <use xlink:href="#FiraSans-Medium-20" transform="translate(441.459891 0.703125)"/>
      <use xlink:href="#FiraSans-LightItalic-7a" transform="translate(466.459875 0.703125)"/>
      <use xlink:href="#FiraSans-Light-3d" transform="translate(525.439859 0.703125)"/>
      <use xlink:href="#FiraSans-Light-32" transform="translate(591.719846 0.703125)"/>
      <use xlink:href="#FiraSans-Light-2e" transform="translate(639.619839 0.703125)"/>
      <use xlink:href="#FiraSans-Light-33" transform="translate(660.319836 0.703125)"/>
      <use xlink:href="#FiraSans-Light-30" transform="translate(708.919827 0.703125)"/>
      <use xlink:href="#FiraSans-Light-b1" transform="translate(780.899811 0.703125)"/>
      <use xlink:href="#FiraSans-Light-30" transform="translate(847.179797 0.703125)"/>
      <use xlink:href="#FiraSans-Light-2e" transform="translate(902.179782 0.703125)"/>
      <use xlink:href="#FiraSans-Light-32" transform="translate(922.879779 0.703125)"/>
      <use xlink:href="#FiraSans-Light-31" transform="translate(970.779773 0.703125)"/>
     </g>
    </g>
    <g id="LineCollection_12">
     <path d="M 411.807049 77.790391 
L 411.807049 65.290391 
" style="fill: none; stroke: #23373b; stroke-width: 1.6"/>
    </g>
    <g id="line2d_79">
     <g>
      <use xlink:href="#mb87566df8b" x="411.807049" y="77.790391" style="fill: #23373b; stroke: #23373b; stroke-width: 0.9"/>
     </g>
    </g>
    <g id="line2d_80">
     <g>
      <use xlink:href="#mb87566df8b" x="411.807049" y="65.290391" style="fill: #23373b; stroke: #23373b; stroke-width: 0.9"/>
     </g>
    </g>
    <g id="line2d_81"/>
    <g id="line2d_82">
     <g>
      <use xlink:href="#mcf9592bfd6" x="411.807049" y="71.540391" style="fill: #23373b; stroke: #ffffff; stroke-width: 0.9"/>
     </g>
    </g>
    <g id="text_20">
     <!-- $\Lambda/\xi=1.75$:  $z=1.96\pm0.23$ -->
     <g transform="translate(429.932049 75.915391) scale(0.125 -0.125)">
      <use xlink:href="#FiraSans-Light-39b" transform="translate(0 0.703125)"/>
      <use xlink:href="#FiraSans-Light-2f" transform="translate(56.499985 0.703125)"/>
      <use xlink:href="#FiraSans-LightItalic-3be" transform="translate(108.499969 0.703125)"/>
      <use xlink:href="#FiraSans-Light-3d" transform="translate(167.579959 0.703125)"/>
      <use xlink:href="#FiraSans-Light-31" transform="translate(233.859946 0.703125)"/>
      <use xlink:href="#FiraSans-Light-2e" transform="translate(275.159933 0.703125)"/>
      <use xlink:href="#FiraSans-Light-37" transform="translate(295.85993 0.703125)"/>
      <use xlink:href="#FiraSans-Light-35" transform="translate(339.559927 0.703125)"/>
      <use xlink:href="#FiraSans-Medium-3a" transform="translate(388.259924 0.703125)"/>
      <use xlink:href="#FiraSans-Medium-20" transform="translate(412.259909 0.703125)"/>
      <use xlink:href="#FiraSans-Medium-20" transform="translate(437.259894 0.703125)"/>
      <use xlink:href="#FiraSans-LightItalic-7a" transform="translate(462.259879 0.703125)"/>
      <use xlink:href="#FiraSans-Light-3d" transform="translate(521.239862 0.703125)"/>
      <use xlink:href="#FiraSans-Light-31" transform="translate(587.519849 0.703125)"/>
      <use xlink:href="#FiraSans-Light-2e" transform="translate(628.819836 0.703125)"/>
      <use xlink:href="#FiraSans-Light-39" transform="translate(649.519833 0.703125)"/>
      <use xlink:href="#FiraSans-Light-36" transform="translate(701.319821 0.703125)"/>
      <use xlink:href="#FiraSans-Light-b1" transform="translate(770.699814 0.703125)"/>
      <use xlink:href="#FiraSans-Light-30" transform="translate(836.9798 0.703125)"/>
      <use xlink:href="#FiraSans-Light-2e" transform="translate(891.979785 0.703125)"/>
      <use xlink:href="#FiraSans-Light-32" transform="translate(912.679782 0.703125)"/>
      <use xlink:href="#FiraSans-Light-33" transform="translate(960.579776 0.703125)"/>
     </g>
    </g>
   </g>
  </g>
 </g>
 <defs>
  <clipPath id="pbabed5ed5d">
   <rect x="42.57" y="19.14" width="333.201951" height="252.72"/>
  </clipPath>
  <clipPath id="pc4dc6ecdfc">
   <rect x="392.432049" y="19.14" width="333.201951" height="252.72"/>
  </clipPath>
 </defs>
</svg>
