<?xml version="1.0" encoding="utf-8" standalone="no"?>
<!DOCTYPE svg PUBLIC "-//W3C//DTD SVG 1.1//EN"
  "http://www.w3.org/Graphics/SVG/1.1/DTD/svg11.dtd">
<svg xmlns:xlink="http://www.w3.org/1999/xlink" width="770.254453pt" height="276.580805pt" viewBox="0 0 770.254453 276.580805" xmlns="http://www.w3.org/2000/svg" version="1.1">
 <metadata>
  <rdf:RDF xmlns:dc="http://purl.org/dc/elements/1.1/" xmlns:cc="http://creativecommons.org/ns#" xmlns:rdf="http://www.w3.org/1999/02/22-rdf-syntax-ns#">
   <cc:Work>
    <dc:type rdf:resource="http://purl.org/dc/dcmitype/StillImage"/>
    <dc:date>2026-07-19T19:40:24.732293</dc:date>
    <dc:format>image/svg+xml</dc:format>
    <dc:creator>
     <cc:Agent>
      <dc:title>Matplotlib v3.10.8, https://matplotlib.org/</dc:title>
     </cc:Agent>
    </dc:creator>
   </cc:Work>
  </rdf:RDF>
 </metadata>
 <defs>
  <style type="text/css">*{stroke-linejoin: round; stroke-linecap: butt}</style>
 </defs>
 <g id="figure_1">
  <g id="patch_1">
   <path d="M 0 276.580805 
L 770.254453 276.580805 
L 770.254453 0 
L 0 0 
L 0 276.580805 
z
" style="fill: none"/>
  </g>
  <g id="axes_1">
   <g id="patch_2">
    <path d="M 40.174453 243.865102 
L 454.697841 243.865102 
L 454.697841 4.969102 
L 40.174453 4.969102 
L 40.174453 243.865102 
z
" style="fill: none"/>
   </g>
   <g id="patch_3">
    <path d="M 49.12439 243.865102 
L 59.016425 243.865102 
L 59.016425 42.573094 
L 49.12439 42.573094 
z
" clip-path="url(#peb2ef666d1)" style="fill: #8a9aa0"/>
   </g>
   <g id="patch_4">
    <path d="M 72.676855 243.865102 
L 82.568891 243.865102 
L 82.568891 69.117101 
L 72.676855 69.117101 
z
" clip-path="url(#peb2ef666d1)" style="fill: #8a9aa0"/>
   </g>
   <g id="patch_5">
    <path d="M 96.22932 243.865102 
L 106.121356 243.865102 
L 106.121356 59.163097 
L 96.22932 59.163097 
z
" clip-path="url(#peb2ef666d1)" style="fill: #8a9aa0"/>
   </g>
   <g id="patch_6">
    <path d="M 119.781786 243.865102 
L 129.673821 243.865102 
L 129.673821 100.638097 
L 119.781786 100.638097 
z
" clip-path="url(#peb2ef666d1)" style="fill: #8a9aa0"/>
   </g>
   <g id="patch_7">
    <path d="M 143.334251 243.865102 
L 153.226286 243.865102 
L 153.226286 108.933097 
L 143.334251 108.933097 
z
" clip-path="url(#peb2ef666d1)" style="fill: #8a9aa0"/>
   </g>
   <g id="patch_8">
    <path d="M 166.886716 243.865102 
L 176.778751 243.865102 
L 176.778751 125.523096 
L 166.886716 125.523096 
z
" clip-path="url(#peb2ef666d1)" style="fill: #8a9aa0"/>
   </g>
   <g id="patch_9">
    <path d="M 190.439181 243.865102 
L 200.331217 243.865102 
L 200.331217 160.362099 
L 190.439181 160.362099 
z
" clip-path="url(#peb2ef666d1)" style="fill: #8a9aa0"/>
   </g>
   <g id="patch_10">
    <path d="M 213.991647 243.865102 
L 223.883682 243.865102 
L 223.883682 166.445099 
L 213.991647 166.445099 
z
" clip-path="url(#peb2ef666d1)" style="fill: #8a9aa0"/>
   </g>
   <g id="patch_11">
    <path d="M 237.544112 243.865102 
L 247.436147 243.865102 
L 247.436147 189.671099 
L 237.544112 189.671099 
z
" clip-path="url(#peb2ef666d1)" style="fill: #8a9aa0"/>
   </g>
   <g id="patch_12">
    <path d="M 261.096577 243.865102 
L 270.988612 243.865102 
L 270.988612 193.542101 
L 261.096577 193.542101 
z
" clip-path="url(#peb2ef666d1)" style="fill: #8a9aa0"/>
   </g>
   <g id="patch_13">
    <path d="M 284.649042 243.865102 
L 294.541078 243.865102 
L 294.541078 184.694099 
L 284.649042 184.694099 
z
" clip-path="url(#peb2ef666d1)" style="fill: #8a9aa0"/>
   </g>
   <g id="patch_14">
    <path d="M 308.201507 243.865102 
L 318.093543 243.865102 
L 318.093543 147.090099 
L 308.201507 147.090099 
z
" clip-path="url(#peb2ef666d1)" style="fill: #8a9aa0"/>
   </g>
   <g id="patch_15">
    <path d="M 331.753973 243.865102 
L 341.646008 243.865102 
L 341.646008 119.4401 
L 331.753973 119.4401 
z
" clip-path="url(#peb2ef666d1)" style="fill: #8a9aa0"/>
   </g>
   <g id="patch_16">
    <path d="M 355.306438 243.865102 
L 365.198473 243.865102 
L 365.198473 96.214095 
L 355.306438 96.214095 
z
" clip-path="url(#peb2ef666d1)" style="fill: #8a9aa0"/>
   </g>
   <g id="patch_17">
    <path d="M 378.858903 243.865102 
L 388.750939 243.865102 
L 388.750939 77.412097 
L 378.858903 77.412097 
z
" clip-path="url(#peb2ef666d1)" style="fill: #8a9aa0"/>
   </g>
   <g id="patch_18">
    <path d="M 402.411368 243.865102 
L 412.303404 243.865102 
L 412.303404 36.490098 
L 402.411368 36.490098 
z
" clip-path="url(#peb2ef666d1)" style="fill: #8a9aa0"/>
   </g>
   <g id="patch_19">
    <path d="M 425.963834 243.865102 
L 435.855869 243.865102 
L 435.855869 47.550097 
L 425.963834 47.550097 
z
" clip-path="url(#peb2ef666d1)" style="fill: #8a9aa0"/>
   </g>
   <g id="patch_20">
    <path d="M 59.016425 243.865102 
L 68.908461 243.865102 
L 68.908461 104.066698 
L 59.016425 104.066698 
z
" clip-path="url(#peb2ef666d1)" style="fill: #eb811b"/>
   </g>
   <g id="patch_21">
    <path d="M 82.568891 243.865102 
L 92.460926 243.865102 
L 92.460926 114.662176 
L 82.568891 114.662176 
z
" clip-path="url(#peb2ef666d1)" style="fill: #eb811b"/>
   </g>
   <g id="patch_22">
    <path d="M 106.121356 243.865102 
L 116.013391 243.865102 
L 116.013391 119.539636 
L 106.121356 119.539636 
z
" clip-path="url(#peb2ef666d1)" style="fill: #eb811b"/>
   </g>
   <g id="patch_23">
    <path d="M 129.673821 243.865102 
L 139.565856 243.865102 
L 139.565856 144.33616 
L 129.673821 144.33616 
z
" clip-path="url(#peb2ef666d1)" style="fill: #eb811b"/>
   </g>
   <g id="patch_24">
    <path d="M 153.226286 243.865102 
L 163.118322 243.865102 
L 163.118322 130.876138 
L 153.226286 130.876138 
z
" clip-path="url(#peb2ef666d1)" style="fill: #eb811b"/>
   </g>
   <g id="patch_25">
    <path d="M 176.778751 243.865102 
L 186.670787 243.865102 
L 186.670787 125.235538 
L 176.778751 125.235538 
z
" clip-path="url(#peb2ef666d1)" style="fill: #eb811b"/>
   </g>
   <g id="patch_26">
    <path d="M 200.331217 243.865102 
L 210.223252 243.865102 
L 210.223252 127.694179 
L 200.331217 127.694179 
z
" clip-path="url(#peb2ef666d1)" style="fill: #eb811b"/>
   </g>
   <g id="patch_27">
    <path d="M 223.883682 243.865102 
L 233.775717 243.865102 
L 233.775717 111.808696 
L 223.883682 111.808696 
z
" clip-path="url(#peb2ef666d1)" style="fill: #eb811b"/>
   </g>
   <g id="patch_28">
    <path d="M 247.436147 243.865102 
L 257.328183 243.865102 
L 257.328183 124.140598 
L 247.436147 124.140598 
z
" clip-path="url(#peb2ef666d1)" style="fill: #eb811b"/>
   </g>
   <g id="patch_29">
    <path d="M 270.988612 243.865102 
L 280.880648 243.865102 
L 280.880648 130.443695 
L 270.988612 130.443695 
z
" clip-path="url(#peb2ef666d1)" style="fill: #eb811b"/>
   </g>
   <g id="patch_30">
    <path d="M 294.541078 243.865102 
L 304.433113 243.865102 
L 304.433113 118.146076 
L 294.541078 118.146076 
z
" clip-path="url(#peb2ef666d1)" style="fill: #eb811b"/>
   </g>
   <g id="patch_31">
    <path d="M 318.093543 243.865102 
L 327.985578 243.865102 
L 327.985578 119.81614 
L 318.093543 119.81614 
z
" clip-path="url(#peb2ef666d1)" style="fill: #eb811b"/>
   </g>
   <g id="patch_32">
    <path d="M 341.646008 243.865102 
L 351.538044 243.865102 
L 351.538044 123.974698 
L 341.646008 123.974698 
z
" clip-path="url(#peb2ef666d1)" style="fill: #eb811b"/>
   </g>
   <g id="patch_33">
    <path d="M 365.198473 243.865102 
L 375.090509 243.865102 
L 375.090509 121.099102 
L 365.198473 121.099102 
z
" clip-path="url(#peb2ef666d1)" style="fill: #eb811b"/>
   </g>
   <g id="patch_34">
    <path d="M 388.750939 243.865102 
L 398.642974 243.865102 
L 398.642974 131.29642 
L 388.750939 131.29642 
z
" clip-path="url(#peb2ef666d1)" style="fill: #eb811b"/>
   </g>
   <g id="patch_35">
    <path d="M 412.303404 243.865102 
L 422.195439 243.865102 
L 422.195439 115.513798 
L 412.303404 115.513798 
z
" clip-path="url(#peb2ef666d1)" style="fill: #eb811b"/>
   </g>
   <g id="patch_36">
    <path d="M 435.855869 243.865102 
L 445.747904 243.865102 
L 445.747904 102.540418 
L 435.855869 102.540418 
z
" clip-path="url(#peb2ef666d1)" style="fill: #eb811b"/>
   </g>
   <g id="matplotlib.axis_1">
    <g id="xtick_1">
     <g id="line2d_1">
      <defs>
       <path id="m4fdcc73fa6" d="M 0 0 
L 0 3 
" style="stroke: #33474b; stroke-width: 0.8"/>
      </defs>
      <g>
       <use xlink:href="#m4fdcc73fa6" x="59.016425" y="243.865102" style="fill: #33474b; stroke: #33474b; stroke-width: 0.8"/>
      </g>
     </g>
     <g id="text_1">
      <!-- 0 -->
      <g style="fill: #33474b" transform="translate(56.403925 257.423305) scale(0.095 -0.095)">
       <defs>
        <path id="FiraSans-Light-30" d="M 1760 4326 
Q 2419 4326 2758 3766 
Q 3098 3206 3098 2125 
Q 3098 1050 2755 490 
Q 2413 -70 1760 -70 
Q 1101 -70 761 490 
Q 422 1050 422 2131 
Q 422 3213 761 3769 
Q 1101 4326 1760 4326 
z
M 1760 4019 
Q 806 4019 806 2131 
Q 806 237 1760 237 
Q 2227 237 2467 697 
Q 2707 1158 2707 2125 
Q 2707 3091 2467 3555 
Q 2227 4019 1760 4019 
z
" transform="scale(0.015625)"/>
       </defs>
       <use xlink:href="#FiraSans-Light-30"/>
      </g>
     </g>
    </g>
    <g id="xtick_2">
     <g id="line2d_2">
      <g>
       <use xlink:href="#m4fdcc73fa6" x="106.121356" y="243.865102" style="fill: #33474b; stroke: #33474b; stroke-width: 0.8"/>
      </g>
     </g>
     <g id="text_2">
      <!-- 2 -->
      <g style="fill: #33474b" transform="translate(103.845809 257.423305) scale(0.095 -0.095)">
       <defs>
        <path id="FiraSans-Light-32" d="M 1440 4326 
Q 1978 4326 2294 4012 
Q 2611 3699 2611 3206 
Q 2611 2790 2438 2425 
Q 2266 2061 1898 1625 
Q 1530 1190 710 326 
L 2726 326 
L 2675 0 
L 275 0 
L 275 314 
Q 1152 1248 1533 1699 
Q 1914 2150 2070 2480 
Q 2227 2810 2227 3187 
Q 2227 3565 2006 3789 
Q 1786 4013 1421 4013 
Q 1126 4013 899 3891 
Q 672 3770 467 3526 
L 211 3718 
Q 467 4032 764 4179 
Q 1062 4326 1440 4326 
z
" transform="scale(0.015625)"/>
       </defs>
       <use xlink:href="#FiraSans-Light-32"/>
      </g>
     </g>
    </g>
    <g id="xtick_3">
     <g id="line2d_3">
      <g>
       <use xlink:href="#m4fdcc73fa6" x="153.226286" y="243.865102" style="fill: #33474b; stroke: #33474b; stroke-width: 0.8"/>
      </g>
     </g>
     <g id="text_3">
      <!-- 4 -->
      <g style="fill: #33474b" transform="translate(150.765935 257.423305) scale(0.095 -0.095)">
       <defs>
        <path id="FiraSans-Light-34" d="M 3091 1427 
L 3091 1120 
L 2515 1120 
L 2515 0 
L 2150 0 
L 2150 1120 
L 288 1120 
L 288 1395 
L 1587 4326 
L 1901 4198 
L 685 1427 
L 2150 1427 
L 2195 2675 
L 2515 2675 
L 2515 1427 
L 3091 1427 
z
" transform="scale(0.015625)"/>
       </defs>
       <use xlink:href="#FiraSans-Light-34"/>
      </g>
     </g>
    </g>
    <g id="xtick_4">
     <g id="line2d_4">
      <g>
       <use xlink:href="#m4fdcc73fa6" x="200.331217" y="243.865102" style="fill: #33474b; stroke: #33474b; stroke-width: 0.8"/>
      </g>
     </g>
     <g id="text_4">
      <!-- 6 -->
      <g style="fill: #33474b" transform="translate(197.84192 257.423305) scale(0.095 -0.095)">
       <defs>
        <path id="FiraSans-Light-36" d="M 1894 2771 
Q 2387 2771 2707 2428 
Q 3027 2086 3027 1434 
Q 3027 979 2864 636 
Q 2701 294 2416 112 
Q 2131 -70 1773 -70 
Q 1069 -70 745 470 
Q 422 1011 422 1920 
Q 422 2656 608 3200 
Q 794 3744 1139 4035 
Q 1485 4326 1958 4326 
Q 2387 4326 2752 4077 
L 2592 3821 
Q 2285 4019 1952 4019 
Q 1434 4019 1126 3500 
Q 819 2982 800 2144 
Q 1229 2771 1894 2771 
z
M 1773 237 
Q 2195 237 2422 560 
Q 2650 883 2650 1421 
Q 2650 1952 2429 2208 
Q 2208 2464 1843 2464 
Q 1523 2464 1257 2275 
Q 992 2086 800 1760 
Q 819 1018 1049 627 
Q 1280 237 1773 237 
z
" transform="scale(0.015625)"/>
       </defs>
       <use xlink:href="#FiraSans-Light-36"/>
      </g>
     </g>
    </g>
    <g id="xtick_5">
     <g id="line2d_5">
      <g>
       <use xlink:href="#m4fdcc73fa6" x="247.436147" y="243.865102" style="fill: #33474b; stroke: #33474b; stroke-width: 0.8"/>
      </g>
     </g>
     <g id="text_5">
      <!-- 8 -->
      <g style="fill: #33474b" transform="translate(244.880796 257.423305) scale(0.095 -0.095)">
       <defs>
        <path id="FiraSans-Light-38" d="M 2157 2253 
Q 2650 2054 2877 1788 
Q 3104 1523 3104 1107 
Q 3104 755 2928 489 
Q 2752 224 2435 77 
Q 2118 -70 1709 -70 
Q 1299 -70 988 77 
Q 678 224 508 489 
Q 339 755 339 1101 
Q 339 1920 1254 2285 
Q 877 2458 701 2685 
Q 525 2912 525 3264 
Q 525 3590 691 3833 
Q 858 4077 1133 4201 
Q 1408 4326 1722 4326 
Q 2035 4326 2310 4204 
Q 2586 4083 2755 3846 
Q 2925 3610 2925 3270 
Q 2925 2938 2739 2698 
Q 2554 2458 2157 2253 
z
M 896 3258 
Q 896 2950 1072 2771 
Q 1248 2592 1683 2432 
L 1882 2362 
Q 2240 2554 2397 2758 
Q 2554 2963 2554 3258 
Q 2554 3622 2326 3827 
Q 2099 4032 1722 4032 
Q 1357 4032 1126 3827 
Q 896 3622 896 3258 
z
M 1715 243 
Q 2170 243 2442 470 
Q 2714 698 2714 1107 
Q 2714 1363 2618 1532 
Q 2522 1702 2323 1827 
Q 2125 1952 1766 2086 
L 1549 2170 
Q 1120 2003 925 1744 
Q 730 1485 730 1101 
Q 730 691 998 467 
Q 1267 243 1715 243 
z
" transform="scale(0.015625)"/>
       </defs>
       <use xlink:href="#FiraSans-Light-38"/>
      </g>
     </g>
    </g>
    <g id="xtick_6">
     <g id="line2d_6">
      <g>
       <use xlink:href="#m4fdcc73fa6" x="294.541078" y="243.865102" style="fill: #33474b; stroke: #33474b; stroke-width: 0.8"/>
      </g>
     </g>
     <g id="text_6">
      <!-- 10 -->
      <g style="fill: #33474b" transform="translate(289.966976 257.423305) scale(0.095 -0.095)">
       <defs>
        <path id="FiraSans-Light-31" d="M 1869 4256 
L 1869 0 
L 1498 0 
L 1498 3846 
L 448 3194 
L 275 3469 
L 1549 4256 
L 1869 4256 
z
" transform="scale(0.015625)"/>
       </defs>
       <use xlink:href="#FiraSans-Light-31"/>
       <use xlink:href="#FiraSans-Light-30" transform="translate(41.299988 0)"/>
      </g>
     </g>
    </g>
    <g id="xtick_7">
     <g id="line2d_7">
      <g>
       <use xlink:href="#m4fdcc73fa6" x="341.646008" y="243.865102" style="fill: #33474b; stroke: #33474b; stroke-width: 0.8"/>
      </g>
     </g>
     <g id="text_7">
      <!-- 12 -->
      <g style="fill: #33474b" transform="translate(337.40886 257.423305) scale(0.095 -0.095)">
       <use xlink:href="#FiraSans-Light-31"/>
       <use xlink:href="#FiraSans-Light-32" transform="translate(41.299988 0)"/>
      </g>
     </g>
    </g>
    <g id="xtick_8">
     <g id="line2d_8">
      <g>
       <use xlink:href="#m4fdcc73fa6" x="388.750939" y="243.865102" style="fill: #33474b; stroke: #33474b; stroke-width: 0.8"/>
      </g>
     </g>
     <g id="text_8">
      <!-- 14 -->
      <g style="fill: #33474b" transform="translate(384.328985 257.423305) scale(0.095 -0.095)">
       <use xlink:href="#FiraSans-Light-31"/>
       <use xlink:href="#FiraSans-Light-34" transform="translate(41.299988 0)"/>
      </g>
     </g>
    </g>
    <g id="xtick_9">
     <g id="line2d_9">
      <g>
       <use xlink:href="#m4fdcc73fa6" x="435.855869" y="243.865102" style="fill: #33474b; stroke: #33474b; stroke-width: 0.8"/>
      </g>
     </g>
     <g id="text_9">
      <!-- 16 -->
      <g style="fill: #33474b" transform="translate(431.404971 257.423305) scale(0.095 -0.095)">
       <use xlink:href="#FiraSans-Light-31"/>
       <use xlink:href="#FiraSans-Light-36" transform="translate(41.299988 0)"/>
      </g>
     </g>
    </g>
    <g id="text_10">
     <!-- swap pair  $i$  (between $i$ and $i{+}1$) -->
     <g style="fill: #33474b" transform="translate(169.171147 272.720805) scale(0.11 -0.11)">
      <defs>
       <path id="FiraSans-Regular-73" d="M 1523 3450 
Q 1869 3450 2144 3354 
Q 2419 3258 2669 3066 
L 2419 2694 
Q 2189 2842 1981 2912 
Q 1773 2982 1542 2982 
Q 1254 2982 1088 2864 
Q 922 2746 922 2541 
Q 922 2336 1078 2221 
Q 1235 2106 1645 1997 
Q 2208 1856 2486 1613 
Q 2765 1370 2765 947 
Q 2765 448 2377 185 
Q 1990 -77 1434 -77 
Q 666 -77 160 365 
L 474 723 
Q 902 397 1421 397 
Q 1754 397 1949 534 
Q 2144 672 2144 909 
Q 2144 1082 2073 1187 
Q 2003 1293 1830 1373 
Q 1658 1453 1325 1542 
Q 787 1683 547 1920 
Q 307 2157 307 2522 
Q 307 2784 464 2998 
Q 621 3213 899 3331 
Q 1178 3450 1523 3450 
z
" transform="scale(0.015625)"/>
       <path id="FiraSans-Regular-77" d="M 4461 3373 
L 3693 0 
L 2893 0 
L 2304 2842 
L 1696 0 
L 915 0 
L 128 3373 
L 717 3373 
L 1325 410 
L 1990 3373 
L 2650 3373 
L 3283 410 
L 3898 3373 
L 4461 3373 
z
" transform="scale(0.015625)"/>
       <path id="FiraSans-Regular-61" d="M 2880 787 
Q 2880 582 2950 483 
Q 3021 384 3162 333 
L 3027 -77 
Q 2765 -45 2605 70 
Q 2445 186 2368 429 
Q 2029 -77 1363 -77 
Q 864 -77 576 204 
Q 288 486 288 941 
Q 288 1478 675 1766 
Q 1062 2054 1773 2054 
L 2291 2054 
L 2291 2304 
Q 2291 2662 2118 2816 
Q 1946 2970 1587 2970 
Q 1216 2970 678 2790 
L 531 3219 
Q 1158 3450 1696 3450 
Q 2291 3450 2585 3158 
Q 2880 2867 2880 2330 
L 2880 787 
z
M 1498 365 
Q 2003 365 2291 890 
L 2291 1664 
L 1850 1664 
Q 915 1664 915 973 
Q 915 672 1062 518 
Q 1210 365 1498 365 
z
" transform="scale(0.015625)"/>
       <path id="FiraSans-Regular-70" d="M 2157 3450 
Q 2803 3450 3104 2989 
Q 3405 2528 3405 1690 
Q 3405 896 3059 409 
Q 2714 -77 2080 -77 
Q 1517 -77 1197 307 
L 1197 -1293 
L 608 -1363 
L 608 3373 
L 1114 3373 
L 1158 2918 
Q 1344 3174 1606 3312 
Q 1869 3450 2157 3450 
z
M 1939 403 
Q 2771 403 2771 1690 
Q 2771 2982 2010 2982 
Q 1760 2982 1555 2835 
Q 1350 2688 1197 2458 
L 1197 813 
Q 1325 614 1517 508 
Q 1709 403 1939 403 
z
" transform="scale(0.015625)"/>
       <path id="FiraSans-Regular-20" transform="scale(0.015625)"/>
       <path id="FiraSans-Regular-69" d="M 1197 3373 
L 1197 0 
L 608 0 
L 608 3373 
L 1197 3373 
z
M 896 4992 
Q 1082 4992 1197 4877 
Q 1312 4762 1312 4589 
Q 1312 4416 1197 4304 
Q 1082 4192 896 4192 
Q 717 4192 601 4304 
Q 486 4416 486 4589 
Q 486 4762 601 4877 
Q 717 4992 896 4992 
z
" transform="scale(0.015625)"/>
       <path id="FiraSans-Regular-72" d="M 2074 3450 
Q 2253 3450 2406 3411 
L 2298 2835 
Q 2144 2874 2003 2874 
Q 1690 2874 1498 2643 
Q 1306 2413 1197 1926 
L 1197 0 
L 608 0 
L 608 3373 
L 1114 3373 
L 1171 2688 
Q 1306 3066 1536 3258 
Q 1766 3450 2074 3450 
z
" transform="scale(0.015625)"/>
       <path id="FiraSans-LightItalic-69" d="M 1280 3347 
L 806 0 
L 435 0 
L 909 3347 
L 1280 3347 
z
M 1242 4282 
Q 1126 4282 1056 4349 
Q 986 4416 986 4525 
Q 986 4653 1072 4736 
Q 1158 4819 1286 4819 
Q 1402 4819 1472 4752 
Q 1542 4685 1542 4576 
Q 1542 4448 1456 4365 
Q 1370 4282 1242 4282 
z
" transform="scale(0.015625)"/>
       <path id="FiraSans-Regular-28" d="M 1818 5152 
Q 1485 4659 1289 4272 
Q 1094 3885 982 3392 
Q 870 2899 870 2240 
Q 870 1587 982 1094 
Q 1094 602 1289 208 
Q 1485 -186 1818 -672 
L 1446 -928 
Q 1024 -326 797 61 
Q 570 448 413 989 
Q 256 1530 256 2240 
Q 256 2950 413 3491 
Q 570 4032 797 4419 
Q 1024 4806 1446 5408 
L 1818 5152 
z
" transform="scale(0.015625)"/>
       <path id="FiraSans-Regular-62" d="M 2150 3450 
Q 2726 3450 3065 2986 
Q 3405 2522 3405 1690 
Q 3405 1165 3245 765 
Q 3085 365 2784 144 
Q 2483 -77 2080 -77 
Q 1549 -77 1184 371 
L 1126 0 
L 608 0 
L 608 4730 
L 1197 4800 
L 1197 2950 
Q 1562 3450 2150 3450 
z
M 1939 390 
Q 2330 390 2550 707 
Q 2771 1024 2771 1690 
Q 2771 2374 2566 2678 
Q 2362 2982 1984 2982 
Q 1536 2982 1197 2458 
L 1197 845 
Q 1331 634 1526 512 
Q 1722 390 1939 390 
z
" transform="scale(0.015625)"/>
       <path id="FiraSans-Regular-65" d="M 3155 1786 
Q 3155 1638 3142 1485 
L 992 1485 
Q 1030 928 1273 665 
Q 1517 403 1901 403 
Q 2144 403 2349 473 
Q 2554 544 2778 698 
L 3034 346 
Q 2496 -77 1856 -77 
Q 1152 -77 758 384 
Q 365 845 365 1651 
Q 365 2176 534 2582 
Q 704 2989 1021 3219 
Q 1338 3450 1766 3450 
Q 2438 3450 2796 3008 
Q 3155 2566 3155 1786 
z
M 2573 1958 
Q 2573 2458 2374 2720 
Q 2176 2982 1779 2982 
Q 1056 2982 992 1920 
L 2573 1920 
L 2573 1958 
z
" transform="scale(0.015625)"/>
       <path id="FiraSans-Regular-74" d="M 2310 154 
Q 1978 -77 1555 -77 
Q 1126 -77 886 169 
Q 646 416 646 883 
L 646 2918 
L 58 2918 
L 58 3373 
L 646 3373 
L 646 4134 
L 1235 4205 
L 1235 3373 
L 2035 3373 
L 1971 2918 
L 1235 2918 
L 1235 909 
Q 1235 646 1328 528 
Q 1421 410 1638 410 
Q 1837 410 2086 544 
L 2310 154 
z
" transform="scale(0.015625)"/>
       <path id="FiraSans-Regular-6e" d="M 2195 3450 
Q 2656 3450 2915 3174 
Q 3174 2899 3174 2419 
L 3174 0 
L 2586 0 
L 2586 2336 
Q 2586 2694 2451 2841 
Q 2317 2989 2054 2989 
Q 1786 2989 1581 2835 
Q 1376 2682 1197 2394 
L 1197 0 
L 608 0 
L 608 3373 
L 1114 3373 
L 1165 2874 
Q 1344 3142 1609 3296 
Q 1875 3450 2195 3450 
z
" transform="scale(0.015625)"/>
       <path id="FiraSans-Regular-64" d="M 3219 4730 
L 3219 0 
L 2701 0 
L 2643 467 
Q 2477 211 2227 67 
Q 1978 -77 1670 -77 
Q 1069 -77 733 396 
Q 397 870 397 1670 
Q 397 2189 557 2592 
Q 717 2995 1017 3222 
Q 1318 3450 1722 3450 
Q 2240 3450 2630 3034 
L 2630 4800 
L 3219 4730 
z
M 1798 390 
Q 2067 390 2259 515 
Q 2451 640 2630 890 
L 2630 2541 
Q 2464 2758 2275 2870 
Q 2086 2982 1850 2982 
Q 1459 2982 1244 2656 
Q 1030 2330 1030 1683 
Q 1030 1030 1228 710 
Q 1427 390 1798 390 
z
" transform="scale(0.015625)"/>
       <path id="FiraSans-Light-2b" d="M 1754 3251 
L 1754 2278 
L 2714 2278 
L 2714 1958 
L 1754 1958 
L 1754 986 
L 1402 986 
L 1402 1958 
L 442 1958 
L 442 2278 
L 1402 2278 
L 1402 3251 
L 1754 3251 
z
" transform="scale(0.015625)"/>
       <path id="FiraSans-Regular-29" d="M 627 5408 
Q 1050 4806 1277 4419 
Q 1504 4032 1661 3491 
Q 1818 2950 1818 2240 
Q 1818 1530 1661 989 
Q 1504 448 1277 61 
Q 1050 -326 627 -928 
L 256 -672 
Q 589 -186 784 208 
Q 979 602 1091 1094 
Q 1203 1587 1203 2240 
Q 1203 2899 1091 3392 
Q 979 3885 784 4272 
Q 589 4659 256 5152 
L 627 5408 
z
" transform="scale(0.015625)"/>
      </defs>
      <use xlink:href="#FiraSans-Regular-73" transform="translate(0 0.5)"/>
      <use xlink:href="#FiraSans-Regular-77" transform="translate(46.699997 0.5)"/>
      <use xlink:href="#FiraSans-Regular-61" transform="translate(118.399979 0.5)"/>
      <use xlink:href="#FiraSans-Regular-70" transform="translate(172.799973 0.5)"/>
      <use xlink:href="#FiraSans-Regular-20" transform="translate(232.199966 0.5)"/>
      <use xlink:href="#FiraSans-Regular-70" transform="translate(258.699951 0.5)"/>
      <use xlink:href="#FiraSans-Regular-61" transform="translate(318.099945 0.5)"/>
      <use xlink:href="#FiraSans-Regular-69" transform="translate(372.499939 0.5)"/>
      <use xlink:href="#FiraSans-Regular-72" transform="translate(400.699936 0.5)"/>
      <use xlink:href="#FiraSans-Regular-20" transform="translate(439.299927 0.5)"/>
      <use xlink:href="#FiraSans-Regular-20" transform="translate(465.799911 0.5)"/>
      <use xlink:href="#FiraSans-LightItalic-69" transform="translate(492.299896 0.5)"/>
      <use xlink:href="#FiraSans-Regular-20" transform="translate(519.19989 0.5)"/>
      <use xlink:href="#FiraSans-Regular-20" transform="translate(545.699875 0.5)"/>
      <use xlink:href="#FiraSans-Regular-28" transform="translate(572.19986 0.5)"/>
      <use xlink:href="#FiraSans-Regular-62" transform="translate(604.599854 0.5)"/>
      <use xlink:href="#FiraSans-Regular-65" transform="translate(663.999847 0.5)"/>
      <use xlink:href="#FiraSans-Regular-74" transform="translate(718.499832 0.5)"/>
      <use xlink:href="#FiraSans-Regular-77" transform="translate(754.599823 0.5)"/>
      <use xlink:href="#FiraSans-Regular-65" transform="translate(826.299805 0.5)"/>
      <use xlink:href="#FiraSans-Regular-65" transform="translate(880.799789 0.5)"/>
      <use xlink:href="#FiraSans-Regular-6e" transform="translate(935.299774 0.5)"/>
      <use xlink:href="#FiraSans-Regular-20" transform="translate(993.899765 0.5)"/>
      <use xlink:href="#FiraSans-LightItalic-69" transform="translate(1020.39975 0.5)"/>
      <use xlink:href="#FiraSans-Regular-20" transform="translate(1047.299744 0.5)"/>
      <use xlink:href="#FiraSans-Regular-61" transform="translate(1073.799728 0.5)"/>
      <use xlink:href="#FiraSans-Regular-6e" transform="translate(1128.199722 0.5)"/>
      <use xlink:href="#FiraSans-Regular-64" transform="translate(1186.799713 0.5)"/>
      <use xlink:href="#FiraSans-Regular-20" transform="translate(1246.599701 0.5)"/>
      <use xlink:href="#FiraSans-LightItalic-69" transform="translate(1273.099686 0.5)"/>
      <use xlink:href="#FiraSans-Light-2b" transform="translate(1299.99968 0.5)"/>
      <use xlink:href="#FiraSans-Light-31" transform="translate(1349.299667 0.5)"/>
      <use xlink:href="#FiraSans-Regular-29" transform="translate(1390.599655 0.5)"/>
     </g>
    </g>
   </g>
   <g id="matplotlib.axis_2">
    <g id="ytick_1">
     <g id="line2d_10">
      <defs>
       <path id="me039c68cc8" d="M 0 0 
L -3 0 
" style="stroke: #33474b; stroke-width: 0.8"/>
      </defs>
      <g>
       <use xlink:href="#me039c68cc8" x="40.174453" y="243.865102" style="fill: #33474b; stroke: #33474b; stroke-width: 0.8"/>
      </g>
     </g>
     <g id="text_11">
      <!-- 0.00 -->
      <g style="fill: #33474b" transform="translate(16.032656 247.394203) scale(0.095 -0.095)">
       <defs>
        <path id="FiraSans-Light-2e" d="M 659 538 
Q 794 538 880 451 
Q 966 365 966 237 
Q 966 102 880 16 
Q 794 -70 659 -70 
Q 531 -70 441 19 
Q 352 109 352 237 
Q 352 365 441 451 
Q 531 538 659 538 
z
" transform="scale(0.015625)"/>
       </defs>
       <use xlink:href="#FiraSans-Light-30"/>
       <use xlink:href="#FiraSans-Light-2e" transform="translate(54.999985 0)"/>
       <use xlink:href="#FiraSans-Light-30" transform="translate(75.699982 0)"/>
       <use xlink:href="#FiraSans-Light-30" transform="translate(130.699966 0)"/>
      </g>
     </g>
    </g>
    <g id="ytick_2">
     <g id="line2d_11">
      <g>
       <use xlink:href="#me039c68cc8" x="40.174453" y="217.321102" style="fill: #33474b; stroke: #33474b; stroke-width: 0.8"/>
      </g>
     </g>
     <g id="text_12">
      <!-- 0.05 -->
      <g style="fill: #33474b" transform="translate(16.630859 220.850203) scale(0.095 -0.095)">
       <defs>
        <path id="FiraSans-Light-35" d="M 2592 3949 
L 864 3949 
L 864 2496 
Q 1216 2694 1594 2694 
Q 2144 2694 2467 2339 
Q 2790 1984 2790 1370 
Q 2790 954 2620 624 
Q 2451 294 2140 112 
Q 1830 -70 1421 -70 
Q 710 -70 218 442 
L 448 666 
Q 653 448 883 345 
Q 1114 243 1421 243 
Q 1875 243 2137 547 
Q 2400 851 2400 1376 
Q 2400 1888 2160 2141 
Q 1920 2394 1510 2394 
Q 1306 2394 1149 2346 
Q 992 2298 800 2189 
L 506 2189 
L 506 4256 
L 2650 4256 
L 2592 3949 
z
" transform="scale(0.015625)"/>
       </defs>
       <use xlink:href="#FiraSans-Light-30"/>
       <use xlink:href="#FiraSans-Light-2e" transform="translate(54.999985 0)"/>
       <use xlink:href="#FiraSans-Light-30" transform="translate(75.699982 0)"/>
       <use xlink:href="#FiraSans-Light-35" transform="translate(130.699966 0)"/>
      </g>
     </g>
    </g>
    <g id="ytick_3">
     <g id="line2d_12">
      <g>
       <use xlink:href="#me039c68cc8" x="40.174453" y="190.777102" style="fill: #33474b; stroke: #33474b; stroke-width: 0.8"/>
      </g>
     </g>
     <g id="text_13">
      <!-- 0.10 -->
      <g style="fill: #33474b" transform="translate(17.334453 194.306203) scale(0.095 -0.095)">
       <use xlink:href="#FiraSans-Light-30"/>
       <use xlink:href="#FiraSans-Light-2e" transform="translate(54.999985 0)"/>
       <use xlink:href="#FiraSans-Light-31" transform="translate(75.699982 0)"/>
       <use xlink:href="#FiraSans-Light-30" transform="translate(116.999969 0)"/>
      </g>
     </g>
    </g>
    <g id="ytick_4">
     <g id="line2d_13">
      <g>
       <use xlink:href="#me039c68cc8" x="40.174453" y="164.233102" style="fill: #33474b; stroke: #33474b; stroke-width: 0.8"/>
      </g>
     </g>
     <g id="text_14">
      <!-- 0.15 -->
      <g style="fill: #33474b" transform="translate(17.932656 167.762203) scale(0.095 -0.095)">
       <use xlink:href="#FiraSans-Light-30"/>
       <use xlink:href="#FiraSans-Light-2e" transform="translate(54.999985 0)"/>
       <use xlink:href="#FiraSans-Light-31" transform="translate(75.699982 0)"/>
       <use xlink:href="#FiraSans-Light-35" transform="translate(116.999969 0)"/>
      </g>
     </g>
    </g>
    <g id="ytick_5">
     <g id="line2d_14">
      <g>
       <use xlink:href="#me039c68cc8" x="40.174453" y="137.689102" style="fill: #33474b; stroke: #33474b; stroke-width: 0.8"/>
      </g>
     </g>
     <g id="text_15">
      <!-- 0.20 -->
      <g style="fill: #33474b" transform="translate(16.706563 141.218203) scale(0.095 -0.095)">
       <use xlink:href="#FiraSans-Light-30"/>
       <use xlink:href="#FiraSans-Light-2e" transform="translate(54.999985 0)"/>
       <use xlink:href="#FiraSans-Light-32" transform="translate(75.699982 0)"/>
       <use xlink:href="#FiraSans-Light-30" transform="translate(123.599976 0)"/>
      </g>
     </g>
    </g>
    <g id="ytick_6">
     <g id="line2d_15">
      <g>
       <use xlink:href="#me039c68cc8" x="40.174453" y="111.145102" style="fill: #33474b; stroke: #33474b; stroke-width: 0.8"/>
      </g>
     </g>
     <g id="text_16">
      <!-- 0.25 -->
      <g style="fill: #33474b" transform="translate(17.304766 114.674203) scale(0.095 -0.095)">
       <use xlink:href="#FiraSans-Light-30"/>
       <use xlink:href="#FiraSans-Light-2e" transform="translate(54.999985 0)"/>
       <use xlink:href="#FiraSans-Light-32" transform="translate(75.699982 0)"/>
       <use xlink:href="#FiraSans-Light-35" transform="translate(123.599976 0)"/>
      </g>
     </g>
    </g>
    <g id="ytick_7">
     <g id="line2d_16">
      <g>
       <use xlink:href="#me039c68cc8" x="40.174453" y="84.601102" style="fill: #33474b; stroke: #33474b; stroke-width: 0.8"/>
      </g>
     </g>
     <g id="text_17">
      <!-- 0.30 -->
      <g style="fill: #33474b" transform="translate(16.64125 88.130203) scale(0.095 -0.095)">
       <defs>
        <path id="FiraSans-Light-33" d="M 1414 4326 
Q 1773 4326 2038 4185 
Q 2304 4045 2445 3805 
Q 2586 3565 2586 3264 
Q 2586 2848 2352 2589 
Q 2118 2330 1747 2266 
Q 2163 2246 2435 1968 
Q 2707 1690 2707 1203 
Q 2707 832 2540 544 
Q 2374 256 2064 93 
Q 1754 -70 1350 -70 
Q 608 -70 128 480 
L 365 691 
Q 582 454 816 348 
Q 1050 243 1338 243 
Q 1798 243 2060 505 
Q 2323 768 2323 1197 
Q 2323 2093 1363 2093 
L 1082 2093 
L 1133 2394 
L 1338 2394 
Q 1702 2394 1958 2614 
Q 2214 2835 2214 3245 
Q 2214 3597 1990 3805 
Q 1766 4013 1395 4013 
Q 1126 4013 902 3920 
Q 678 3827 448 3616 
L 250 3846 
Q 506 4090 787 4208 
Q 1069 4326 1414 4326 
z
" transform="scale(0.015625)"/>
       </defs>
       <use xlink:href="#FiraSans-Light-30"/>
       <use xlink:href="#FiraSans-Light-2e" transform="translate(54.999985 0)"/>
       <use xlink:href="#FiraSans-Light-33" transform="translate(75.699982 0)"/>
       <use xlink:href="#FiraSans-Light-30" transform="translate(124.299973 0)"/>
      </g>
     </g>
    </g>
    <g id="ytick_8">
     <g id="line2d_17">
      <g>
       <use xlink:href="#me039c68cc8" x="40.174453" y="58.057102" style="fill: #33474b; stroke: #33474b; stroke-width: 0.8"/>
      </g>
     </g>
     <g id="text_18">
      <!-- 0.35 -->
      <g style="fill: #33474b" transform="translate(17.239453 61.586203) scale(0.095 -0.095)">
       <use xlink:href="#FiraSans-Light-30"/>
       <use xlink:href="#FiraSans-Light-2e" transform="translate(54.999985 0)"/>
       <use xlink:href="#FiraSans-Light-33" transform="translate(75.699982 0)"/>
       <use xlink:href="#FiraSans-Light-35" transform="translate(124.299973 0)"/>
      </g>
     </g>
    </g>
    <g id="ytick_9">
     <g id="line2d_18">
      <g>
       <use xlink:href="#me039c68cc8" x="40.174453" y="31.513102" style="fill: #33474b; stroke: #33474b; stroke-width: 0.8"/>
      </g>
     </g>
     <g id="text_19">
      <!-- 0.40 -->
      <g style="fill: #33474b" transform="translate(16.336953 35.042203) scale(0.095 -0.095)">
       <use xlink:href="#FiraSans-Light-30"/>
       <use xlink:href="#FiraSans-Light-2e" transform="translate(54.999985 0)"/>
       <use xlink:href="#FiraSans-Light-34" transform="translate(75.699982 0)"/>
       <use xlink:href="#FiraSans-Light-30" transform="translate(127.499969 0)"/>
      </g>
     </g>
    </g>
    <g id="ytick_10">
     <g id="line2d_19">
      <g>
       <use xlink:href="#me039c68cc8" x="40.174453" y="4.969102" style="fill: #33474b; stroke: #33474b; stroke-width: 0.8"/>
      </g>
     </g>
     <g id="text_20">
      <!-- 0.45 -->
      <g style="fill: #33474b" transform="translate(16.935156 8.498203) scale(0.095 -0.095)">
       <use xlink:href="#FiraSans-Light-30"/>
       <use xlink:href="#FiraSans-Light-2e" transform="translate(54.999985 0)"/>
       <use xlink:href="#FiraSans-Light-34" transform="translate(75.699982 0)"/>
       <use xlink:href="#FiraSans-Light-35" transform="translate(127.499969 0)"/>
      </g>
     </g>
    </g>
    <g id="text_21">
     <!-- swap acceptance -->
     <g style="fill: #33474b" transform="translate(9.69 166.987961) rotate(-90) scale(0.11 -0.11)">
      <defs>
       <path id="FiraSans-Regular-63" d="M 1837 3450 
Q 2138 3450 2387 3363 
Q 2637 3277 2867 3085 
L 2586 2714 
Q 2406 2842 2236 2902 
Q 2067 2963 1862 2963 
Q 1453 2963 1225 2636 
Q 998 2310 998 1670 
Q 998 1030 1222 726 
Q 1446 422 1862 422 
Q 2061 422 2227 483 
Q 2394 544 2598 678 
L 2867 294 
Q 2406 -77 1837 -77 
Q 1152 -77 758 384 
Q 365 845 365 1658 
Q 365 2195 544 2598 
Q 723 3002 1052 3226 
Q 1382 3450 1837 3450 
z
" transform="scale(0.015625)"/>
      </defs>
      <use xlink:href="#FiraSans-Regular-73"/>
      <use xlink:href="#FiraSans-Regular-77" transform="translate(46.699997 0)"/>
      <use xlink:href="#FiraSans-Regular-61" transform="translate(118.399979 0)"/>
      <use xlink:href="#FiraSans-Regular-70" transform="translate(172.799973 0)"/>
      <use xlink:href="#FiraSans-Regular-20" transform="translate(232.199966 0)"/>
      <use xlink:href="#FiraSans-Regular-61" transform="translate(258.699951 0)"/>
      <use xlink:href="#FiraSans-Regular-63" transform="translate(313.099945 0)"/>
      <use xlink:href="#FiraSans-Regular-63" transform="translate(360.899933 0)"/>
      <use xlink:href="#FiraSans-Regular-65" transform="translate(408.699921 0)"/>
      <use xlink:href="#FiraSans-Regular-70" transform="translate(463.199905 0)"/>
      <use xlink:href="#FiraSans-Regular-74" transform="translate(522.599899 0)"/>
      <use xlink:href="#FiraSans-Regular-61" transform="translate(558.69989 0)"/>
      <use xlink:href="#FiraSans-Regular-6e" transform="translate(613.099884 0)"/>
      <use xlink:href="#FiraSans-Regular-63" transform="translate(671.699875 0)"/>
      <use xlink:href="#FiraSans-Regular-65" transform="translate(719.499863 0)"/>
     </g>
    </g>
   </g>
   <g id="patch_37">
    <path d="M 40.174453 243.865102 
L 40.174453 4.969102 
" style="fill: none; stroke: #33474b; stroke-width: 0.8; stroke-linejoin: miter; stroke-linecap: square"/>
   </g>
   <g id="patch_38">
    <path d="M 40.174453 243.865102 
L 454.697841 243.865102 
" style="fill: none; stroke: #33474b; stroke-width: 0.8; stroke-linejoin: miter; stroke-linecap: square"/>
   </g>
   <g id="patch_39">
    <path d="M 266.042595 67.367692 
Q 266.042595 127.861994 266.042595 186.791048 
" style="fill: none; stroke: #9c162a; stroke-width: 1.4; stroke-linecap: round"/>
    <path d="M 268.442595 181.991048 
L 266.042595 186.791048 
L 263.642595 181.991048 
" style="fill: none; stroke: #9c162a; stroke-width: 1.4; stroke-linecap: round"/>
   </g>
   <g id="text_22">
    <!-- bottleneck -->
    <g style="fill: #9c162a" transform="translate(236.421345 60.725902) scale(0.12 -0.12)">
     <defs>
      <path id="FiraSans-SemiBold-62" d="M 2285 3494 
Q 2880 3494 3209 3020 
Q 3539 2547 3539 1696 
Q 3539 1171 3376 764 
Q 3213 358 2909 128 
Q 2605 -102 2195 -102 
Q 1638 -102 1306 333 
L 1254 0 
L 448 0 
L 448 4742 
L 1357 4845 
L 1357 3027 
Q 1517 3245 1760 3369 
Q 2003 3494 2285 3494 
z
M 1939 570 
Q 2592 570 2592 1696 
Q 2592 2317 2435 2569 
Q 2278 2822 1984 2822 
Q 1619 2822 1357 2387 
L 1357 934 
Q 1581 570 1939 570 
z
" transform="scale(0.015625)"/>
      <path id="FiraSans-SemiBold-6f" d="M 1875 3494 
Q 2637 3494 3065 3017 
Q 3494 2541 3494 1696 
Q 3494 1158 3299 752 
Q 3104 346 2736 122 
Q 2368 -102 1869 -102 
Q 1107 -102 675 374 
Q 243 851 243 1696 
Q 243 2234 438 2640 
Q 634 3046 1002 3270 
Q 1370 3494 1875 3494 
z
M 1875 2816 
Q 1530 2816 1360 2544 
Q 1190 2272 1190 1696 
Q 1190 1120 1360 848 
Q 1530 576 1869 576 
Q 2208 576 2377 848 
Q 2547 1120 2547 1696 
Q 2547 2272 2380 2544 
Q 2214 2816 1875 2816 
z
" transform="scale(0.015625)"/>
      <path id="FiraSans-SemiBold-74" d="M 2477 160 
Q 2291 32 2057 -35 
Q 1824 -102 1594 -102 
Q 1069 -96 800 198 
Q 531 493 531 1062 
L 531 2752 
L 26 2752 
L 26 3392 
L 531 3392 
L 531 4134 
L 1440 4243 
L 1440 3392 
L 2221 3392 
L 2131 2752 
L 1440 2752 
L 1440 1082 
Q 1440 838 1523 729 
Q 1606 621 1779 621 
Q 1952 621 2163 736 
L 2477 160 
z
" transform="scale(0.015625)"/>
      <path id="FiraSans-SemiBold-6c" d="M 1293 -102 
Q 877 -102 646 138 
Q 416 378 416 819 
L 416 4742 
L 1325 4845 
L 1325 845 
Q 1325 621 1510 621 
Q 1613 621 1690 659 
L 1875 13 
Q 1613 -102 1293 -102 
z
" transform="scale(0.015625)"/>
      <path id="FiraSans-SemiBold-65" d="M 3315 1773 
Q 3315 1709 3296 1421 
L 1178 1421 
Q 1222 960 1427 768 
Q 1632 576 1984 576 
Q 2202 576 2394 646 
Q 2586 717 2810 870 
L 3187 358 
Q 2618 -102 1901 -102 
Q 1101 -102 672 378 
Q 243 858 243 1677 
Q 243 2195 425 2608 
Q 608 3021 957 3257 
Q 1306 3494 1786 3494 
Q 2509 3494 2912 3040 
Q 3315 2586 3315 1773 
z
M 2413 2029 
Q 2413 2874 1805 2874 
Q 1523 2874 1366 2666 
Q 1210 2458 1178 1990 
L 2413 1990 
L 2413 2029 
z
" transform="scale(0.015625)"/>
      <path id="FiraSans-SemiBold-6e" d="M 2342 3494 
Q 2790 3494 3040 3222 
Q 3290 2950 3290 2470 
L 3290 0 
L 2381 0 
L 2381 2317 
Q 2381 2592 2288 2704 
Q 2195 2816 2010 2816 
Q 1818 2816 1661 2697 
Q 1504 2579 1357 2342 
L 1357 0 
L 448 0 
L 448 3392 
L 1235 3392 
L 1306 2963 
Q 1517 3226 1769 3360 
Q 2022 3494 2342 3494 
z
" transform="scale(0.015625)"/>
      <path id="FiraSans-SemiBold-63" d="M 1862 3494 
Q 2202 3494 2474 3395 
Q 2746 3296 2989 3085 
L 2592 2547 
Q 2426 2675 2269 2732 
Q 2112 2790 1926 2790 
Q 1203 2790 1203 1677 
Q 1203 1114 1388 870 
Q 1574 627 1920 627 
Q 2099 627 2246 681 
Q 2394 736 2592 864 
L 2989 294 
Q 2502 -102 1875 -102 
Q 1376 -102 1008 115 
Q 640 333 441 733 
Q 243 1133 243 1670 
Q 243 2208 441 2621 
Q 640 3034 1008 3264 
Q 1376 3494 1862 3494 
z
" transform="scale(0.015625)"/>
      <path id="FiraSans-SemiBold-6b" d="M 1357 4845 
L 1357 0 
L 448 0 
L 448 4742 
L 1357 4845 
z
M 3418 3392 
L 2336 1901 
L 3514 0 
L 2483 0 
L 1389 1856 
L 2477 3392 
L 3418 3392 
z
" transform="scale(0.015625)"/>
     </defs>
     <use xlink:href="#FiraSans-SemiBold-62"/>
     <use xlink:href="#FiraSans-SemiBold-6f" transform="translate(59.599991 0)"/>
     <use xlink:href="#FiraSans-SemiBold-74" transform="translate(117.999985 0)"/>
     <use xlink:href="#FiraSans-SemiBold-74" transform="translate(155.999969 0)"/>
     <use xlink:href="#FiraSans-SemiBold-6c" transform="translate(193.999954 0)"/>
     <use xlink:href="#FiraSans-SemiBold-65" transform="translate(223.599945 0)"/>
     <use xlink:href="#FiraSans-SemiBold-6e" transform="translate(278.699936 0)"/>
     <use xlink:href="#FiraSans-SemiBold-65" transform="translate(336.59993 0)"/>
     <use xlink:href="#FiraSans-SemiBold-63" transform="translate(391.699921 0)"/>
     <use xlink:href="#FiraSans-SemiBold-6b" transform="translate(439.499908 0)"/>
    </g>
   </g>
   <g id="legend_1">
    <g id="patch_40">
     <path d="M 189.786928 21.398789 
L 202.786928 21.398789 
L 202.786928 14.398789 
L 189.786928 14.398789 
z
" style="fill: #8a9aa0"/>
    </g>
    <g id="text_23">
     <!-- naive -->
     <g style="fill: #33474b" transform="translate(210.786928 21.398789) scale(0.1 -0.1)">
      <defs>
       <path id="FiraSans-Light-6e" d="M 2157 3418 
Q 2611 3418 2851 3149 
Q 3091 2880 3091 2394 
L 3091 0 
L 2720 0 
L 2720 2342 
Q 2720 2746 2560 2931 
Q 2400 3117 2086 3117 
Q 1766 3117 1520 2941 
Q 1274 2765 1050 2426 
L 1050 0 
L 678 0 
L 678 3347 
L 998 3347 
L 1037 2778 
Q 1242 3078 1523 3248 
Q 1805 3418 2157 3418 
z
" transform="scale(0.015625)"/>
       <path id="FiraSans-Light-61" d="M 2758 742 
Q 2758 480 2825 365 
Q 2893 250 3040 192 
L 2957 -70 
Q 2726 -26 2601 102 
Q 2477 230 2438 493 
Q 2093 -70 1395 -70 
Q 915 -70 636 202 
Q 358 474 358 928 
Q 358 1446 726 1728 
Q 1094 2010 1747 2010 
L 2387 2010 
L 2387 2336 
Q 2387 2739 2208 2921 
Q 2029 3104 1613 3104 
Q 1229 3104 704 2912 
L 608 3194 
Q 1171 3418 1664 3418 
Q 2758 3418 2758 2355 
L 2758 742 
z
M 1459 230 
Q 2061 230 2387 819 
L 2387 1741 
L 1805 1741 
Q 1293 1741 1024 1542 
Q 755 1344 755 947 
Q 755 602 940 416 
Q 1126 230 1459 230 
z
" transform="scale(0.015625)"/>
       <path id="FiraSans-Light-69" d="M 1050 3347 
L 1050 0 
L 678 0 
L 678 3347 
L 1050 3347 
z
M 858 4819 
Q 986 4819 1062 4742 
Q 1139 4666 1139 4550 
Q 1139 4435 1062 4358 
Q 986 4282 858 4282 
Q 736 4282 659 4358 
Q 583 4435 583 4550 
Q 583 4666 659 4742 
Q 736 4819 858 4819 
z
" transform="scale(0.015625)"/>
       <path id="FiraSans-Light-76" d="M 2912 3347 
L 1754 0 
L 1293 0 
L 96 3347 
L 506 3347 
L 1523 326 
L 2515 3347 
L 2912 3347 
z
" transform="scale(0.015625)"/>
       <path id="FiraSans-Light-65" d="M 3053 1798 
Q 3053 1658 3040 1530 
L 806 1530 
Q 838 877 1116 560 
Q 1395 243 1850 243 
Q 2112 243 2313 323 
Q 2515 403 2752 576 
L 2925 339 
Q 2675 134 2412 32 
Q 2150 -70 1830 -70 
Q 1165 -70 787 384 
Q 410 838 410 1645 
Q 410 2176 573 2576 
Q 736 2976 1040 3197 
Q 1344 3418 1747 3418 
Q 2387 3418 2720 2986 
Q 3053 2554 3053 1798 
z
M 2688 1914 
Q 2688 2477 2454 2793 
Q 2221 3110 1760 3110 
Q 1344 3110 1088 2790 
Q 832 2470 806 1818 
L 2688 1818 
L 2688 1914 
z
" transform="scale(0.015625)"/>
      </defs>
      <use xlink:href="#FiraSans-Light-6e"/>
      <use xlink:href="#FiraSans-Light-61" transform="translate(58.399994 0)"/>
      <use xlink:href="#FiraSans-Light-69" transform="translate(111.999985 0)"/>
      <use xlink:href="#FiraSans-Light-76" transform="translate(138.999969 0)"/>
      <use xlink:href="#FiraSans-Light-65" transform="translate(185.999954 0)"/>
     </g>
    </g>
    <g id="patch_41">
     <path d="M 249.746303 21.398789 
L 262.746303 21.398789 
L 262.746303 14.398789 
L 249.746303 14.398789 
z
" style="fill: #eb811b"/>
    </g>
    <g id="text_24">
     <!-- learned -->
     <g style="fill: #33474b" transform="translate(270.746303 21.398789) scale(0.1 -0.1)">
      <defs>
       <path id="FiraSans-Light-6c" d="M 1235 -70 
Q 960 -70 803 90 
Q 646 250 646 563 
L 646 4710 
L 1018 4755 
L 1018 576 
Q 1018 250 1286 250 
Q 1421 250 1517 294 
L 1619 19 
Q 1440 -70 1235 -70 
z
" transform="scale(0.015625)"/>
       <path id="FiraSans-Light-72" d="M 1978 3418 
Q 2176 3418 2310 3379 
L 2240 3027 
Q 2099 3066 1946 3066 
Q 1606 3066 1398 2819 
Q 1190 2573 1050 2048 
L 1050 0 
L 678 0 
L 678 3347 
L 998 3347 
L 1030 2598 
Q 1165 3014 1398 3216 
Q 1632 3418 1978 3418 
z
" transform="scale(0.015625)"/>
       <path id="FiraSans-Light-64" d="M 3066 4710 
L 3066 0 
L 2746 0 
L 2701 512 
Q 2355 -70 1696 -70 
Q 1114 -70 778 394 
Q 442 858 442 1658 
Q 442 2176 598 2573 
Q 755 2970 1052 3194 
Q 1350 3418 1754 3418 
Q 2323 3418 2694 2963 
L 2694 4755 
L 3066 4710 
z
M 1754 237 
Q 2074 237 2294 390 
Q 2515 544 2694 858 
L 2694 2605 
Q 2336 3110 1818 3110 
Q 1363 3110 1097 2732 
Q 832 2355 838 1664 
Q 838 973 1081 605 
Q 1325 237 1754 237 
z
" transform="scale(0.015625)"/>
      </defs>
      <use xlink:href="#FiraSans-Light-6c"/>
      <use xlink:href="#FiraSans-Light-65" transform="translate(28.399994 0)"/>
      <use xlink:href="#FiraSans-Light-61" transform="translate(81.999985 0)"/>
      <use xlink:href="#FiraSans-Light-72" transform="translate(135.599976 0)"/>
      <use xlink:href="#FiraSans-Light-6e" transform="translate(172.899963 0)"/>
      <use xlink:href="#FiraSans-Light-65" transform="translate(231.299957 0)"/>
      <use xlink:href="#FiraSans-Light-64" transform="translate(284.899948 0)"/>
     </g>
    </g>
   </g>
  </g>
  <g id="axes_2">
   <g id="patch_42">
    <path d="M 538.523682 243.865102 
L 768.814453 243.865102 
L 768.814453 4.969102 
L 538.523682 4.969102 
L 538.523682 243.865102 
z
" style="fill: none"/>
   </g>
   <g id="matplotlib.axis_3">
    <g id="xtick_10">
     <g id="line2d_20">
      <g>
       <use xlink:href="#m4fdcc73fa6" x="548.991444" y="243.865102" style="fill: #33474b; stroke: #33474b; stroke-width: 0.8"/>
      </g>
     </g>
     <g id="text_25">
      <!-- 0 -->
      <g style="fill: #33474b" transform="translate(546.378944 257.423305) scale(0.095 -0.095)">
       <use xlink:href="#FiraSans-Light-30"/>
      </g>
     </g>
    </g>
    <g id="xtick_11">
     <g id="line2d_21">
      <g>
       <use xlink:href="#m4fdcc73fa6" x="590.946403" y="243.865102" style="fill: #33474b; stroke: #33474b; stroke-width: 0.8"/>
      </g>
     </g>
     <g id="text_26">
      <!-- 100 -->
      <g style="fill: #33474b" transform="translate(583.759802 257.423305) scale(0.095 -0.095)">
       <use xlink:href="#FiraSans-Light-31"/>
       <use xlink:href="#FiraSans-Light-30" transform="translate(41.299988 0)"/>
       <use xlink:href="#FiraSans-Light-30" transform="translate(96.299973 0)"/>
      </g>
     </g>
    </g>
    <g id="xtick_12">
     <g id="line2d_22">
      <g>
       <use xlink:href="#m4fdcc73fa6" x="632.901363" y="243.865102" style="fill: #33474b; stroke: #33474b; stroke-width: 0.8"/>
      </g>
     </g>
     <g id="text_27">
      <!-- 200 -->
      <g style="fill: #33474b" transform="translate(625.400816 257.423305) scale(0.095 -0.095)">
       <use xlink:href="#FiraSans-Light-32"/>
       <use xlink:href="#FiraSans-Light-30" transform="translate(47.899994 0)"/>
       <use xlink:href="#FiraSans-Light-30" transform="translate(102.899979 0)"/>
      </g>
     </g>
    </g>
    <g id="xtick_13">
     <g id="line2d_23">
      <g>
       <use xlink:href="#m4fdcc73fa6" x="674.856322" y="243.865102" style="fill: #33474b; stroke: #33474b; stroke-width: 0.8"/>
      </g>
     </g>
     <g id="text_28">
      <!-- 300 -->
      <g style="fill: #33474b" transform="translate(667.323119 257.423305) scale(0.095 -0.095)">
       <use xlink:href="#FiraSans-Light-33"/>
       <use xlink:href="#FiraSans-Light-30" transform="translate(48.599991 0)"/>
       <use xlink:href="#FiraSans-Light-30" transform="translate(103.599976 0)"/>
      </g>
     </g>
    </g>
    <g id="xtick_14">
     <g id="line2d_24">
      <g>
       <use xlink:href="#m4fdcc73fa6" x="716.811281" y="243.865102" style="fill: #33474b; stroke: #33474b; stroke-width: 0.8"/>
      </g>
     </g>
     <g id="text_29">
      <!-- 400 -->
      <g style="fill: #33474b" transform="translate(709.12593 257.423305) scale(0.095 -0.095)">
       <use xlink:href="#FiraSans-Light-34"/>
       <use xlink:href="#FiraSans-Light-30" transform="translate(51.799988 0)"/>
       <use xlink:href="#FiraSans-Light-30" transform="translate(106.799973 0)"/>
      </g>
     </g>
    </g>
    <g id="xtick_15">
     <g id="line2d_25">
      <g>
       <use xlink:href="#m4fdcc73fa6" x="758.76624" y="243.865102" style="fill: #33474b; stroke: #33474b; stroke-width: 0.8"/>
      </g>
     </g>
     <g id="text_30">
      <!-- 500 -->
      <g style="fill: #33474b" transform="translate(751.227842 257.423305) scale(0.095 -0.095)">
       <use xlink:href="#FiraSans-Light-35"/>
       <use xlink:href="#FiraSans-Light-30" transform="translate(48.699997 0)"/>
       <use xlink:href="#FiraSans-Light-30" transform="translate(103.699982 0)"/>
      </g>
     </g>
    </g>
    <g id="text_31">
     <!-- training step -->
     <g style="fill: #33474b" transform="translate(621.885083 271.950805) scale(0.11 -0.11)">
      <defs>
       <path id="FiraSans-Regular-67" d="M 3328 3219 
Q 3136 3155 2905 3136 
Q 2675 3117 2342 3117 
Q 2938 2848 2938 2266 
Q 2938 1760 2592 1440 
Q 2246 1120 1651 1120 
Q 1421 1120 1222 1184 
Q 1146 1133 1101 1046 
Q 1056 960 1056 870 
Q 1056 595 1498 595 
L 2035 595 
Q 2374 595 2636 473 
Q 2899 352 3043 141 
Q 3187 -70 3187 -339 
Q 3187 -832 2784 -1097 
Q 2381 -1363 1606 -1363 
Q 1062 -1363 745 -1251 
Q 429 -1139 294 -915 
Q 160 -691 160 -339 
L 691 -339 
Q 691 -544 768 -662 
Q 845 -781 1043 -841 
Q 1242 -902 1606 -902 
Q 2138 -902 2365 -771 
Q 2592 -640 2592 -378 
Q 2592 -141 2413 -19 
Q 2234 102 1914 102 
L 1382 102 
Q 954 102 733 284 
Q 512 467 512 742 
Q 512 909 608 1062 
Q 704 1216 883 1338 
Q 589 1491 451 1718 
Q 314 1946 314 2272 
Q 314 2611 483 2880 
Q 653 3149 950 3299 
Q 1248 3450 1613 3450 
Q 2010 3443 2278 3478 
Q 2547 3514 2723 3574 
Q 2899 3635 3155 3750 
L 3328 3219 
z
M 1613 3027 
Q 1280 3027 1097 2819 
Q 915 2611 915 2272 
Q 915 1926 1100 1718 
Q 1286 1510 1626 1510 
Q 1971 1510 2153 1712 
Q 2336 1914 2336 2278 
Q 2336 3027 1613 3027 
z
" transform="scale(0.015625)"/>
      </defs>
      <use xlink:href="#FiraSans-Regular-74"/>
      <use xlink:href="#FiraSans-Regular-72" transform="translate(36.099991 0)"/>
      <use xlink:href="#FiraSans-Regular-61" transform="translate(74.699982 0)"/>
      <use xlink:href="#FiraSans-Regular-69" transform="translate(129.099976 0)"/>
      <use xlink:href="#FiraSans-Regular-6e" transform="translate(157.299973 0)"/>
      <use xlink:href="#FiraSans-Regular-69" transform="translate(215.899963 0)"/>
      <use xlink:href="#FiraSans-Regular-6e" transform="translate(244.09996 0)"/>
      <use xlink:href="#FiraSans-Regular-67" transform="translate(302.699951 0)"/>
      <use xlink:href="#FiraSans-Regular-20" transform="translate(354.699936 0)"/>
      <use xlink:href="#FiraSans-Regular-73" transform="translate(381.199921 0)"/>
      <use xlink:href="#FiraSans-Regular-74" transform="translate(427.899918 0)"/>
      <use xlink:href="#FiraSans-Regular-65" transform="translate(463.999908 0)"/>
      <use xlink:href="#FiraSans-Regular-70" transform="translate(518.499893 0)"/>
     </g>
    </g>
   </g>
   <g id="matplotlib.axis_4">
    <g id="ytick_11">
     <g id="line2d_26">
      <g>
       <use xlink:href="#me039c68cc8" x="538.523682" y="217.55492" style="fill: #33474b; stroke: #33474b; stroke-width: 0.8"/>
      </g>
     </g>
     <g id="text_32">
      <!-- 51.0 -->
      <g style="fill: #33474b" transform="translate(516.281885 221.084021) scale(0.095 -0.095)">
       <use xlink:href="#FiraSans-Light-35"/>
       <use xlink:href="#FiraSans-Light-31" transform="translate(48.699997 0)"/>
       <use xlink:href="#FiraSans-Light-2e" transform="translate(89.999985 0)"/>
       <use xlink:href="#FiraSans-Light-30" transform="translate(110.699982 0)"/>
      </g>
     </g>
    </g>
    <g id="ytick_12">
     <g id="line2d_27">
      <g>
       <use xlink:href="#me039c68cc8" x="538.523682" y="179.314909" style="fill: #33474b; stroke: #33474b; stroke-width: 0.8"/>
      </g>
     </g>
     <g id="text_33">
      <!-- 51.5 -->
      <g style="fill: #33474b" transform="translate(516.880088 182.844011) scale(0.095 -0.095)">
       <use xlink:href="#FiraSans-Light-35"/>
       <use xlink:href="#FiraSans-Light-31" transform="translate(48.699997 0)"/>
       <use xlink:href="#FiraSans-Light-2e" transform="translate(89.999985 0)"/>
       <use xlink:href="#FiraSans-Light-35" transform="translate(110.699982 0)"/>
      </g>
     </g>
    </g>
    <g id="ytick_13">
     <g id="line2d_28">
      <g>
       <use xlink:href="#me039c68cc8" x="538.523682" y="141.074899" style="fill: #33474b; stroke: #33474b; stroke-width: 0.8"/>
      </g>
     </g>
     <g id="text_34">
      <!-- 52.0 -->
      <g style="fill: #33474b" transform="translate(515.653994 144.604) scale(0.095 -0.095)">
       <use xlink:href="#FiraSans-Light-35"/>
       <use xlink:href="#FiraSans-Light-32" transform="translate(48.699997 0)"/>
       <use xlink:href="#FiraSans-Light-2e" transform="translate(96.599991 0)"/>
       <use xlink:href="#FiraSans-Light-30" transform="translate(117.299988 0)"/>
      </g>
     </g>
    </g>
    <g id="ytick_14">
     <g id="line2d_29">
      <g>
       <use xlink:href="#me039c68cc8" x="538.523682" y="102.834888" style="fill: #33474b; stroke: #33474b; stroke-width: 0.8"/>
      </g>
     </g>
     <g id="text_35">
      <!-- 52.5 -->
      <g style="fill: #33474b" transform="translate(516.252198 106.363989) scale(0.095 -0.095)">
       <use xlink:href="#FiraSans-Light-35"/>
       <use xlink:href="#FiraSans-Light-32" transform="translate(48.699997 0)"/>
       <use xlink:href="#FiraSans-Light-2e" transform="translate(96.599991 0)"/>
       <use xlink:href="#FiraSans-Light-35" transform="translate(117.299988 0)"/>
      </g>
     </g>
    </g>
    <g id="ytick_15">
     <g id="line2d_30">
      <g>
       <use xlink:href="#me039c68cc8" x="538.523682" y="64.594877" style="fill: #33474b; stroke: #33474b; stroke-width: 0.8"/>
      </g>
     </g>
     <g id="text_36">
      <!-- 53.0 -->
      <g style="fill: #33474b" transform="translate(515.588682 68.123979) scale(0.095 -0.095)">
       <use xlink:href="#FiraSans-Light-35"/>
       <use xlink:href="#FiraSans-Light-33" transform="translate(48.699997 0)"/>
       <use xlink:href="#FiraSans-Light-2e" transform="translate(97.299988 0)"/>
       <use xlink:href="#FiraSans-Light-30" transform="translate(117.999985 0)"/>
      </g>
     </g>
    </g>
    <g id="ytick_16">
     <g id="line2d_31">
      <g>
       <use xlink:href="#me039c68cc8" x="538.523682" y="26.354867" style="fill: #33474b; stroke: #33474b; stroke-width: 0.8"/>
      </g>
     </g>
     <g id="text_37">
      <!-- 53.5 -->
      <g style="fill: #33474b" transform="translate(516.186885 29.883968) scale(0.095 -0.095)">
       <use xlink:href="#FiraSans-Light-35"/>
       <use xlink:href="#FiraSans-Light-33" transform="translate(48.699997 0)"/>
       <use xlink:href="#FiraSans-Light-2e" transform="translate(97.299988 0)"/>
       <use xlink:href="#FiraSans-Light-35" transform="translate(117.999985 0)"/>
      </g>
     </g>
    </g>
    <g id="text_38">
     <!-- sKL loss -->
     <g style="fill: #33474b" transform="translate(509.246026 144.382961) rotate(-90) scale(0.11 -0.11)">
      <defs>
       <path id="FiraSans-Regular-4b" d="M 1248 4410 
L 1248 0 
L 640 0 
L 640 4410 
L 1248 4410 
z
M 3648 4410 
L 1978 2394 
L 3770 0 
L 3021 0 
L 1280 2355 
L 2957 4410 
L 3648 4410 
z
" transform="scale(0.015625)"/>
       <path id="FiraSans-Regular-4c" d="M 1248 4410 
L 1248 531 
L 3059 531 
L 2989 0 
L 640 0 
L 640 4410 
L 1248 4410 
z
" transform="scale(0.015625)"/>
       <path id="FiraSans-Regular-6c" d="M 1280 -77 
Q 954 -77 765 118 
Q 576 314 576 666 
L 576 4730 
L 1165 4800 
L 1165 678 
Q 1165 538 1213 474 
Q 1261 410 1376 410 
Q 1498 410 1594 448 
L 1747 38 
Q 1536 -77 1280 -77 
z
" transform="scale(0.015625)"/>
       <path id="FiraSans-Regular-6f" d="M 1875 3450 
Q 2586 3450 2979 2976 
Q 3373 2502 3373 1690 
Q 3373 1165 3193 765 
Q 3014 365 2675 144 
Q 2336 -77 1869 -77 
Q 1158 -77 761 396 
Q 365 870 365 1683 
Q 365 2208 544 2608 
Q 723 3008 1062 3229 
Q 1402 3450 1875 3450 
z
M 1875 2976 
Q 998 2976 998 1683 
Q 998 397 1869 397 
Q 2739 397 2739 1690 
Q 2739 2976 1875 2976 
z
" transform="scale(0.015625)"/>
      </defs>
      <use xlink:href="#FiraSans-Regular-73"/>
      <use xlink:href="#FiraSans-Regular-4b" transform="translate(46.699997 0)"/>
      <use xlink:href="#FiraSans-Regular-4c" transform="translate(105.599991 0)"/>
      <use xlink:href="#FiraSans-Regular-20" transform="translate(155.399979 0)"/>
      <use xlink:href="#FiraSans-Regular-6c" transform="translate(181.899963 0)"/>
      <use xlink:href="#FiraSans-Regular-6f" transform="translate(211.199951 0)"/>
      <use xlink:href="#FiraSans-Regular-73" transform="translate(269.599945 0)"/>
      <use xlink:href="#FiraSans-Regular-73" transform="translate(316.299942 0)"/>
     </g>
    </g>
   </g>
   <g id="line2d_32">
    <path d="M 548.991444 62.960796 
L 549.830543 47.428709 
L 550.250093 48.167707 
L 550.669643 42.316698 
L 551.089192 32.311196 
L 551.508742 25.545849 
L 551.928291 38.366721 
L 552.347841 36.617982 
L 552.767391 33.647986 
L 553.18694 27.994491 
L 553.60649 40.108165 
L 554.026039 26.568718 
L 554.865139 30.10208 
L 555.284688 28.527515 
L 555.704238 25.381595 
L 556.123787 29.579559 
L 556.962887 15.828011 
L 557.382436 26.370913 
L 557.801986 24.16588 
L 558.221535 26.488196 
L 558.641085 30.529199 
L 559.060634 23.690914 
L 559.480184 28.251813 
L 559.899734 25.319453 
L 560.319283 33.267547 
L 560.738833 36.079123 
L 561.158382 32.881564 
L 561.577932 30.855665 
L 561.997482 27.466427 
L 562.417031 34.298001 
L 562.836581 29.198244 
L 563.25613 28.45487 
L 563.67568 24.850322 
L 564.09523 32.018865 
L 564.514779 22.720852 
L 564.934329 21.016459 
L 565.353878 21.111569 
L 565.773428 28.668138 
L 566.192978 29.70326 
L 566.612527 32.44861 
L 567.032077 26.245169 
L 567.451626 41.486383 
L 567.871176 30.589591 
L 568.290726 39.005065 
L 568.710275 35.001114 
L 569.129825 32.205 
L 569.549374 34.71666 
L 569.968924 30.285297 
L 570.808023 26.418176 
L 571.227573 25.633665 
L 571.647122 37.660982 
L 572.066672 28.498924 
L 572.486221 29.85847 
L 572.905771 30.321766 
L 573.325321 32.393761 
L 573.74487 29.747022 
L 574.16442 34.737374 
L 574.583969 30.935896 
L 575.003519 24.861408 
L 575.423069 24.573744 
L 575.842618 33.82887 
L 576.262168 36.760064 
L 576.681717 29.599398 
L 577.101267 26.38375 
L 577.520817 32.039287 
L 578.359916 37.297755 
L 578.779465 36.472692 
L 579.199015 30.308637 
L 579.618565 31.262654 
L 580.038114 35.115479 
L 580.457664 31.58416 
L 580.877213 42.482995 
L 581.296763 44.118827 
L 581.716312 43.493902 
L 582.135862 42.641998 
L 582.555412 48.229266 
L 582.974961 46.580597 
L 583.394511 57.602842 
L 583.81406 57.5442 
L 584.23361 59.13131 
L 584.65316 58.054176 
L 585.072709 62.290942 
L 585.492259 57.803564 
L 585.911808 61.31417 
L 586.331358 68.221015 
L 586.750908 68.124738 
L 587.170457 79.559514 
L 587.590007 74.575289 
L 588.009556 87.819779 
L 588.429106 85.096893 
L 588.848656 81.49643 
L 589.268205 81.79693 
L 589.687755 89.325199 
L 590.107304 83.783443 
L 590.526854 81.636177 
L 590.946403 73.21195 
L 591.365953 78.54744 
L 591.785503 69.650581 
L 592.205052 70.647484 
L 592.624602 72.425105 
L 593.044151 89.863474 
L 593.463701 86.905148 
L 593.883251 97.832283 
L 594.3028 112.092056 
L 594.72235 107.777101 
L 595.141899 121.518438 
L 595.561449 120.310601 
L 596.400548 136.072293 
L 596.820098 134.500063 
L 597.239647 135.398939 
L 597.659197 138.557404 
L 598.078747 140.330941 
L 598.498296 132.626748 
L 598.917846 129.280689 
L 599.337395 128.943136 
L 599.756945 136.221668 
L 600.176495 131.350058 
L 600.596044 122.772955 
L 601.015594 111.921383 
L 601.435143 123.155145 
L 601.854693 139.843721 
L 602.274242 142.616204 
L 602.693792 131.719411 
L 603.532891 149.12773 
L 603.952441 145.987937 
L 604.37199 144.341602 
L 605.21109 154.822946 
L 605.630639 157.991914 
L 606.050189 153.800077 
L 606.469738 155.82335 
L 606.889288 149.789707 
L 607.308838 138.609335 
L 607.728387 134.800272 
L 608.147937 137.291509 
L 608.567486 144.743048 
L 608.987036 134.444631 
L 609.406586 134.876418 
L 609.826135 140.362741 
L 610.245685 136.3054 
L 610.665234 152.654674 
L 611.084784 149.489206 
L 611.504334 154.743298 
L 611.923883 166.133437 
L 612.343433 172.005452 
L 612.762982 158.730912 
L 613.182532 165.99048 
L 613.602081 167.326395 
L 614.021631 171.802395 
L 614.441181 161.195016 
L 614.86073 170.744516 
L 615.28028 157.365822 
L 615.699829 166.057874 
L 616.119379 150.638402 
L 616.538929 147.953736 
L 616.958478 147.652068 
L 617.378028 149.422104 
L 617.797577 149.682927 
L 618.217127 149.058294 
L 618.636677 157.071448 
L 619.056226 161.377943 
L 619.475776 159.611116 
L 619.895325 167.874006 
L 620.314875 152.598366 
L 620.734425 167.89297 
L 621.153974 172.458828 
L 621.573524 158.585621 
L 621.993073 162.808675 
L 622.412623 170.675372 
L 622.832173 163.940075 
L 623.251722 164.173181 
L 623.671272 175.03263 
L 624.090821 158.91413 
L 624.510371 150.951448 
L 624.92992 157.042565 
L 625.34947 144.44809 
L 625.76902 149.551932 
L 626.188569 151.837779 
L 626.608119 144.011052 
L 627.027668 149.899404 
L 627.447218 152.99952 
L 627.866768 153.173985 
L 628.286317 164.074279 
L 628.705867 157.78769 
L 629.125416 168.139205 
L 629.544966 173.15844 
L 629.964516 173.624654 
L 630.384065 171.854034 
L 630.803615 173.028612 
L 631.223164 171.679277 
L 631.642714 167.458265 
L 632.062264 166.302359 
L 632.481813 166.818753 
L 632.901363 171.297087 
L 633.320912 167.076367 
L 633.740462 146.604109 
L 634.160011 145.93338 
L 634.579561 154.889464 
L 634.999111 140.817868 
L 635.41866 140.992917 
L 635.83821 137.632271 
L 636.257759 148.690983 
L 636.677309 146.485076 
L 637.096859 156.536382 
L 637.516408 153.569012 
L 637.935958 157.180854 
L 638.355507 166.02549 
L 638.775057 170.712716 
L 639.194607 166.815544 
L 639.614156 160.057491 
L 640.033706 163.496034 
L 640.453255 170.758812 
L 640.872805 171.490224 
L 641.292355 173.452814 
L 641.711904 163.084669 
L 642.131454 163.473569 
L 642.551003 178.806684 
L 642.970553 157.705709 
L 643.390103 160.140055 
L 643.809652 154.362567 
L 644.229202 136.939661 
L 644.648751 133.712635 
L 645.068301 132.338209 
L 645.48785 128.355264 
L 645.9074 132.85898 
L 646.32695 144.607677 
L 646.746499 145.795967 
L 647.166049 153.836253 
L 647.585598 166.538967 
L 648.005148 152.367302 
L 648.424698 166.616864 
L 648.844247 154.838408 
L 649.263797 169.345584 
L 649.683346 164.303301 
L 650.102896 167.771311 
L 650.522446 174.824614 
L 650.941995 168.504766 
L 651.361545 168.220895 
L 651.781094 174.683116 
L 652.200644 157.496234 
L 652.620194 169.734776 
L 653.039743 171.063105 
L 653.459293 185.078393 
L 653.878842 162.19863 
L 654.298392 162.580528 
L 654.717942 157.021851 
L 655.137491 148.433953 
L 655.557041 148.050596 
L 655.97659 149.649668 
L 656.39614 144.55312 
L 657.235239 120.049194 
L 657.654789 117.185978 
L 658.074338 138.629757 
L 658.493888 136.725517 
L 658.913437 150.231705 
L 659.332987 148.552111 
L 659.752537 167.417129 
L 660.172086 180.670371 
L 660.591636 171.188849 
L 661.011185 177.717296 
L 661.430735 177.387329 
L 661.850285 175.551358 
L 662.269834 183.327321 
L 662.689384 185.296913 
L 663.108933 175.088646 
L 663.528483 187.772979 
L 664.367582 193.813624 
L 664.787132 185.046593 
L 665.206681 195.24144 
L 665.626231 188.412199 
L 666.045781 176.595233 
L 666.46533 187.032814 
L 666.88488 177.043942 
L 667.304429 173.959289 
L 667.723979 173.119638 
L 668.143528 158.99932 
L 668.563078 166.902485 
L 668.982628 166.411473 
L 669.402177 165.036172 
L 670.241276 159.910449 
L 671.080376 181.524901 
L 671.499925 189.3102 
L 671.919475 176.306694 
L 672.339024 187.230911 
L 672.758574 186.293233 
L 673.178124 176.275185 
L 673.597673 177.061447 
L 674.017223 192.317832 
L 674.436772 185.789675 
L 674.856322 195.737995 
L 675.275872 193.007524 
L 675.695421 188.411324 
L 676.114971 185.184298 
L 676.53452 187.89493 
L 676.95407 188.982275 
L 677.373619 185.015959 
L 677.793169 196.271019 
L 678.212719 197.466894 
L 678.632268 194.112374 
L 679.051818 193.356163 
L 679.471367 198.15717 
L 679.890917 199.596656 
L 680.310467 209.429734 
L 680.730016 182.430487 
L 681.149566 175.026795 
L 681.569115 176.86014 
L 681.988665 179.618911 
L 682.408215 165.842272 
L 682.827764 173.553175 
L 683.666863 193.613485 
L 684.086413 187.802154 
L 684.505963 189.592904 
L 684.925512 193.002564 
L 685.345062 191.202478 
L 685.764611 211.156008 
L 686.184161 202.9503 
L 686.603711 180.973497 
L 687.02326 182.986851 
L 687.44281 196.394428 
L 687.862359 191.080528 
L 688.281909 200.836002 
L 688.701458 195.774172 
L 689.121008 202.042964 
L 689.540558 190.539627 
L 689.960107 199.178581 
L 690.379657 187.324854 
L 690.799206 193.778906 
L 691.218756 196.281522 
L 691.638306 200.76569 
L 692.057855 202.540394 
L 692.896954 197.228244 
L 693.316504 201.556911 
L 693.736054 204.133339 
L 694.155603 203.914236 
L 694.575153 197.51795 
L 694.994702 196.827966 
L 695.414252 209.140904 
L 695.833802 198.190138 
L 696.253351 211.216984 
L 696.672901 197.05232 
L 697.09245 211.171179 
L 697.512 216.009238 
L 697.93155 208.559742 
L 698.351099 195.147205 
L 698.770649 196.87698 
L 699.190198 203.567931 
L 699.609748 204.014306 
L 700.448847 200.443017 
L 700.868397 204.302553 
L 701.287946 203.817959 
L 701.707496 214.638022 
L 702.127045 194.250955 
L 702.546595 200.790489 
L 702.966145 213.081546 
L 703.385694 208.358727 
L 703.805244 201.079903 
L 704.224793 208.359894 
L 704.644343 202.522306 
L 705.063893 213.653372 
L 705.483442 205.733286 
L 705.902992 204.290008 
L 706.322541 204.770225 
L 706.742091 210.61219 
L 707.161641 199.4855 
L 707.58119 201.766386 
L 708.00074 211.749424 
L 708.420289 210.633196 
L 708.839839 206.683509 
L 709.259389 198.101738 
L 709.678938 204.520489 
L 710.098488 207.930441 
L 710.518037 215.144205 
L 710.937587 205.701193 
L 711.357136 204.196065 
L 711.776686 227.10121 
L 712.196236 211.196561 
L 712.615785 210.860176 
L 713.035335 204.701956 
L 713.454884 205.136953 
L 713.874434 205.330673 
L 714.293984 207.368534 
L 714.713533 201.369025 
L 715.133083 190.002518 
L 715.552632 207.241624 
L 715.972182 202.777877 
L 716.391732 213.427267 
L 716.811281 208.196807 
L 717.230831 205.503096 
L 717.65038 216.408058 
L 718.06993 223.131394 
L 718.48948 204.37724 
L 718.909029 194.713959 
L 719.328579 205.344677 
L 719.748128 224.566211 
L 720.167678 214.733424 
L 720.587227 213.582477 
L 721.006777 216.641748 
L 721.426327 210.176026 
L 721.845876 213.530546 
L 722.265426 225.638677 
L 722.684975 220.435349 
L 723.104525 219.888905 
L 723.524075 215.818435 
L 723.943624 209.779249 
L 724.363174 217.995168 
L 724.782723 217.916104 
L 725.202273 216.870479 
L 725.621823 213.583353 
L 726.041372 212.010538 
L 726.460922 205.474213 
L 726.880471 205.20493 
L 727.300021 200.726888 
L 727.719571 213.423183 
L 728.13912 208.694529 
L 728.55867 215.054638 
L 728.978219 207.283052 
L 729.397769 212.004412 
L 729.817319 223.019946 
L 730.236868 220.766483 
L 730.656418 222.554316 
L 731.075967 213.072502 
L 731.495517 221.216942 
L 731.915066 219.557479 
L 732.334616 221.908094 
L 733.173715 224.575255 
L 733.593265 213.146022 
L 734.012814 218.299461 
L 734.432364 212.21272 
L 735.271463 209.582027 
L 735.691013 209.971219 
L 736.110562 205.280201 
L 736.530112 206.160113 
L 736.949662 214.301345 
L 737.788761 208.159755 
L 738.20831 218.499892 
L 738.62786 203.739479 
L 739.04741 195.21985 
L 739.466959 216.509295 
L 739.886509 209.520176 
L 740.306058 208.612548 
L 740.725608 227.069118 
L 741.145158 212.782796 
L 741.564707 223.632909 
L 741.984257 215.974812 
L 742.403806 224.291968 
L 742.823356 209.329957 
L 743.242905 225.25532 
L 743.662455 223.623281 
L 744.082005 224.542288 
L 744.501554 222.254107 
L 744.921104 226.880941 
L 745.340653 204.887508 
L 745.760203 218.342056 
L 746.179753 216.900529 
L 746.599302 221.899925 
L 747.018852 214.010472 
L 747.438401 218.615716 
L 747.857951 207.267006 
L 748.277501 207.909143 
L 748.69705 208.09557 
L 749.1166 213.309693 
L 749.536149 232.448078 
L 749.955699 221.346479 
L 750.375249 222.879031 
L 750.794798 214.506444 
L 751.214348 216.693388 
L 751.633897 223.250427 
L 752.053447 218.406241 
L 752.472997 214.863835 
L 752.892546 228.969565 
L 753.312096 224.96999 
L 753.731645 215.524936 
L 754.151195 226.212546 
L 754.570744 233.006192 
L 754.990294 221.470471 
L 755.409844 218.847948 
L 755.829393 208.770384 
L 756.248943 219.703061 
L 756.668492 211.364025 
L 757.088042 200.5603 
L 757.507592 210.701173 
L 757.927141 206.009863 
L 758.346691 203.3958 
L 758.346691 203.3958 
" clip-path="url(#p30fa743d68)" style="fill: none; stroke: #23373b; stroke-width: 1.6; stroke-linecap: round"/>
   </g>
   <g id="patch_43">
    <path d="M 538.523682 243.865102 
L 538.523682 4.969102 
" style="fill: none; stroke: #33474b; stroke-width: 0.8; stroke-linejoin: miter; stroke-linecap: square"/>
   </g>
   <g id="patch_44">
    <path d="M 538.523682 243.865102 
L 768.814453 243.865102 
" style="fill: none; stroke: #33474b; stroke-width: 0.8; stroke-linejoin: miter; stroke-linecap: square"/>
   </g>
  </g>
 </g>
 <defs>
  <clipPath id="peb2ef666d1">
   <rect x="40.174453" y="4.969102" width="414.523388" height="238.896"/>
  </clipPath>
  <clipPath id="p30fa743d68">
   <rect x="538.523682" y="4.969102" width="230.290771" height="238.896"/>
  </clipPath>
 </defs>
</svg>
