<?xml version="1.0" encoding="utf-8" standalone="no"?>
<!DOCTYPE svg PUBLIC "-//W3C//DTD SVG 1.1//EN"
  "http://www.w3.org/Graphics/SVG/1.1/DTD/svg11.dtd">
<svg xmlns:xlink="http://www.w3.org/1999/xlink" width="400.0715pt" height="308.633164pt" viewBox="0 0 400.0715 308.633164" xmlns="http://www.w3.org/2000/svg" version="1.1">
 <metadata>
  <rdf:RDF xmlns:dc="http://purl.org/dc/elements/1.1/" xmlns:cc="http://creativecommons.org/ns#" xmlns:rdf="http://www.w3.org/1999/02/22-rdf-syntax-ns#">
   <cc:Work>
    <dc:type rdf:resource="http://purl.org/dc/dcmitype/StillImage"/>
    <dc:date>2026-07-20T15:50:07.823081</dc:date>
    <dc:format>image/svg+xml</dc:format>
    <dc:creator>
     <cc:Agent>
      <dc:title>Matplotlib v3.10.8, https://matplotlib.org/</dc:title>
     </cc:Agent>
    </dc:creator>
   </cc:Work>
  </rdf:RDF>
 </metadata>
 <defs>
  <style type="text/css">*{stroke-linejoin: round; stroke-linecap: butt}</style>
 </defs>
 <g id="figure_1">
  <g id="patch_1">
   <path d="M 0 308.633164 
L 400.0715 308.633164 
L 400.0715 0 
L 0 0 
L 0 308.633164 
z
" style="fill: none"/>
  </g>
  <g id="axes_1">
   <g id="patch_2">
    <path d="M 46.0475 268.523555 
L 398.6315 268.523555 
L 398.6315 6.083555 
L 46.0475 6.083555 
L 46.0475 268.523555 
z
" style="fill: none"/>
   </g>
   <g id="FillBetweenPolyCollection_1">
    <defs>
     <path id="m95b19982ad" d="M 46.0475 -250.061609 
L 46.0475 12.378391 
L 398.6315 12.378391 
L 398.6315 -250.061609 
L 398.6315 -250.061609 
L 46.0475 -250.061609 
z
"/>
    </defs>
    <g clip-path="url(#p03af5d1855)">
     <use xlink:href="#m95b19982ad" x="0" y="308.633164" style="fill: #eb811b; fill-opacity: 0.07"/>
    </g>
   </g>
   <g id="line2d_1">
    <path d="M 46.0475 58.571555 
L 398.6315 58.571555 
" clip-path="url(#p03af5d1855)" style="fill: none; stroke-dasharray: 5.6,5.6; stroke-dashoffset: 0; stroke: #8a9aa0; stroke-width: 1.4"/>
   </g>
   <g id="matplotlib.axis_1">
    <g id="xtick_1">
     <g id="line2d_2">
      <defs>
       <path id="m33a8d570e7" d="M 0 0 
L 0 3 
" style="stroke: #33474b; stroke-width: 0.8"/>
      </defs>
      <g>
       <use xlink:href="#m33a8d570e7" x="85.2235" y="268.523555" style="fill: #33474b; stroke: #33474b; stroke-width: 0.8"/>
      </g>
     </g>
     <g id="text_1">
      <!-- 0.75 -->
      <g style="fill: #33474b" transform="translate(74.716664 284.310664) scale(0.125 -0.125)">
       <defs>
        <path id="FiraSans-Light-30" d="M 1760 4326 
Q 2419 4326 2758 3766 
Q 3098 3206 3098 2125 
Q 3098 1050 2755 490 
Q 2413 -70 1760 -70 
Q 1101 -70 761 490 
Q 422 1050 422 2131 
Q 422 3213 761 3769 
Q 1101 4326 1760 4326 
z
M 1760 4019 
Q 806 4019 806 2131 
Q 806 237 1760 237 
Q 2227 237 2467 697 
Q 2707 1158 2707 2125 
Q 2707 3091 2467 3555 
Q 2227 4019 1760 4019 
z
" transform="scale(0.015625)"/>
        <path id="FiraSans-Light-2e" d="M 659 538 
Q 794 538 880 451 
Q 966 365 966 237 
Q 966 102 880 16 
Q 794 -70 659 -70 
Q 531 -70 441 19 
Q 352 109 352 237 
Q 352 365 441 451 
Q 531 538 659 538 
z
" transform="scale(0.015625)"/>
        <path id="FiraSans-Light-37" d="M 2566 4256 
L 2566 3968 
L 890 -51 
L 544 64 
L 2182 3942 
L 192 3942 
L 192 4256 
L 2566 4256 
z
" transform="scale(0.015625)"/>
        <path id="FiraSans-Light-35" d="M 2592 3949 
L 864 3949 
L 864 2496 
Q 1216 2694 1594 2694 
Q 2144 2694 2467 2339 
Q 2790 1984 2790 1370 
Q 2790 954 2620 624 
Q 2451 294 2140 112 
Q 1830 -70 1421 -70 
Q 710 -70 218 442 
L 448 666 
Q 653 448 883 345 
Q 1114 243 1421 243 
Q 1875 243 2137 547 
Q 2400 851 2400 1376 
Q 2400 1888 2160 2141 
Q 1920 2394 1510 2394 
Q 1306 2394 1149 2346 
Q 992 2298 800 2189 
L 506 2189 
L 506 4256 
L 2650 4256 
L 2592 3949 
z
" transform="scale(0.015625)"/>
       </defs>
       <use xlink:href="#FiraSans-Light-30"/>
       <use xlink:href="#FiraSans-Light-2e" transform="translate(54.999985 0)"/>
       <use xlink:href="#FiraSans-Light-37" transform="translate(75.699982 0)"/>
       <use xlink:href="#FiraSans-Light-35" transform="translate(119.399979 0)"/>
      </g>
     </g>
    </g>
    <g id="xtick_2">
     <g id="line2d_3">
      <g>
       <use xlink:href="#m33a8d570e7" x="215.810167" y="268.523555" style="fill: #33474b; stroke: #33474b; stroke-width: 0.8"/>
      </g>
     </g>
     <g id="text_2">
      <!-- 1.25 -->
      <g style="fill: #33474b" transform="translate(205.897081 284.310664) scale(0.125 -0.125)">
       <defs>
        <path id="FiraSans-Light-31" d="M 1869 4256 
L 1869 0 
L 1498 0 
L 1498 3846 
L 448 3194 
L 275 3469 
L 1549 4256 
L 1869 4256 
z
" transform="scale(0.015625)"/>
        <path id="FiraSans-Light-32" d="M 1440 4326 
Q 1978 4326 2294 4012 
Q 2611 3699 2611 3206 
Q 2611 2790 2438 2425 
Q 2266 2061 1898 1625 
Q 1530 1190 710 326 
L 2726 326 
L 2675 0 
L 275 0 
L 275 314 
Q 1152 1248 1533 1699 
Q 1914 2150 2070 2480 
Q 2227 2810 2227 3187 
Q 2227 3565 2006 3789 
Q 1786 4013 1421 4013 
Q 1126 4013 899 3891 
Q 672 3770 467 3526 
L 211 3718 
Q 467 4032 764 4179 
Q 1062 4326 1440 4326 
z
" transform="scale(0.015625)"/>
       </defs>
       <use xlink:href="#FiraSans-Light-31"/>
       <use xlink:href="#FiraSans-Light-2e" transform="translate(41.299988 0)"/>
       <use xlink:href="#FiraSans-Light-32" transform="translate(61.999985 0)"/>
       <use xlink:href="#FiraSans-Light-35" transform="translate(109.899979 0)"/>
      </g>
     </g>
    </g>
    <g id="xtick_3">
     <g id="line2d_4">
      <g>
       <use xlink:href="#m33a8d570e7" x="346.396833" y="268.523555" style="fill: #33474b; stroke: #33474b; stroke-width: 0.8"/>
      </g>
     </g>
     <g id="text_3">
      <!-- 1.75 -->
      <g style="fill: #33474b" transform="translate(336.746443 284.310664) scale(0.125 -0.125)">
       <use xlink:href="#FiraSans-Light-31"/>
       <use xlink:href="#FiraSans-Light-2e" transform="translate(41.299988 0)"/>
       <use xlink:href="#FiraSans-Light-37" transform="translate(61.999985 0)"/>
       <use xlink:href="#FiraSans-Light-35" transform="translate(105.699982 0)"/>
      </g>
     </g>
    </g>
    <g id="text_4">
     <!-- $\Lambda/\xi$ -->
     <g style="fill: #33474b" transform="translate(210.2595 303.785664) scale(0.16 -0.16)">
      <defs>
       <path id="FiraSans-Light-39b" d="M 2048 4384 
L 3507 0 
L 3104 0 
L 1805 4070 
L 493 0 
L 102 0 
L 1568 4384 
L 2048 4384 
z
" transform="scale(0.015625)"/>
       <path id="FiraSans-Light-2f" d="M 2246 5139 
L 2566 5056 
L 1082 -640 
L 762 -557 
L 2246 5139 
z
" transform="scale(0.015625)"/>
       <path id="FiraSans-LightItalic-3be" d="M 1267 -1069 
Q 1645 -890 1827 -710 
Q 2010 -531 2010 -314 
Q 2010 -192 1949 -109 
Q 1888 -26 1741 57 
Q 1594 141 1286 269 
Q 781 480 557 739 
Q 333 998 333 1478 
Q 333 1990 630 2377 
Q 928 2765 1517 2848 
Q 1222 2925 1052 3129 
Q 883 3334 883 3635 
Q 883 3962 1040 4218 
Q 1197 4474 1481 4618 
Q 1766 4762 2131 4762 
Q 2720 4762 3123 4410 
L 2918 4192 
Q 2739 4326 2553 4390 
Q 2368 4454 2144 4454 
Q 1696 4454 1478 4217 
Q 1261 3981 1261 3642 
Q 1261 3334 1456 3158 
Q 1651 2982 1997 2982 
L 2368 2982 
L 2272 2669 
L 1901 2669 
Q 1478 2669 1216 2489 
Q 954 2310 838 2044 
Q 723 1779 723 1491 
Q 723 1229 803 1062 
Q 883 896 1049 784 
Q 1216 672 1510 557 
Q 2010 352 2208 176 
Q 2406 0 2406 -294 
Q 2406 -589 2185 -835 
Q 1965 -1082 1395 -1325 
L 1267 -1069 
z
" transform="scale(0.015625)"/>
      </defs>
      <use xlink:href="#FiraSans-Light-39b" transform="translate(0 0.703125)"/>
      <use xlink:href="#FiraSans-Light-2f" transform="translate(56.499985 0.703125)"/>
      <use xlink:href="#FiraSans-LightItalic-3be" transform="translate(108.499969 0.703125)"/>
     </g>
    </g>
   </g>
   <g id="matplotlib.axis_2">
    <g id="ytick_1">
     <g id="line2d_5">
      <defs>
       <path id="ma3d5ca7e9f" d="M 0 0 
L -3 0 
" style="stroke: #33474b; stroke-width: 0.8"/>
      </defs>
      <g>
       <use xlink:href="#ma3d5ca7e9f" x="46.0475" y="268.523555" style="fill: #33474b; stroke: #33474b; stroke-width: 0.8"/>
      </g>
     </g>
     <g id="text_5">
      <!-- 0.6 -->
      <g style="fill: #33474b" transform="translate(23.533828 273.167109) scale(0.125 -0.125)">
       <defs>
        <path id="FiraSans-Light-36" d="M 1894 2771 
Q 2387 2771 2707 2428 
Q 3027 2086 3027 1434 
Q 3027 979 2864 636 
Q 2701 294 2416 112 
Q 2131 -70 1773 -70 
Q 1069 -70 745 470 
Q 422 1011 422 1920 
Q 422 2656 608 3200 
Q 794 3744 1139 4035 
Q 1485 4326 1958 4326 
Q 2387 4326 2752 4077 
L 2592 3821 
Q 2285 4019 1952 4019 
Q 1434 4019 1126 3500 
Q 819 2982 800 2144 
Q 1229 2771 1894 2771 
z
M 1773 237 
Q 2195 237 2422 560 
Q 2650 883 2650 1421 
Q 2650 1952 2429 2208 
Q 2208 2464 1843 2464 
Q 1523 2464 1257 2275 
Q 992 2086 800 1760 
Q 819 1018 1049 627 
Q 1280 237 1773 237 
z
" transform="scale(0.015625)"/>
       </defs>
       <use xlink:href="#FiraSans-Light-30"/>
       <use xlink:href="#FiraSans-Light-2e" transform="translate(54.999985 0)"/>
       <use xlink:href="#FiraSans-Light-36" transform="translate(75.699982 0)"/>
      </g>
     </g>
    </g>
    <g id="ytick_2">
     <g id="line2d_6">
      <g>
       <use xlink:href="#ma3d5ca7e9f" x="46.0475" y="216.035555" style="fill: #33474b; stroke: #33474b; stroke-width: 0.8"/>
      </g>
     </g>
     <g id="text_6">
      <!-- 0.7 -->
      <g style="fill: #33474b" transform="translate(24.621719 220.679109) scale(0.125 -0.125)">
       <use xlink:href="#FiraSans-Light-30"/>
       <use xlink:href="#FiraSans-Light-2e" transform="translate(54.999985 0)"/>
       <use xlink:href="#FiraSans-Light-37" transform="translate(75.699982 0)"/>
      </g>
     </g>
    </g>
    <g id="ytick_3">
     <g id="line2d_7">
      <g>
       <use xlink:href="#ma3d5ca7e9f" x="46.0475" y="163.547555" style="fill: #33474b; stroke: #33474b; stroke-width: 0.8"/>
      </g>
     </g>
     <g id="text_7">
      <!-- 0.8 -->
      <g style="fill: #33474b" transform="translate(23.36 168.191109) scale(0.125 -0.125)">
       <defs>
        <path id="FiraSans-Light-38" d="M 2157 2253 
Q 2650 2054 2877 1788 
Q 3104 1523 3104 1107 
Q 3104 755 2928 489 
Q 2752 224 2435 77 
Q 2118 -70 1709 -70 
Q 1299 -70 988 77 
Q 678 224 508 489 
Q 339 755 339 1101 
Q 339 1920 1254 2285 
Q 877 2458 701 2685 
Q 525 2912 525 3264 
Q 525 3590 691 3833 
Q 858 4077 1133 4201 
Q 1408 4326 1722 4326 
Q 2035 4326 2310 4204 
Q 2586 4083 2755 3846 
Q 2925 3610 2925 3270 
Q 2925 2938 2739 2698 
Q 2554 2458 2157 2253 
z
M 896 3258 
Q 896 2950 1072 2771 
Q 1248 2592 1683 2432 
L 1882 2362 
Q 2240 2554 2397 2758 
Q 2554 2963 2554 3258 
Q 2554 3622 2326 3827 
Q 2099 4032 1722 4032 
Q 1357 4032 1126 3827 
Q 896 3622 896 3258 
z
M 1715 243 
Q 2170 243 2442 470 
Q 2714 698 2714 1107 
Q 2714 1363 2618 1532 
Q 2522 1702 2323 1827 
Q 2125 1952 1766 2086 
L 1549 2170 
Q 1120 2003 925 1744 
Q 730 1485 730 1101 
Q 730 691 998 467 
Q 1267 243 1715 243 
z
" transform="scale(0.015625)"/>
       </defs>
       <use xlink:href="#FiraSans-Light-30"/>
       <use xlink:href="#FiraSans-Light-2e" transform="translate(54.999985 0)"/>
       <use xlink:href="#FiraSans-Light-38" transform="translate(75.699982 0)"/>
      </g>
     </g>
    </g>
    <g id="ytick_4">
     <g id="line2d_8">
      <g>
       <use xlink:href="#ma3d5ca7e9f" x="46.0475" y="111.059555" style="fill: #33474b; stroke: #33474b; stroke-width: 0.8"/>
      </g>
     </g>
     <g id="text_8">
      <!-- 0.9 -->
      <g style="fill: #33474b" transform="translate(23.61 115.703109) scale(0.125 -0.125)">
       <defs>
        <path id="FiraSans-Light-39" d="M 1632 4326 
Q 2278 4326 2601 3875 
Q 2925 3424 2925 2611 
Q 2925 1786 2688 1261 
Q 2451 736 1993 422 
Q 1536 109 787 -122 
L 691 166 
Q 1574 435 2038 902 
Q 2502 1370 2547 2182 
Q 2355 1901 2086 1744 
Q 1818 1587 1498 1587 
Q 1165 1587 902 1750 
Q 640 1914 489 2218 
Q 339 2522 339 2931 
Q 339 3354 508 3670 
Q 678 3987 972 4156 
Q 1267 4326 1632 4326 
z
M 1562 1894 
Q 1862 1894 2102 2057 
Q 2342 2221 2547 2534 
Q 2554 3296 2336 3657 
Q 2118 4019 1645 4019 
Q 1216 4019 969 3734 
Q 723 3450 723 2925 
Q 723 2432 950 2163 
Q 1178 1894 1562 1894 
z
" transform="scale(0.015625)"/>
       </defs>
       <use xlink:href="#FiraSans-Light-30"/>
       <use xlink:href="#FiraSans-Light-2e" transform="translate(54.999985 0)"/>
       <use xlink:href="#FiraSans-Light-39" transform="translate(75.699982 0)"/>
      </g>
     </g>
    </g>
    <g id="ytick_5">
     <g id="line2d_9">
      <g>
       <use xlink:href="#ma3d5ca7e9f" x="46.0475" y="58.571555" style="fill: #33474b; stroke: #33474b; stroke-width: 0.8"/>
      </g>
     </g>
     <g id="text_9">
      <!-- 1.0 -->
      <g style="fill: #33474b" transform="translate(24.9225 63.215109) scale(0.125 -0.125)">
       <use xlink:href="#FiraSans-Light-31"/>
       <use xlink:href="#FiraSans-Light-2e" transform="translate(41.299988 0)"/>
       <use xlink:href="#FiraSans-Light-30" transform="translate(61.999985 0)"/>
      </g>
     </g>
    </g>
    <g id="ytick_6">
     <g id="line2d_10">
      <g>
       <use xlink:href="#ma3d5ca7e9f" x="46.0475" y="6.083555" style="fill: #33474b; stroke: #33474b; stroke-width: 0.8"/>
      </g>
     </g>
     <g id="text_10">
      <!-- 1.1 -->
      <g style="fill: #33474b" transform="translate(26.635391 10.727109) scale(0.125 -0.125)">
       <use xlink:href="#FiraSans-Light-31"/>
       <use xlink:href="#FiraSans-Light-2e" transform="translate(41.299988 0)"/>
       <use xlink:href="#FiraSans-Light-31" transform="translate(61.999985 0)"/>
      </g>
     </g>
    </g>
    <g id="text_11">
     <!-- $A_{\mathrm{opt}}\,/\,A_{\mathrm{lin}}$ -->
     <g style="fill: #33474b" transform="translate(14.4 167.943555) rotate(-90) scale(0.16 -0.16)">
      <defs>
       <path id="FiraSans-LightItalic-41" d="M 2861 0 
L 2650 1197 
L 813 1197 
L 262 0 
L -134 0 
L 1939 4384 
L 2419 4384 
L 3258 0 
L 2861 0 
z
M 966 1523 
L 2592 1523 
L 2138 4064 
L 966 1523 
z
" transform="scale(0.015625)"/>
       <path id="FiraSans-Light-6f" d="M 1830 3418 
Q 2496 3418 2870 2960 
Q 3245 2502 3245 1683 
Q 3245 870 2864 400 
Q 2483 -70 1824 -70 
Q 1158 -70 784 394 
Q 410 858 410 1670 
Q 410 2202 582 2598 
Q 755 2995 1075 3206 
Q 1395 3418 1830 3418 
z
M 1830 3104 
Q 1344 3104 1075 2739 
Q 806 2374 806 1670 
Q 806 973 1072 608 
Q 1338 243 1824 243 
Q 2310 243 2582 608 
Q 2854 973 2854 1683 
Q 2854 2381 2588 2742 
Q 2323 3104 1830 3104 
z
" transform="scale(0.015625)"/>
       <path id="FiraSans-Light-70" d="M 2061 3418 
Q 2669 3418 2973 2966 
Q 3277 2515 3277 1690 
Q 3277 883 2947 406 
Q 2618 -70 2003 -70 
Q 1702 -70 1459 54 
Q 1216 179 1050 390 
L 1050 -1261 
L 678 -1312 
L 678 3347 
L 998 3347 
L 1030 2861 
Q 1216 3123 1481 3270 
Q 1747 3418 2061 3418 
z
M 1933 243 
Q 2394 243 2637 608 
Q 2880 973 2880 1690 
Q 2880 3110 1990 3110 
Q 1690 3110 1469 2956 
Q 1248 2803 1050 2534 
L 1050 755 
Q 1382 243 1933 243 
z
" transform="scale(0.015625)"/>
       <path id="FiraSans-Light-74" d="M 2202 141 
Q 1882 -70 1498 -70 
Q 1114 -70 896 157 
Q 678 384 678 813 
L 678 3046 
L 115 3046 
L 115 3347 
L 678 3347 
L 678 4147 
L 1050 4192 
L 1050 3347 
L 1914 3347 
L 1869 3046 
L 1050 3046 
L 1050 832 
Q 1050 538 1171 394 
Q 1293 250 1542 250 
Q 1798 250 2054 397 
L 2202 141 
z
" transform="scale(0.015625)"/>
       <path id="FiraSans-Light-6c" d="M 1235 -70 
Q 960 -70 803 90 
Q 646 250 646 563 
L 646 4710 
L 1018 4755 
L 1018 576 
Q 1018 250 1286 250 
Q 1421 250 1517 294 
L 1619 19 
Q 1440 -70 1235 -70 
z
" transform="scale(0.015625)"/>
       <path id="FiraSans-Light-69" d="M 1050 3347 
L 1050 0 
L 678 0 
L 678 3347 
L 1050 3347 
z
M 858 4819 
Q 986 4819 1062 4742 
Q 1139 4666 1139 4550 
Q 1139 4435 1062 4358 
Q 986 4282 858 4282 
Q 736 4282 659 4358 
Q 583 4435 583 4550 
Q 583 4666 659 4742 
Q 736 4819 858 4819 
z
" transform="scale(0.015625)"/>
       <path id="FiraSans-Light-6e" d="M 2157 3418 
Q 2611 3418 2851 3149 
Q 3091 2880 3091 2394 
L 3091 0 
L 2720 0 
L 2720 2342 
Q 2720 2746 2560 2931 
Q 2400 3117 2086 3117 
Q 1766 3117 1520 2941 
Q 1274 2765 1050 2426 
L 1050 0 
L 678 0 
L 678 3347 
L 998 3347 
L 1037 2778 
Q 1242 3078 1523 3248 
Q 1805 3418 2157 3418 
z
" transform="scale(0.015625)"/>
      </defs>
      <use xlink:href="#FiraSans-LightItalic-41" transform="translate(0 0.703125)"/>
      <use xlink:href="#FiraSans-Light-6f" transform="translate(56.199997 -14.985938) scale(0.7)"/>
      <use xlink:href="#FiraSans-Light-70" transform="translate(96.169991 -14.985938) scale(0.7)"/>
      <use xlink:href="#FiraSans-Light-74" transform="translate(136.839984 -14.985938) scale(0.7)"/>
      <use xlink:href="#FiraSans-Light-2f" transform="translate(177.475103 0.703125)"/>
      <use xlink:href="#FiraSans-LightItalic-41" transform="translate(243.62537 0.703125)"/>
      <use xlink:href="#FiraSans-Light-6c" transform="translate(299.825367 -14.985938) scale(0.7)"/>
      <use xlink:href="#FiraSans-Light-69" transform="translate(319.705363 -14.985938) scale(0.7)"/>
      <use xlink:href="#FiraSans-Light-6e" transform="translate(338.605352 -14.985938) scale(0.7)"/>
     </g>
    </g>
   </g>
   <g id="patch_3">
    <path d="M 46.0475 268.523555 
L 46.0475 6.083555 
" style="fill: none; stroke: #33474b; stroke-width: 0.8; stroke-linejoin: miter; stroke-linecap: square"/>
   </g>
   <g id="patch_4">
    <path d="M 46.0475 268.523555 
L 398.6315 268.523555 
" style="fill: none; stroke: #33474b; stroke-width: 0.8; stroke-linejoin: miter; stroke-linecap: square"/>
   </g>
   <g id="LineCollection_1">
    <path d="M 85.2235 190.083911 
L 85.2235 128.384291 
" clip-path="url(#p03af5d1855)" style="fill: none; stroke: #eb811b; stroke-width: 2"/>
    <path d="M 215.810167 208.175585 
L 215.810167 155.067413 
" clip-path="url(#p03af5d1855)" style="fill: none; stroke: #eb811b; stroke-width: 2"/>
    <path d="M 346.396833 214.125577 
L 346.396833 161.680207 
" clip-path="url(#p03af5d1855)" style="fill: none; stroke: #eb811b; stroke-width: 2"/>
   </g>
   <g id="line2d_11">
    <defs>
     <path id="m0ddff1860e" d="M 4 0 
L -4 -0 
" style="stroke: #eb811b; stroke-width: 0.9"/>
    </defs>
    <g clip-path="url(#p03af5d1855)">
     <use xlink:href="#m0ddff1860e" x="85.2235" y="190.083911" style="fill: #eb811b; stroke: #eb811b; stroke-width: 0.9"/>
     <use xlink:href="#m0ddff1860e" x="215.810167" y="208.175585" style="fill: #eb811b; stroke: #eb811b; stroke-width: 0.9"/>
     <use xlink:href="#m0ddff1860e" x="346.396833" y="214.125577" style="fill: #eb811b; stroke: #eb811b; stroke-width: 0.9"/>
    </g>
   </g>
   <g id="line2d_12">
    <g clip-path="url(#p03af5d1855)">
     <use xlink:href="#m0ddff1860e" x="85.2235" y="128.384291" style="fill: #eb811b; stroke: #eb811b; stroke-width: 0.9"/>
     <use xlink:href="#m0ddff1860e" x="215.810167" y="155.067413" style="fill: #eb811b; stroke: #eb811b; stroke-width: 0.9"/>
     <use xlink:href="#m0ddff1860e" x="346.396833" y="161.680207" style="fill: #eb811b; stroke: #eb811b; stroke-width: 0.9"/>
    </g>
   </g>
   <g id="text_12">
    <!-- no gain -->
    <g style="fill: #14232a" transform="translate(356.81069 51.067755) scale(0.11 -0.11)">
     <defs>
      <path id="FiraSans-Light-20" transform="scale(0.015625)"/>
      <path id="FiraSans-Light-67" d="M 3168 3277 
Q 2861 3194 2240 3181 
Q 2810 2912 2810 2272 
Q 2810 1779 2483 1475 
Q 2157 1171 1600 1171 
Q 1350 1171 1165 1235 
Q 1043 1165 976 1065 
Q 909 966 909 851 
Q 909 506 1440 506 
L 1984 506 
Q 2477 506 2768 266 
Q 3059 26 3059 -352 
Q 3059 -813 2694 -1062 
Q 2330 -1312 1606 -1312 
Q 858 -1312 534 -1085 
Q 211 -858 211 -352 
L 557 -352 
Q 563 -595 659 -736 
Q 755 -877 979 -941 
Q 1203 -1005 1606 -1005 
Q 2170 -1005 2426 -841 
Q 2682 -678 2682 -371 
Q 2682 -102 2483 42 
Q 2285 186 1926 186 
L 1382 186 
Q 986 186 771 352 
Q 557 518 557 774 
Q 557 941 653 1088 
Q 749 1235 922 1344 
Q 634 1491 496 1721 
Q 358 1952 358 2285 
Q 358 2790 697 3104 
Q 1037 3418 1587 3418 
Q 2195 3411 2473 3462 
Q 2752 3514 3053 3635 
L 3168 3277 
z
M 1587 3130 
Q 1171 3130 956 2899 
Q 742 2669 742 2285 
Q 742 1888 969 1664 
Q 1197 1440 1587 1440 
Q 1997 1440 2214 1661 
Q 2432 1882 2432 2278 
Q 2432 2682 2217 2906 
Q 2003 3130 1587 3130 
z
" transform="scale(0.015625)"/>
      <path id="FiraSans-Light-61" d="M 2758 742 
Q 2758 480 2825 365 
Q 2893 250 3040 192 
L 2957 -70 
Q 2726 -26 2601 102 
Q 2477 230 2438 493 
Q 2093 -70 1395 -70 
Q 915 -70 636 202 
Q 358 474 358 928 
Q 358 1446 726 1728 
Q 1094 2010 1747 2010 
L 2387 2010 
L 2387 2336 
Q 2387 2739 2208 2921 
Q 2029 3104 1613 3104 
Q 1229 3104 704 2912 
L 608 3194 
Q 1171 3418 1664 3418 
Q 2758 3418 2758 2355 
L 2758 742 
z
M 1459 230 
Q 2061 230 2387 819 
L 2387 1741 
L 1805 1741 
Q 1293 1741 1024 1542 
Q 755 1344 755 947 
Q 755 602 940 416 
Q 1126 230 1459 230 
z
" transform="scale(0.015625)"/>
     </defs>
     <use xlink:href="#FiraSans-Light-6e"/>
     <use xlink:href="#FiraSans-Light-6f" transform="translate(58.399994 0)"/>
     <use xlink:href="#FiraSans-Light-20" transform="translate(115.499985 0)"/>
     <use xlink:href="#FiraSans-Light-67" transform="translate(143.399979 0)"/>
     <use xlink:href="#FiraSans-Light-61" transform="translate(193.699966 0)"/>
     <use xlink:href="#FiraSans-Light-69" transform="translate(247.299957 0)"/>
     <use xlink:href="#FiraSans-Light-6e" transform="translate(274.299942 0)"/>
    </g>
   </g>
   <g id="text_13">
    <!-- optimized faster -->
    <g style="fill: #eb811b" transform="translate(168.202745 219.701961) scale(0.13 -0.13)">
     <defs>
      <path id="FiraSans-Italic-6f" d="M 1626 -77 
Q 1005 -77 669 294 
Q 333 666 333 1318 
Q 333 1792 509 2281 
Q 685 2771 1075 3110 
Q 1466 3450 2080 3450 
Q 2701 3450 3033 3078 
Q 3366 2707 3366 2054 
Q 3366 1587 3193 1097 
Q 3021 608 2630 265 
Q 2240 -77 1626 -77 
z
M 1645 397 
Q 2048 397 2297 675 
Q 2547 954 2649 1347 
Q 2752 1741 2752 2118 
Q 2752 2976 2061 2976 
Q 1658 2976 1408 2697 
Q 1158 2419 1052 2025 
Q 947 1632 947 1254 
Q 947 397 1645 397 
z
" transform="scale(0.015625)"/>
      <path id="FiraSans-Italic-70" d="M 838 3373 
L 1338 3373 
L 1325 2950 
Q 1574 3226 1824 3338 
Q 2074 3450 2349 3450 
Q 2829 3450 3104 3101 
Q 3379 2752 3379 2125 
Q 3379 1606 3193 1100 
Q 3008 595 2605 259 
Q 2202 -77 1587 -77 
Q 1274 -77 947 32 
L 755 -1306 
L 173 -1382 
L 838 3373 
z
M 1619 390 
Q 2010 390 2269 662 
Q 2528 934 2649 1344 
Q 2771 1754 2771 2170 
Q 2771 2982 2182 2982 
Q 1933 2982 1725 2854 
Q 1517 2726 1299 2496 
L 1024 493 
Q 1184 435 1312 412 
Q 1440 390 1619 390 
z
" transform="scale(0.015625)"/>
      <path id="FiraSans-Italic-74" d="M 1107 890 
Q 1094 762 1094 723 
Q 1094 563 1168 489 
Q 1242 416 1395 416 
Q 1510 416 1622 451 
Q 1734 486 1882 557 
L 2074 147 
Q 1722 -77 1325 -77 
Q 934 -77 723 124 
Q 512 326 512 698 
Q 512 832 525 902 
L 806 2918 
L 224 2918 
L 288 3373 
L 896 3373 
L 1107 4154 
L 1568 4205 
L 1453 3373 
L 2246 3373 
L 2118 2918 
L 1389 2918 
L 1107 890 
z
" transform="scale(0.015625)"/>
      <path id="FiraSans-Italic-69" d="M 1421 3373 
L 947 0 
L 365 0 
L 838 3373 
L 1421 3373 
z
M 1267 4192 
Q 1095 4192 992 4297 
Q 890 4403 890 4557 
Q 890 4742 1018 4867 
Q 1146 4992 1331 4992 
Q 1504 4992 1606 4889 
Q 1709 4787 1709 4627 
Q 1709 4442 1581 4317 
Q 1453 4192 1267 4192 
z
" transform="scale(0.015625)"/>
      <path id="FiraSans-Italic-6d" d="M 4230 3450 
Q 4570 3450 4771 3222 
Q 4973 2995 4973 2611 
Q 4973 2470 4960 2400 
L 4621 0 
L 4038 0 
L 4371 2355 
Q 4384 2432 4384 2554 
Q 4384 2784 4288 2870 
Q 4192 2957 4019 2957 
Q 3776 2957 3539 2704 
Q 3302 2451 3066 2035 
L 2778 0 
L 2195 0 
L 2528 2355 
Q 2541 2432 2541 2554 
Q 2541 2784 2445 2870 
Q 2349 2957 2176 2957 
Q 1933 2957 1696 2701 
Q 1459 2445 1222 2022 
L 947 0 
L 365 0 
L 838 3373 
L 1338 3373 
L 1286 2726 
Q 1536 3078 1801 3264 
Q 2067 3450 2387 3450 
Q 2669 3450 2873 3270 
Q 3078 3091 3123 2765 
Q 3379 3104 3651 3277 
Q 3923 3450 4230 3450 
z
" transform="scale(0.015625)"/>
      <path id="FiraSans-Italic-7a" d="M 2790 3373 
L 2733 2925 
L 698 493 
L 2406 493 
L 2272 0 
L -83 0 
L -26 442 
L 2003 2874 
L 467 2874 
L 538 3373 
L 2790 3373 
z
" transform="scale(0.015625)"/>
      <path id="FiraSans-Italic-65" d="M 3136 2592 
Q 3136 1946 2560 1658 
Q 1984 1370 947 1254 
Q 966 416 1677 416 
Q 1914 416 2131 493 
Q 2349 570 2579 730 
L 2829 333 
Q 2259 -77 1619 -77 
Q 1005 -77 669 284 
Q 333 646 333 1293 
Q 333 1798 509 2294 
Q 685 2790 1075 3120 
Q 1466 3450 2067 3450 
Q 2579 3450 2857 3200 
Q 3136 2950 3136 2592 
z
M 979 1702 
Q 1773 1792 2147 1977 
Q 2522 2163 2522 2573 
Q 2522 2726 2413 2854 
Q 2304 2982 2061 2982 
Q 1574 2982 1312 2611 
Q 1050 2240 979 1702 
z
" transform="scale(0.015625)"/>
      <path id="FiraSans-Italic-64" d="M 3584 4723 
L 2918 0 
L 2406 0 
L 2413 557 
Q 2227 256 1971 89 
Q 1715 -77 1395 -77 
Q 883 -77 604 281 
Q 326 640 326 1261 
Q 326 1747 489 2252 
Q 653 2758 1005 3104 
Q 1357 3450 1894 3450 
Q 2426 3450 2758 3027 
L 3008 4787 
L 3584 4723 
z
M 2003 2982 
Q 1626 2982 1389 2700 
Q 1152 2419 1049 2012 
Q 947 1606 947 1216 
Q 947 800 1094 595 
Q 1242 390 1510 390 
Q 1805 390 2029 582 
Q 2253 774 2502 1171 
L 2701 2573 
Q 2566 2778 2400 2880 
Q 2234 2982 2003 2982 
z
" transform="scale(0.015625)"/>
      <path id="FiraSans-Italic-20" transform="scale(0.015625)"/>
      <path id="FiraSans-Italic-66" d="M 2125 4326 
Q 1850 4326 1709 4201 
Q 1568 4077 1536 3821 
L 1472 3373 
L 2285 3373 
L 2157 2918 
L 1408 2918 
L 1024 186 
Q 960 -282 809 -560 
Q 659 -838 419 -1011 
Q 179 -1184 -237 -1363 
L -403 -922 
Q -134 -800 22 -685 
Q 179 -570 284 -365 
Q 390 -160 442 186 
L 826 2918 
L 230 2918 
L 294 3373 
L 890 3373 
L 960 3853 
Q 1018 4288 1318 4544 
Q 1619 4800 2106 4800 
Q 2336 4800 2515 4742 
Q 2694 4685 2899 4557 
L 2675 4166 
Q 2438 4326 2125 4326 
z
" transform="scale(0.015625)"/>
      <path id="FiraSans-Italic-61" d="M 2118 3450 
Q 2432 3450 2717 3379 
Q 3002 3309 3302 3162 
L 2957 768 
Q 2944 666 2944 627 
Q 2944 512 2992 441 
Q 3040 371 3162 326 
L 2995 -77 
Q 2726 -45 2579 89 
Q 2432 224 2400 486 
Q 2195 224 1939 73 
Q 1683 -77 1395 -77 
Q 883 -77 601 275 
Q 320 627 320 1216 
Q 320 1728 509 2240 
Q 698 2752 1101 3101 
Q 1504 3450 2118 3450 
z
M 2131 2982 
Q 1728 2982 1462 2710 
Q 1197 2438 1072 2032 
Q 947 1626 947 1210 
Q 947 794 1094 592 
Q 1242 390 1517 390 
Q 1779 390 1987 550 
Q 2195 710 2419 1011 
L 2682 2874 
Q 2547 2931 2422 2956 
Q 2298 2982 2131 2982 
z
" transform="scale(0.015625)"/>
      <path id="FiraSans-Italic-73" d="M 1683 3450 
Q 2323 3450 2790 3034 
L 2502 2682 
Q 2125 2982 1677 2982 
Q 1370 2982 1187 2860 
Q 1005 2739 1005 2528 
Q 1005 2336 1155 2233 
Q 1306 2131 1683 2016 
Q 2176 1862 2406 1628 
Q 2637 1395 2637 1005 
Q 2637 646 2438 403 
Q 2240 160 1923 41 
Q 1606 -77 1235 -77 
Q 486 -77 -13 410 
L 320 749 
Q 736 397 1261 397 
Q 1664 397 1843 566 
Q 2022 736 2022 947 
Q 2022 1120 1958 1222 
Q 1894 1325 1744 1401 
Q 1594 1478 1312 1568 
Q 826 1715 618 1929 
Q 410 2144 410 2490 
Q 410 2726 550 2947 
Q 691 3168 979 3309 
Q 1267 3450 1683 3450 
z
" transform="scale(0.015625)"/>
      <path id="FiraSans-Italic-72" d="M 2278 3450 
Q 2438 3450 2618 3405 
L 2445 2835 
Q 2323 2867 2170 2867 
Q 1856 2867 1622 2595 
Q 1389 2323 1203 1786 
L 947 0 
L 365 0 
L 838 3373 
L 1338 3373 
L 1299 2682 
Q 1485 3066 1737 3258 
Q 1990 3450 2278 3450 
z
" transform="scale(0.015625)"/>
     </defs>
     <use xlink:href="#FiraSans-Italic-6f"/>
     <use xlink:href="#FiraSans-Italic-70" transform="translate(57.799988 0)"/>
     <use xlink:href="#FiraSans-Italic-74" transform="translate(115.699982 0)"/>
     <use xlink:href="#FiraSans-Italic-69" transform="translate(151.199966 0)"/>
     <use xlink:href="#FiraSans-Italic-6d" transform="translate(179.09996 0)"/>
     <use xlink:href="#FiraSans-Italic-69" transform="translate(263.899948 0)"/>
     <use xlink:href="#FiraSans-Italic-7a" transform="translate(291.799942 0)"/>
     <use xlink:href="#FiraSans-Italic-65" transform="translate(334.899933 0)"/>
     <use xlink:href="#FiraSans-Italic-64" transform="translate(386.59993 0)"/>
     <use xlink:href="#FiraSans-Italic-20" transform="translate(445.299927 0)"/>
     <use xlink:href="#FiraSans-Italic-66" transform="translate(471.199921 0)"/>
     <use xlink:href="#FiraSans-Italic-61" transform="translate(504.099915 0)"/>
     <use xlink:href="#FiraSans-Italic-73" transform="translate(560.999908 0)"/>
     <use xlink:href="#FiraSans-Italic-74" transform="translate(607.099899 0)"/>
     <use xlink:href="#FiraSans-Italic-65" transform="translate(642.599884 0)"/>
     <use xlink:href="#FiraSans-Italic-72" transform="translate(694.299881 0)"/>
    </g>
   </g>
   <g id="line2d_13">
    <path d="M 85.2235 159.234101 
L 215.810167 181.621499 
L 346.396833 187.902892 
" clip-path="url(#p03af5d1855)" style="fill: none; stroke: #eb811b; stroke-width: 2; stroke-linecap: round"/>
    <defs>
     <path id="m79389c57b2" d="M 0 4.5 
C 1.193414 4.5 2.338109 4.025852 3.181981 3.181981 
C 4.025852 2.338109 4.5 1.193414 4.5 0 
C 4.5 -1.193414 4.025852 -2.338109 3.181981 -3.181981 
C 2.338109 -4.025852 1.193414 -4.5 0 -4.5 
C -1.193414 -4.5 -2.338109 -4.025852 -3.181981 -3.181981 
C -4.025852 -2.338109 -4.5 -1.193414 -4.5 0 
C -4.5 1.193414 -4.025852 2.338109 -3.181981 3.181981 
C -2.338109 4.025852 -1.193414 4.5 0 4.5 
z
" style="stroke: #ffffff; stroke-width: 0.9"/>
    </defs>
    <g clip-path="url(#p03af5d1855)">
     <use xlink:href="#m79389c57b2" x="85.2235" y="159.234101" style="fill: #eb811b; stroke: #ffffff; stroke-width: 0.9"/>
     <use xlink:href="#m79389c57b2" x="215.810167" y="181.621499" style="fill: #eb811b; stroke: #ffffff; stroke-width: 0.9"/>
     <use xlink:href="#m79389c57b2" x="346.396833" y="187.902892" style="fill: #eb811b; stroke: #ffffff; stroke-width: 0.9"/>
    </g>
   </g>
  </g>
 </g>
 <defs>
  <clipPath id="p03af5d1855">
   <rect x="46.0475" y="6.083555" width="352.584" height="262.44"/>
  </clipPath>
 </defs>
</svg>
